<svg xmlns="http://www.w3.org/2000/svg" width="71.371" height="22.871" viewBox="0 0 71.371 22.871"><defs><style>.a{fill:#fff;}</style></defs><path class="a" d="M792.248,475.337a6.407,6.407,0,0,0-2.119-1.48,6.64,6.64,0,0,0-2.688-.538,4.069,4.069,0,0,0-1.406.213,3.663,3.663,0,0,0-.99.538,3.973,3.973,0,0,0-.719.724q-.3.4-.6.783l-.447-1.288q-.053-.17-.112-.314a1.113,1.113,0,0,0-.144-.256.592.592,0,0,0-.218-.176.774.774,0,0,0-.335-.064h-1.608a1.371,1.371,0,0,0-.288.032.659.659,0,0,0-.287.149,1.231,1.231,0,0,0-.2.255.7.7,0,0,0-.08.351V490.44a.626.626,0,0,0,.085.325.816.816,0,0,0,.213.24,1.048,1.048,0,0,0,.277.149.827.827,0,0,0,.277.053H783.3a.743.743,0,0,0,.6-.224.805.805,0,0,0,.192-.543v-4.962q.288.319.586.639a4.1,4.1,0,0,0,.687.586,3.5,3.5,0,0,0,.889.431,3.822,3.822,0,0,0,1.193.165,6.583,6.583,0,0,0,2.688-.543,6.471,6.471,0,0,0,2.119-1.485,6.823,6.823,0,0,0,1.39-2.22,7.806,7.806,0,0,0,0-5.5A6.84,6.84,0,0,0,792.248,475.337Zm-2.241,6.287a3.24,3.24,0,0,1-.628,1.07,3,3,0,0,1-.969.719,2.882,2.882,0,0,1-1.246.266,3.271,3.271,0,0,1-1.31-.266,3.459,3.459,0,0,1-1.075-.719,3.348,3.348,0,0,1-.724-1.07,3.3,3.3,0,0,1-.266-1.32v-.16a3.2,3.2,0,0,1,.314-1.246,3.471,3.471,0,0,1,.735-1.017,3.411,3.411,0,0,1,1.054-.681,3.283,3.283,0,0,1,1.272-.25,2.886,2.886,0,0,1,1.246.266,2.972,2.972,0,0,1,.969.724,3.316,3.316,0,0,1,.628,1.07,3.742,3.742,0,0,1,.224,1.294A3.848,3.848,0,0,1,790.007,481.624Z" transform="translate(-759.538 -469.518)"/><path class="a" d="M920.243,440.342a.792.792,0,0,0-.218-.165.5.5,0,0,0-.224-.059h-2.608a.677.677,0,0,0-.586.234.952.952,0,0,0-.17.575v15.907a.947.947,0,0,0,.17.612.72.72,0,0,0,.586.208h2.47a.847.847,0,0,0,.591-.208.785.785,0,0,0,.229-.612V440.927a.774.774,0,0,0-.069-.33A.949.949,0,0,0,920.243,440.342Z" transform="translate(-880.346 -440.118)"/><path class="a" d="M979.026,473.66a.532.532,0,0,0-.277-.149,1.44,1.44,0,0,0-.277-.032h-1.586a1.576,1.576,0,0,0-.33.027.4.4,0,0,0-.2.106.766.766,0,0,0-.149.245q-.069.165-.175.431l-.309.969a4.735,4.735,0,0,0-.671-.772,4.137,4.137,0,0,0-.857-.612,4.7,4.7,0,0,0-1.044-.4,4.845,4.845,0,0,0-1.23-.149,6.9,6.9,0,0,0-4.919,2.018,7.007,7.007,0,0,0-1.48,2.215,6.935,6.935,0,0,0-.543,2.752,7.121,7.121,0,0,0,.245,1.879,6.94,6.94,0,0,0,1.778,3.088,6.833,6.833,0,0,0,3.061,1.784,6.966,6.966,0,0,0,1.858.245,4.108,4.108,0,0,0,1.049-.133,5.053,5.053,0,0,0,1.757-.847,6.179,6.179,0,0,0,.655-.564l.138.479c.043.121.083.233.123.335a.942.942,0,0,0,.144.261.554.554,0,0,0,.223.165.939.939,0,0,0,.362.059h2.1a1.437,1.437,0,0,0,.277-.032.835.835,0,0,0,.49-.41.946.946,0,0,0,.064-.346v-12a.855.855,0,0,0-.064-.341A.68.68,0,0,0,979.026,473.66Zm-4.036,7.959a3.207,3.207,0,0,1-.708,1.059,3.39,3.39,0,0,1-1.065.708,3.343,3.343,0,0,1-1.326.261,2.992,2.992,0,0,1-1.262-.261,2.954,2.954,0,0,1-.974-.708,3.115,3.115,0,0,1-.623-1.059,4.022,4.022,0,0,1,0-2.614,3.349,3.349,0,0,1,.623-1.086,2.947,2.947,0,0,1,.974-.74,2.894,2.894,0,0,1,1.262-.272,3.233,3.233,0,0,1,1.326.272,3.363,3.363,0,0,1,1.065.74,3.441,3.441,0,0,1,.708,1.086,3.468,3.468,0,0,1,0,2.614Z" transform="translate(-923.333 -469.518)"/><path class="a" d="M1113.228,475.379a.492.492,0,0,0-.24-.213,1.121,1.121,0,0,0-.468-.08h-2.736a.916.916,0,0,0-.5.117.856.856,0,0,0-.3.458l-2.949,8.571-3.013-8.571a1.037,1.037,0,0,0-.255-.41.6.6,0,0,0-.437-.165h-2.63q-.565,0-.729.3a.831.831,0,0,0,.005.729l5.079,12.447-1.672,4.344a.42.42,0,0,0-.059.1.487.487,0,0,0-.037.213.771.771,0,0,0,.176.548.891.891,0,0,0,.655.186h2.46a.667.667,0,0,0,.468-.176.927.927,0,0,0,.266-.463l-.032.053q.149-.4.437-1.15t.676-1.73q.389-.985.857-2.161t.974-2.454q.506-1.278,1.038-2.6t1.049-2.609l1-2.47q.479-1.187.884-2.188a1.322,1.322,0,0,0,.085-.325A.494.494,0,0,0,1113.228,475.379Z" transform="translate(-1041.91 -471.083)"/><path class="a" d="M637.234,468.387l-12.823-8.243a.916.916,0,0,0-1.411.77V477.4a.916.916,0,0,0,1.411.771l12.823-8.243a.916.916,0,0,0,0-1.541Z" transform="translate(-623 -457.722)"/></svg>