<svg xmlns="http://www.w3.org/2000/svg" width="22" height="22" viewBox="0 0 22 22"><defs><style>.a{fill:#fff;}</style></defs><path class="a" d="M19.82,1H4.18A3.184,3.184,0,0,0,1,4.18V19.82A3.184,3.184,0,0,0,4.18,23H19.82A3.184,3.184,0,0,0,23,19.82V4.18A3.184,3.184,0,0,0,19.82,1ZM18,8h3v3H18Zm-2,3H8V3h8ZM6,11H3V8H6ZM3,13H6v3H3Zm5,0h8v8H8Zm10,0h3v3H18Zm3-8.82V6H18V3h1.82A1.181,1.181,0,0,1,21,4.18ZM4.18,3H6V6H3V4.18A1.181,1.181,0,0,1,4.18,3ZM3,19.82V18H6v3H4.18A1.181,1.181,0,0,1,3,19.82ZM19.82,21H18V18h3v1.82A1.181,1.181,0,0,1,19.82,21Z" transform="translate(-1 -1)"/></svg>