<?xml version="1.0" encoding="utf-8"?>
<!-- Generator: Adobe Illustrator 23.0.0, SVG Export Plug-In . SVG Version: 6.00 Build 0)  -->
<svg version="1.1" id="Layer_1" xmlns="http://www.w3.org/2000/svg" xmlns:xlink="http://www.w3.org/1999/xlink" x="0px" y="0px"
	 viewBox="0 0 50 50" style="enable-background:new 0 0 50 50;" xml:space="preserve">
<style type="text/css">
	.st0{fill:#FF0000;}
	.st1{fill:#FFFFFF;}
</style>
<path class="st0" d="M37.3,48.3H12.8c-6.1,0-11-4.9-11-11V12.8c0-6.1,4.9-11,11-11h24.5c6.1,0,11,4.9,11,11v24.5
	C48.3,43.3,43.3,48.3,37.3,48.3z"/>
<g transform="translate(-623 -440.118)">
	<path class="st1" d="M658,464l-18.6-12c-0.6-0.4-1.4-0.2-1.8,0.4c-0.1,0.2-0.2,0.5-0.2,0.7v24c0,0.7,0.6,1.3,1.3,1.3
		c0.3,0,0.5-0.1,0.7-0.2l18.6-12c0.6-0.4,0.8-1.2,0.4-1.8C658.3,464.3,658.2,464.1,658,464z"/>
</g>
</svg>
