<?xml version="1.0" standalone="no"?>
<!DOCTYPE svg PUBLIC "-//W3C//DTD SVG 1.1//EN" "http://www.w3.org/Graphics/SVG/1.1/DTD/svg11.dtd" >
<svg xmlns="http://www.w3.org/2000/svg" xmlns:xlink="http://www.w3.org/1999/xlink" version="1.1">
<metadata>
Created by FontForge 20170731 at Fri Jun 19 12:35:56 2015
 By Aleksey,,,
(c) 2015, Copyright by Lineto. All rights reserved.
</metadata>
<defs>
<font id="CircularSpotifyTxT-Med" horiz-adv-x="578" >
  <font-face 
    font-family="Circular Spotify Tx T Med"
    font-weight="500"
    font-stretch="normal"
    units-per-em="1000"
    panose-1="2 11 6 4 2 1 1 1 1 2"
    ascent="750"
    descent="-250"
    x-height="487"
    cap-height="709"
    bbox="-199 -378 4910 1033"
    underline-thickness="50"
    underline-position="-150"
    unicode-range="U+0020-FEFF"
  />
<missing-glyph horiz-adv-x="572" 
 />
    <glyph glyph-name="f_f" unicode="ff" horiz-adv-x="683" 
d="M622 625q-11 0 -24 -3t-23.5 -11.5t-17.5 -23t-7 -36.5v-64h113v-101h-113v-386h-117v386h-203v-386h-117v386h-85v101h85v67q0 41 12.5 73.5t35 55t53.5 34.5t69 12q22 0 38.5 -3.5t22.5 -6.5v-99q-5 2 -15 3.5t-27 1.5q-11 0 -24 -3t-23.5 -11.5t-17.5 -23t-7 -36.5
v-64h203v67q0 41 12.5 73.5t35 55t53.5 34.5t69 12q22 0 38.5 -3.5t22.5 -6.5v-99q-5 2 -15 3.5t-27 1.5z" />
    <glyph glyph-name="f_f_i" unicode="ffi" horiz-adv-x="948" 
d="M743 659q0 32 22 54t53 22q32 0 54 -22t22 -54q0 -31 -22 -53t-54 -22q-31 0 -53 22t-22 53zM622 625q-11 0 -24 -3t-23.5 -11.5t-17.5 -23t-7 -36.5v-64h326v-487h-115v386h-211v-386h-117v386h-203v-386h-117v386h-85v101h85v67q0 41 12.5 73.5t35 55t53.5 34.5t69 12
q22 0 38.5 -3.5t22.5 -6.5v-99q-5 2 -15 3.5t-27 1.5q-12 0 -24.5 -3t-23 -11.5t-17.5 -23t-7 -36.5v-64h203v67q0 41 12.5 73.5t35 55t53.5 34.5t69 12q22 0 38.5 -3.5t22.5 -6.5v-99q-5 2 -15 3.5t-27 1.5z" />
    <glyph glyph-name="f_f_l" unicode="ffl" horiz-adv-x="948" 
d="M622 625q-11 0 -24 -3t-23.5 -11.5t-17.5 -23t-7 -36.5v-64h211v237h115v-724h-115v386h-211v-386h-117v386h-203v-386h-117v386h-85v101h85v67q0 41 12.5 73.5t35 55t53.5 34.5t69 12q22 0 38.5 -3.5t22.5 -6.5v-99q-5 2 -15 3.5t-27 1.5q-11 0 -24 -3t-23.5 -11.5
t-17.5 -23t-7 -36.5v-64h203v67q0 41 12.5 73.5t35 55t53.5 34.5t69 12q22 0 38.5 -3.5t22.5 -6.5v-99q-5 2 -15 3.5t-27 1.5z" />
    <glyph glyph-name="f_i" unicode="fi" horiz-adv-x="626" 
d="M283 729q22 0 38.5 -3.5t22.5 -6.5v-99q-5 2 -15 3.5t-27 1.5q-11 0 -24 -3t-23.5 -11.5t-17.5 -23t-7 -36.5v-64h324v-487h-114v386h-210v-386h-117v386h-85v101h85v67q0 41 12.5 73.5t35 55t53.5 34.5t69 12zM422 659q0 32 21.5 54t53.5 22t54 -22t22 -54
q0 -31 -22 -53t-54 -22t-53.5 22t-21.5 53z" />
    <glyph glyph-name="f_l" unicode="fl" horiz-adv-x="625" 
d="M302 625q-11 0 -24 -3t-23.5 -11.5t-17.5 -23t-7 -36.5v-64h208v237h115v-724h-115v386h-208v-386h-117v386h-85v101h85v67q0 41 12.5 73.5t35 55t53.5 34.5t69 12q22 0 38.5 -3.5t22.5 -6.5v-99q-5 2 -15 3.5t-27 1.5z" />
    <glyph glyph-name="f_y" unicode="fy" horiz-adv-x="894" 
d="M449 -197l117 255l-159 328h-177v-386h-117v386h-85v101h85v67q0 41 12.5 73.5t35 55t53.5 34.5t69 12q22 0 38.5 -3.5t22.5 -6.5v-99q-5 2 -15 3.5t-27 1.5q-12 0 -24.5 -3t-23 -11.5t-17.5 -23t-7 -36.5v-64h259l140 -308l131 308h123l-310 -684h-124z" />
    <glyph glyph-name=".notdef" horiz-adv-x="572" 
 />
    <glyph glyph-name=".null" horiz-adv-x="0" 
 />
    <glyph glyph-name="nonmarkingreturn" horiz-adv-x="242" 
 />
    <glyph glyph-name="space" unicode=" " horiz-adv-x="242" 
 />
    <glyph glyph-name="exclam" unicode="!" horiz-adv-x="264" 
d="M174 210h-84l-29 499h141zM59 66q0 30 21 52t51 22q31 0 52.5 -22t21.5 -52t-21.5 -51.5t-52.5 -21.5q-30 0 -51 21.5t-21 51.5z" />
    <glyph glyph-name="quotedbl" unicode="&#x22;" horiz-adv-x="401" 
d="M42 651q0 30 19 50t50 20q29 0 48.5 -20t19.5 -50q0 -5 -1 -11.5t-2 -10.5l-45 -186h-42l-44 185q-1 4 -2 11t-1 12zM221 651q0 30 19.5 50t49.5 20t49 -20t19 -50q0 -12 -2 -22l-45 -186h-42l-44 185q-1 4 -2.5 11t-1.5 12z" />
    <glyph glyph-name="numbersign" unicode="#" horiz-adv-x="730" 
d="M447 431h-138l-34 -169h137zM396 175h-138l-34 -175h-96l34 175h-127v87h143l35 169h-129v87h144l39 191h96l-39 -191h138l38 191h98l-38 -191h135v-87h-152l-33 -169h135v-87h-152l-34 -175h-98z" />
    <glyph glyph-name="dollar" unicode="$" 
d="M252 -115v118q-54 7 -93.5 27.5t-66.5 50t-41.5 64t-18.5 68.5l106 28q3 -27 14 -52t30.5 -44.5t48.5 -31t68 -11.5q60 0 92 27.5t32 68.5q0 35 -24 59t-68 33l-101 21q-79 16 -125.5 65.5t-46.5 124.5q0 40 15 75t41 62t61.5 44.5t76.5 23.5v119h92v-120q44 -7 76 -24.5
t54.5 -41.5t35.5 -52t19 -55l-104 -31q-3 18 -12 36.5t-25 33.5t-40 24.5t-58 9.5q-52 0 -85 -27.5t-33 -67.5q0 -70 82 -88l99 -20q91 -18 139 -71t48 -125q0 -36 -13 -69.5t-38 -61t-61.5 -46.5t-83.5 -26v-118h-92z" />
    <glyph glyph-name="percent" unicode="%" horiz-adv-x="835" 
d="M133 0l461 709h106l-460 -709h-107zM359 559q0 -35 -13 -64t-35.5 -51t-52.5 -34t-63 -12t-63 12.5t-52 34t-35 51t-13 63.5t13 63t35.5 50.5t52 34t62.5 12.5t63 -12.5t52.5 -34t35.5 -50.5t13 -63zM124 559q0 -33 20.5 -53.5t50.5 -20.5q31 0 51 20.5t20 53.5
q0 32 -20 52t-51 20q-30 0 -50.5 -20t-20.5 -52zM475 151q0 34 13 63t35.5 50.5t52.5 34t63 12.5t62.5 -12.5t52 -34t36 -50.5t13.5 -63q0 -35 -13.5 -64t-36 -51t-52.5 -34t-63 -12t-62.5 12.5t-52 34t-35.5 51t-13 63.5zM709 151q0 32 -20 52.5t-50 20.5t-50.5 -20.5
t-20.5 -52.5q0 -33 20.5 -53.5t50.5 -20.5t50 21t20 53z" />
    <glyph glyph-name="ampersand" unicode="&#x26;" horiz-adv-x="694" 
d="M450 84q-42 -45 -89 -71t-105 -26q-51 0 -90.5 16t-66.5 42t-40.5 59.5t-13.5 68.5q0 34 9 61t25 50.5t38.5 43.5t50.5 41l7 5l-12 13q-13 13 -27 30t-26 36.5t-20 42t-8 47.5q0 44 16.5 77.5t43.5 56.5t61 35t69 12q42 0 77.5 -12.5t61.5 -35.5t40.5 -55.5t14.5 -72.5
q0 -26 -8.5 -49t-22.5 -43t-32 -37t-37 -31l-31 -23l118 -123l169 182v-150l-97 -107l160 -167h-155zM258 92q35 0 63 19t55 48l1 1l-131 139l-24 -18q-26 -19 -42 -42t-16 -58q0 -17 6.5 -32.5t18.5 -28.5t29.5 -20.5t39.5 -7.5zM196 550q0 -26 14 -47.5t33 -41.5l20 -22
l41 30q28 21 38 41t10 40q0 32 -22 54t-57 22q-14 0 -27.5 -4.5t-24.5 -14t-18 -24t-7 -33.5z" />
    <glyph glyph-name="quotesingle" unicode="'" horiz-adv-x="221" 
d="M42 651q0 30 19 50t50 20q29 0 48.5 -20t19.5 -50q0 -5 -1 -11.5t-2 -10.5l-45 -186h-42l-44 185q-1 4 -2 11t-1 12z" />
    <glyph glyph-name="parenleft" unicode="(" horiz-adv-x="325" 
d="M43 320q0 84 15.5 155t43 131t64 110t78.5 92l68 -62q-78 -86 -124.5 -189t-46.5 -237t46.5 -238t124.5 -189l-68 -61q-42 42 -78.5 92t-64 110t-43 131t-15.5 155z" />
    <glyph glyph-name="parenright" unicode=")" horiz-adv-x="325" 
d="M282 320q0 -84 -15.5 -155t-42.5 -131t-64 -110t-79 -92l-68 61q79 85 125 189t46 238t-46 237t-125 189l68 62q42 -42 79 -92t64 -110t42.5 -131t15.5 -155z" />
    <glyph glyph-name="asterisk" unicode="*" horiz-adv-x="459" 
d="M276 579l119 40l29 -86l-121 -40l78 -102l-73 -54l-80 105l-75 -104l-74 54l76 101l-121 40l29 86l119 -41v131h94v-130z" />
    <glyph glyph-name="plus" unicode="+" horiz-adv-x="552" 
d="M325 397h189v-96h-189v-197h-99v197h-188v96h188v195h99v-195z" />
    <glyph glyph-name="comma" unicode="," horiz-adv-x="276" 
d="M51 73q0 32 24 54t59 22q40 0 65.5 -29t25.5 -77q0 -53 -16 -90.5t-40 -62.5t-53 -38.5t-54 -16.5v59q17 4 33 14t28.5 24.5t20 32t7.5 37.5q-3 -2 -8.5 -3.5t-15.5 -1.5q-33 0 -54.5 20.5t-21.5 55.5z" />
    <glyph glyph-name="hyphen" unicode="-" horiz-adv-x="410" 
d="M64 241v103h282v-103h-282z" />
    <glyph glyph-name="period" unicode="." horiz-adv-x="264" 
d="M51 75q0 34 23.5 58t57.5 24t58 -24t24 -58t-24 -57.5t-58 -23.5t-57.5 23.5t-23.5 57.5z" />
    <glyph glyph-name="slash" unicode="/" horiz-adv-x="503" 
d="M133 0h-107l345 709h107z" />
    <glyph glyph-name="zero" unicode="0" horiz-adv-x="669" 
d="M50 354q0 72 13.5 137t49.5 118q35 52 89 83.5t132 31.5t132.5 -31.5t89.5 -83.5q35 -53 49 -118t14 -137t-14 -136.5t-49 -117.5t-89.5 -84t-132.5 -31t-132 31t-89 84t-49 117.5t-14 136.5zM168 354q0 -74 13 -128t42 -86q20 -23 46.5 -36.5t64.5 -13.5t64.5 13.5
t46.5 36.5q29 33 42 86.5t13 127.5t-13 127.5t-42 86.5q-20 23 -46.5 36.5t-64.5 13.5t-64.5 -13.5t-46.5 -36.5q-29 -32 -42 -86t-13 -128z" />
    <glyph glyph-name="one" unicode="1" horiz-adv-x="383" 
d="M194 0v493h-171v83q37 1 68.5 11.5t55.5 28t39 41.5t21 52h105v-709h-118z" />
    <glyph glyph-name="two" unicode="2" horiz-adv-x="598" 
d="M54 458q-3 15 -3 35q0 46 16.5 87.5t48.5 73.5t78.5 51t105.5 19q57 0 102.5 -17.5t76.5 -47.5t47.5 -70t16.5 -85q0 -70 -36 -125.5t-98 -93.5l-139 -88q-28 -17 -49 -38.5t-29 -50.5h355v-108h-503q1 45 10 84.5t29 75t51.5 67t77.5 60.5l117 75q48 30 70.5 65t22.5 75
q0 23 -7.5 44t-23.5 37.5t-39.5 26t-54.5 9.5q-33 0 -57.5 -10.5t-40 -29.5t-23.5 -44t-8 -53q0 -8 1 -17l2 -18z" />
    <glyph glyph-name="three" unicode="3" horiz-adv-x="616" 
d="M190 419l202 183h-330v107h486v-103l-197 -177q39 -1 77.5 -15t69 -41t49.5 -67t19 -93q0 -45 -17.5 -86.5t-50.5 -73t-81.5 -50t-111.5 -18.5q-61 0 -109 18.5t-82 49t-53 71t-22 84.5l117 25q1 -33 13 -60t32 -45.5t46.5 -29t56.5 -10.5q34 0 60.5 10t44.5 27t27 39.5
t9 48.5q0 33 -12 56.5t-31.5 39t-43.5 22.5t-49 7q-33 0 -62 -13z" />
    <glyph glyph-name="four" unicode="4" horiz-adv-x="637" 
d="M29 290l301 419h159v-445h119v-107h-119v-157h-117v157h-343v133zM372 591l-235 -327h235v327z" />
    <glyph glyph-name="five" unicode="5" horiz-adv-x="600" 
d="M145 226q5 -60 45.5 -99t104.5 -39q30 0 56 9.5t45.5 27t30.5 42.5t11 56q0 34 -12 60t-31.5 43.5t-46 26t-54.5 8.5q-38 0 -70 -13.5t-53 -36.5l-115 43l90 355h380v-107h-300l-48 -190q23 25 61.5 37.5t77.5 12.5q52 0 96.5 -16t76.5 -46t50 -74t18 -99
q0 -50 -18.5 -94t-52.5 -77t-83 -52t-109 -19q-57 0 -104 17.5t-81.5 46.5t-54.5 67t-24 80z" />
    <glyph glyph-name="six" unicode="6" horiz-adv-x="633" 
d="M537 589q-21 11 -53.5 20t-70.5 9q-53 0 -96.5 -17.5t-75 -49t-50.5 -75.5t-23 -96q21 34 67.5 60.5t115.5 26.5q53 0 97 -16.5t76 -47t50 -75t18 -100.5t-21 -101t-57.5 -76.5t-84.5 -48.5t-102 -17q-53 0 -103.5 19t-89.5 59t-62.5 101.5t-23.5 146.5q0 97 28 174
t78 130t118 81t148 28q49 0 88.5 -10.5t62.5 -27.5zM183 227q0 -33 12 -59t32 -44t46 -27.5t54 -9.5q29 0 55.5 9.5t46.5 27.5t31.5 44t11.5 59t-11.5 59t-31.5 44t-46.5 27.5t-55.5 9.5t-55 -9.5t-46 -27.5t-31.5 -44t-11.5 -59z" />
    <glyph glyph-name="seven" unicode="7" horiz-adv-x="560" 
d="M546 600q-16 -13 -41.5 -36.5t-55.5 -59.5t-61.5 -84.5t-59 -111t-48.5 -139.5t-29 -169h-124q6 75 21.5 141t36.5 122.5t46 103.5t50 85q59 88 130 150h-388v107h523v-109z" />
    <glyph glyph-name="eight" unicode="8" horiz-adv-x="617" 
d="M308 -15q-60 0 -108 15.5t-81.5 43t-51.5 64.5t-18 80q0 63 37.5 109t93.5 66q-49 18 -81 62.5t-32 99.5q0 44 18 80.5t50.5 63t76.5 41t96 14.5t96.5 -14.5t77 -41t51 -63t18.5 -80.5q0 -54 -32 -99t-83 -63q28 -9 52 -26t42 -39.5t28 -50.5t10 -59q0 -43 -17.5 -80
t-51 -64.5t-82 -43t-109.5 -15.5zM308 409q55 2 89 32t34 78q0 22 -8.5 41t-24.5 33.5t-39 23t-51 8.5q-57 0 -90 -31t-33 -75q0 -48 34.5 -78t88.5 -32zM308 86q68 0 104 33.5t36 79.5q0 24 -9 44.5t-27 36.5t-44 25t-60 9q-33 0 -59 -9t-44 -25t-27 -36.5t-9 -44.5
q0 -46 35.5 -79.5t103.5 -33.5z" />
    <glyph glyph-name="nine" unicode="9" horiz-adv-x="631" 
d="M447 482q0 31 -12 56.5t-32 43.5t-46 28t-54 10t-54 -9.5t-45.5 -27.5t-31.5 -43.5t-12 -57.5q0 -33 11.5 -59.5t31 -44.5t45.5 -27.5t55 -9.5q28 0 54 10t46 28t32 44t12 59zM95 123q23 -13 58 -22.5t70 -9.5q60 0 104 17.5t73.5 49t44.5 74.5t17 94
q-20 -35 -64.5 -60.5t-112.5 -25.5q-47 0 -91 16t-78 46.5t-54.5 75t-20.5 101.5q0 54 21 99.5t57 77.5t83.5 50t101.5 18t104 -19.5t89 -60t62 -102.5t23 -146q0 -97 -22.5 -173t-67.5 -129t-112 -81t-156 -28q-21 0 -44.5 3t-45.5 8.5t-41.5 12.5t-32.5 16z" />
    <glyph glyph-name="colon" unicode=":" horiz-adv-x="289" 
d="M64 74q0 34 23.5 57.5t57.5 23.5q33 0 57 -23.5t24 -57.5q0 -33 -24 -56.5t-57 -23.5q-34 0 -57.5 23.5t-23.5 56.5zM63 412q0 34 23.5 57.5t57.5 23.5q33 0 57 -23.5t24 -57.5q0 -33 -24 -56.5t-57 -23.5q-34 0 -57.5 23.5t-23.5 56.5z" />
    <glyph glyph-name="semicolon" unicode=";" horiz-adv-x="296" 
d="M66 69q0 31 23 52t56 21q38 0 62.5 -28t24.5 -73q0 -50 -15.5 -86t-38 -59.5t-50 -36.5t-51.5 -16v56q16 4 31 13.5t27 23.5t19 30.5t7 35.5q-2 -2 -7.5 -3.5t-14.5 -1.5q-32 0 -52.5 19.5t-20.5 52.5zM65 412q0 34 23.5 57.5t57.5 23.5q33 0 57 -23.5t24 -57.5
q0 -33 -24 -56.5t-57 -23.5q-34 0 -57.5 23.5t-23.5 56.5z" />
    <glyph glyph-name="less" unicode="&#x3c;" horiz-adv-x="526" 
d="M456 202v-112l-422 211v94l422 213v-112l-301 -146z" />
    <glyph glyph-name="equal" unicode="=" horiz-adv-x="605" 
d="M65 401v94h475v-94h-475zM65 203v96h475v-96h-475z" />
    <glyph glyph-name="greater" unicode="&#x3e;" horiz-adv-x="528" 
d="M373 348l-303 148v112l423 -213v-93l-423 -212v111z" />
    <glyph glyph-name="question" unicode="?" horiz-adv-x="520" 
d="M195 210q-1 10 -1.5 18.5t-0.5 19.5q0 45 18.5 82t62.5 69l46 33q25 18 36 39.5t11 47.5q0 19 -6.5 37.5t-20 32.5t-34 22.5t-47.5 8.5q-28 0 -49 -10t-35.5 -26t-21.5 -36.5t-7 -41.5q0 -11 1.5 -24t4.5 -21l-113 8q-6 21 -6 46q0 37 14 74.5t42.5 67.5t70.5 48.5
t99 18.5q55 0 98 -17t71.5 -45t43.5 -64t15 -74q0 -60 -28 -102.5t-72 -73.5l-43 -30q-50 -35 -50 -95v-5t1 -8h-100zM173 66q0 30 21 52t52 22q30 0 51.5 -22t21.5 -52t-21.5 -51.5t-51.5 -21.5q-31 0 -52 21.5t-21 51.5z" />
    <glyph glyph-name="at" unicode="@" horiz-adv-x="830" 
d="M599 138q-38 0 -64 16.5t-34 45.5q-20 -32 -52 -48t-65 -16t-61 12.5t-48 35t-31.5 54.5t-11.5 70q0 49 16 91t43 73t63 48t76 17q30 0 60 -15t41 -46l9 48h88l-53 -248q-1 -4 -2 -10t-1 -11q0 -15 7.5 -26.5t26.5 -11.5q20 0 38.5 14t33 38.5t23 57t8.5 69.5
q0 54 -19.5 99t-55 77.5t-85.5 51t-110 18.5q-65 0 -119.5 -22.5t-95 -63t-63 -97.5t-22.5 -127q0 -64 21 -118.5t60.5 -94.5t97 -62.5t130.5 -22.5q51 0 100 15.5t93 48.5l45 -61q-21 -20 -49.5 -35.5t-60 -26t-64.5 -16.5t-64 -6q-88 0 -161.5 27.5t-127 77t-83 119.5
t-29.5 155q0 87 31 159.5t84 124t124.5 80t151.5 28.5q76 0 141.5 -25t113.5 -68.5t75.5 -103.5t27.5 -130q0 -57 -16 -104t-43.5 -81.5t-63 -54t-74.5 -19.5zM509 368q0 40 -19 62.5t-56 22.5q-26 0 -46 -12.5t-34 -32t-21.5 -44.5t-7.5 -49q0 -41 18 -68.5t59 -27.5
q23 0 42 11t33.5 31t22.5 47t9 60z" />
    <glyph glyph-name="A" unicode="A" horiz-adv-x="717" 
d="M506 178h-300l-66 -178h-127l276 709h139l276 -709h-131zM248 289h216l-108 290z" />
    <glyph glyph-name="B" unicode="B" horiz-adv-x="619" 
d="M333 709q51 0 91 -14t68 -39.5t42.5 -60.5t14.5 -77q0 -57 -29.5 -96.5t-75.5 -56.5q57 -15 92 -60.5t35 -108.5q0 -43 -16 -79t-44.5 -62t-69.5 -40.5t-90 -14.5h-262v709h244zM317 409q53 0 82.5 27t29.5 72t-30 72t-85 27h-106v-198h109zM330 102q54 0 86.5 27
t32.5 75q0 46 -29.5 75t-85.5 29h-126v-206h122z" />
    <glyph glyph-name="C" unicode="C" horiz-adv-x="751" 
d="M402 -15q-72 0 -136.5 25t-114 72.5t-78.5 116t-29 155.5t30 155.5t79.5 116t114 73t133.5 25.5q67 0 121 -18.5t94 -50t66 -73.5t38 -88l-113 -38q-8 32 -24.5 60.5t-42 49.5t-60 33t-79.5 12q-44 0 -86 -16t-75 -48t-53 -80.5t-20 -112.5q0 -62 19.5 -109.5t52.5 -79.5
t75.5 -48.5t87.5 -16.5t80 13t61 35t43.5 50t26.5 58l110 -36q-12 -45 -38 -87.5t-66.5 -75t-94.5 -52.5t-122 -20z" />
    <glyph glyph-name="D" unicode="D" horiz-adv-x="731" 
d="M335 110q46 0 87 15t71.5 45t48.5 75.5t18 107.5t-17.5 108.5t-48 77t-71.5 45.5t-87 15h-127v-489h126zM89 0v709h251q72 0 135 -23.5t109.5 -69t73.5 -112t27 -151.5t-27 -151t-74 -111t-110 -68t-135 -23h-250z" />
    <glyph glyph-name="E" unicode="E" horiz-adv-x="580" 
d="M89 0v709h438v-112h-318v-188h288v-109h-288v-188h318v-112h-438z" />
    <glyph glyph-name="F" unicode="F" horiz-adv-x="571" 
d="M89 0v709h441v-113h-321v-199h288v-111h-288v-286h-120z" />
    <glyph glyph-name="G" unicode="G" horiz-adv-x="776" 
d="M619 0l-9 90q-12 -20 -31.5 -38.5t-46.5 -33.5t-62 -24t-77 -9q-69 0 -132.5 25t-111.5 72.5t-76.5 116t-28.5 156.5q0 87 30 156t79.5 116t114 72t133.5 25q64 0 117 -17.5t93.5 -47t68 -68.5t41.5 -83l-113 -43q-9 30 -26.5 57t-43.5 47t-60.5 32t-76.5 12
q-43 0 -85 -15.5t-75.5 -47.5t-54 -80.5t-20.5 -114.5q0 -65 19.5 -113.5t52 -81t74.5 -49t88 -16.5q54 0 91.5 16.5t61.5 40.5t36 51.5t14 50.5h-234v105h347v-359h-97z" />
    <glyph glyph-name="H" unicode="H" horiz-adv-x="752" 
d="M542 0v303h-333v-303h-120v709h120v-293h333v293h121v-709h-121z" />
    <glyph glyph-name="I" unicode="I" horiz-adv-x="300" 
d="M89 0v709h122v-709h-122z" />
    <glyph glyph-name="J" unicode="J" horiz-adv-x="556" 
d="M24 260l117 24v-66q0 -63 31 -91.5t78 -28.5q48 0 76 30.5t28 84.5v496h120v-493q0 -47 -16 -89t-45 -73.5t-70 -50t-92 -18.5q-52 0 -94 16.5t-71.5 46.5t-45.5 72t-16 94v46z" />
    <glyph glyph-name="K" unicode="K" horiz-adv-x="677" 
d="M303 307l-94 -103v-204h-120v709h120v-340l305 340h158l-287 -313l290 -396h-151z" />
    <glyph glyph-name="L" unicode="L" horiz-adv-x="551" 
d="M89 0v709h120v-595h325v-114h-445z" />
    <glyph glyph-name="M" unicode="M" horiz-adv-x="958" 
d="M750 0v522l-221 -522h-104l-219 520v-520h-117v709h160l230 -541l227 541h163v-709h-119z" />
    <glyph glyph-name="N" unicode="N" horiz-adv-x="773" 
d="M559 0l-350 537v-537h-120v709h153l322 -503v503h120v-709h-125z" />
    <glyph glyph-name="O" unicode="O" horiz-adv-x="809" 
d="M167 355q0 -64 20.5 -112t53.5 -80t75.5 -48t87.5 -16t88 16t76 48t53.5 80t20.5 112t-20.5 112t-53.5 80t-76 48t-88 16t-87.5 -16t-75.5 -48t-53.5 -80t-20.5 -112zM44 355q0 87 30 155.5t80 116t115 72.5t135 25t135 -25t115 -72.5t80.5 -116t30.5 -155.5t-30.5 -156
t-80.5 -116.5t-115 -72.5t-135 -25t-135 25t-115 72.5t-80 116.5t-30 156z" />
    <glyph glyph-name="P" unicode="P" horiz-adv-x="605" 
d="M334 383q57 0 89.5 29t32.5 80t-32.5 81t-89.5 30h-125v-220h125zM209 277v-277h-120v709h263q51 0 92.5 -16.5t71.5 -45t46 -68.5t16 -86q0 -47 -16 -86.5t-46 -68.5t-71.5 -45t-92.5 -16h-143z" />
    <glyph glyph-name="Q" unicode="Q" horiz-adv-x="809" 
d="M44 355q0 87 30 155.5t80 116t115 72.5t135 25t135 -25t115 -72.5t80.5 -116t30.5 -155.5q0 -79 -25 -142.5t-67 -110.5l84 -94l-81 -69l-87 95q-42 -24 -89 -36.5t-96 -12.5q-70 0 -135 25t-115 72.5t-80 116.5t-30 156zM167 355q0 -64 20.5 -112t53.5 -80t75.5 -48
t87.5 -16q27 0 54 5.5t52 17.5l-117 130l82 70l118 -131q23 31 36 71.5t13 92.5q0 64 -20.5 112t-53.5 80t-76 48t-88 16t-87.5 -16t-75.5 -48t-53.5 -80t-20.5 -112z" />
    <glyph glyph-name="R" unicode="R" horiz-adv-x="630" 
d="M298 280h-88v-280h-121v709h272q51 0 92.5 -16.5t70 -46t44 -68.5t15.5 -84q0 -76 -42.5 -130t-117.5 -72l160 -292h-136zM339 386q56 0 89 29.5t33 78.5q0 50 -33 79.5t-89 29.5h-129v-217h129z" />
    <glyph glyph-name="S" unicode="S" horiz-adv-x="602" 
d="M443 509q-3 16 -11.5 35.5t-25 35.5t-41.5 27t-61 11q-27 0 -49.5 -8.5t-38.5 -22.5t-25 -32.5t-9 -38.5q0 -34 20.5 -58t62.5 -33l102 -21q94 -19 143 -74t49 -130q0 -41 -16.5 -80t-48.5 -69t-78.5 -48t-107.5 -18q-68 0 -117.5 19.5t-83 51t-51.5 70.5t-22 77l112 32
q3 -28 14 -53.5t31.5 -45t49.5 -31.5t67 -12q64 0 96.5 28t32.5 70q0 35 -24.5 60.5t-70.5 35.5l-100 21q-81 17 -130.5 68t-49.5 131q0 45 19 84.5t52 69t76.5 46.5t93.5 17q63 0 107 -17t73.5 -43.5t45.5 -58.5t22 -62z" />
    <glyph glyph-name="T" unicode="T" horiz-adv-x="615" 
d="M367 596v-596h-120v596h-230v113h581v-113h-231z" />
    <glyph glyph-name="U" unicode="U" horiz-adv-x="693" 
d="M346 -15q-56 0 -104 17t-83.5 50t-56 82t-20.5 113v462h119v-455q0 -75 38.5 -115t106.5 -40q69 0 107 40t38 115v455h120v-462q0 -64 -20.5 -113t-56 -82t-84 -50t-104.5 -17z" />
    <glyph glyph-name="V" unicode="V" horiz-adv-x="682" 
d="M542 709h127l-268 -709h-122l-264 709h130l198 -552z" />
    <glyph glyph-name="W" unicode="W" horiz-adv-x="1032" 
d="M887 709h124l-199 -709h-124l-172 536l-172 -536h-123l-201 709h126l142 -518l166 518h125l169 -522z" />
    <glyph glyph-name="X" unicode="X" horiz-adv-x="639" 
d="M392 354l235 -354h-144l-165 259l-167 -259h-141l237 355l-235 354h144l165 -260l166 260h141z" />
    <glyph glyph-name="Y" unicode="Y" horiz-adv-x="651" 
d="M17 709h142l170 -297l171 297h135l-250 -409v-300h-120v300z" />
    <glyph glyph-name="Z" unicode="Z" horiz-adv-x="639" 
d="M42 0v118l393 478h-382v113h537v-114l-398 -481h403v-114h-553z" />
    <glyph glyph-name="bracketleft" unicode="[" horiz-adv-x="311" 
d="M70 -157v956h214v-90h-116v-775h116v-91h-214z" />
    <glyph glyph-name="backslash" unicode="\" horiz-adv-x="503" 
d="M25 709h107l345 -709h-107z" />
    <glyph glyph-name="bracketright" unicode="]" horiz-adv-x="311" 
d="M27 -157v91h116v775h-116v90h214v-956h-214z" />
    <glyph glyph-name="asciicircum" unicode="^" horiz-adv-x="558" 
d="M409 352l-129 244l-130 -244h-114l196 358h94l196 -358h-113z" />
    <glyph glyph-name="underscore" unicode="_" horiz-adv-x="521" 
d="M5 -96v96h511v-96h-511z" />
    <glyph glyph-name="grave" unicode="`" horiz-adv-x="285" 
d="M29 696h139l88 -148h-95z" />
    <glyph glyph-name="a" unicode="a" horiz-adv-x="531" 
d="M41 132q0 33 11.5 58t31 43.5t46.5 29.5t58 16l125 19q21 3 28.5 12.5t7.5 22.5q0 31 -22 52.5t-70 21.5q-46 0 -71 -25.5t-29 -62.5l-106 24q3 31 19 60t42 51t62.5 35t81.5 13q56 0 95.5 -15t64 -40t36 -58t11.5 -69v-242q0 -33 2.5 -53.5t3.5 -24.5h-108q-1 2 -3 17.5
t-2 44.5q-17 -28 -54 -52.5t-96 -24.5q-38 0 -68.5 12t-52 32.5t-33 47t-11.5 55.5zM228 76q24 0 46 6.5t38.5 21t26.5 38.5t10 60v22l-127 -19q-27 -5 -46 -20.5t-19 -45.5q0 -25 18 -44t53 -19z" />
    <glyph glyph-name="b" unicode="b" horiz-adv-x="606" 
d="M72 0v724h114v-297q17 29 56.5 51t96.5 22q55 0 97 -19.5t70.5 -54t43 -80.5t14.5 -100q0 -55 -16 -102.5t-45.5 -82t-72 -54t-95.5 -19.5q-52 0 -90.5 21t-59.5 56v-65h-113zM447 245q0 73 -36.5 112.5t-94.5 39.5q-56 0 -93.5 -39.5t-37.5 -112.5q0 -36 10 -64.5
t27.5 -48.5t41.5 -30.5t52 -10.5q57 0 94 41t37 113z" />
    <glyph glyph-name="c" unicode="c" horiz-adv-x="549" 
d="M291 395q-27 0 -51 -10t-42.5 -29t-29.5 -47t-11 -65t11 -65.5t29.5 -48t43.5 -29.5t52 -10q28 0 49.5 9t36 22.5t23.5 29t13 29.5l102 -37q-9 -29 -27 -57t-45.5 -51t-65.5 -37t-86 -14q-54 0 -100 19.5t-79.5 54.5t-53 82t-19.5 103t19 103.5t53 82t79 53.5t98 19
q49 0 87 -14t66 -36.5t45 -51.5t25 -58l-104 -38q-4 16 -12.5 32.5t-23 29.5t-34.5 21t-48 8z" />
    <glyph glyph-name="d" unicode="d" horiz-adv-x="601" 
d="M157 245q0 -70 35.5 -112.5t95.5 -42.5q28 0 52 11.5t41 32t26.5 49t9.5 63.5q0 70 -35.5 110.5t-92.5 40.5t-94.5 -41t-37.5 -111zM529 89q0 -33 2 -58t3 -31h-111q-2 8 -3.5 28t-1.5 35q-17 -31 -54 -53t-89 -22q-53 0 -96 19.5t-73.5 54t-47.5 81.5t-17 102
q0 52 17 98.5t47.5 81.5t73.5 55t94 20q32 0 56 -6.5t41.5 -17t28.5 -22.5t17 -24v294h113v-635z" />
    <glyph glyph-name="e" unicode="e" horiz-adv-x="557" 
d="M399 297q-1 21 -8.5 40.5t-22.5 34.5t-37 24t-52 9q-27 0 -48.5 -9.5t-36.5 -25t-24 -35t-10 -38.5h239zM510 139q-10 -32 -29 -60t-47 -49t-64 -33t-80 -12q-50 0 -95 17.5t-79 51t-54.5 82t-20.5 110.5q0 58 19.5 105t52.5 80.5t76 52t89 18.5q56 0 100.5 -18t75 -51
t46.5 -79.5t16 -104.5q0 -14 -1 -24.5t-2 -12.5h-356q1 -28 12 -51t29 -40t41.5 -26.5t50.5 -9.5q53 0 81.5 24.5t40.5 60.5z" />
    <glyph glyph-name="f" unicode="f" horiz-adv-x="363" 
d="M302 625q-12 0 -24.5 -3t-23 -11.5t-17.5 -23t-7 -36.5v-64h113v-101h-113v-386h-117v386h-85v101h85v67q0 41 12.5 73.5t35 55t53.5 34.5t69 12q22 0 38.5 -3.5t22.5 -6.5v-99q-5 2 -15 3.5t-27 1.5z" />
    <glyph glyph-name="g" unicode="g" horiz-adv-x="595" 
d="M148 1q6 -45 38.5 -75t83.5 -30q138 0 138 146v51q-16 -29 -51.5 -50t-89.5 -21q-49 0 -90 18t-71 49.5t-47 75t-17 94.5q0 49 16.5 92t46 75t71 51t91.5 19q57 0 92.5 -20.5t51.5 -50.5v62h112v-441q0 -49 -13.5 -94t-43 -80t-77 -56t-116.5 -21q-48 0 -88.5 14t-71 38
t-49 56.5t-23.5 69.5zM286 121q56 0 90.5 37.5t34.5 100.5q0 31 -9.5 56.5t-26 43.5t-39.5 27.5t-50 9.5q-56 0 -91.5 -37t-35.5 -100q0 -64 35 -101t92 -37z" />
    <glyph glyph-name="h" unicode="h" horiz-adv-x="572" 
d="M188 0h-116v724h116v-284q25 32 63 46.5t76 14.5q45 0 78.5 -15t55.5 -41.5t33 -61.5t11 -75v-308h-116v288q0 45 -22.5 76.5t-77.5 31.5q-48 0 -73.5 -31.5t-27.5 -78.5v-286z" />
    <glyph glyph-name="i" unicode="i" horiz-adv-x="259" 
d="M72 0v487h115v-487h-115zM54 658q0 32 22 54t53 22q32 0 54 -22t22 -54t-22 -53.5t-54 -21.5q-31 0 -53 21.5t-22 53.5z" />
    <glyph glyph-name="j" unicode="j" horiz-adv-x="260" 
d="M72 487h116v-536q0 -34 -10 -62.5t-29 -49.5t-45.5 -32.5t-60.5 -11.5q-29 0 -45.5 3.5t-20.5 5.5v96q4 -1 14.5 -2t20.5 -1q33 0 46.5 16.5t13.5 46.5v527zM54 659q0 32 22 54t53 22q32 0 54 -22t22 -54q0 -31 -22 -53t-54 -22q-31 0 -53 22t-22 53z" />
    <glyph glyph-name="k" unicode="k" horiz-adv-x="544" 
d="M328 281l204 -281h-142l-143 199l-60 -63v-136h-115v724h115v-434l187 197h154z" />
    <glyph glyph-name="l" unicode="l" horiz-adv-x="260" 
d="M72 0v724h116v-724h-116z" />
    <glyph glyph-name="m" unicode="m" horiz-adv-x="870" 
d="M72 0v487h111v-62q21 37 62 56.5t82 19.5q48 0 87 -21.5t59 -64.5q29 48 69.5 67t88.5 19q33 0 64 -11t55 -33.5t38.5 -57.5t14.5 -83v-316h-112v297q0 43 -22.5 71.5t-71.5 28.5q-46 0 -73.5 -31.5t-27.5 -76.5v-289h-114v297q0 42 -22 71t-72 29q-47 0 -74 -30.5
t-27 -77.5v-289h-115z" />
    <glyph glyph-name="n" unicode="n" horiz-adv-x="572" 
d="M188 0h-116v487h113v-65q24 42 63.5 60.5t80.5 18.5q45 0 78 -15t54.5 -41.5t32.5 -61.5t11 -75v-308h-116v288q0 45 -22.5 76.5t-77.5 31.5q-50 0 -75.5 -33.5t-25.5 -81.5v-281z" />
    <glyph glyph-name="o" unicode="o" horiz-adv-x="587" 
d="M293 89q27 0 51.5 10t43.5 29.5t30 48.5t11 67t-11 66.5t-30 48t-43.5 29t-51.5 9.5t-51.5 -9.5t-43 -29t-30 -48t-11.5 -66.5t11.5 -67t30 -48.5t43 -29.5t51.5 -10zM293 502q55 0 101 -19.5t80 -54t53 -81.5t19 -103t-19 -103.5t-53 -82t-80 -54t-101 -19.5
q-54 0 -100.5 19.5t-80 54t-52.5 82t-19 103.5t19 103t52.5 81.5t80 54t100.5 19.5z" />
    <glyph glyph-name="p" unicode="p" horiz-adv-x="606" 
d="M72 -190v677h112v-66q18 32 58 54.5t97 22.5q54 0 96 -19.5t70.5 -53.5t43.5 -80.5t15 -100.5q0 -55 -16 -101.5t-46 -81t-72.5 -54t-94.5 -19.5q-53 0 -91 19.5t-57 47.5v-245h-115zM448 244q0 69 -36 110t-95 41q-29 0 -53 -11t-41 -30.5t-27 -47.5t-10 -62
q0 -70 37 -111.5t94 -41.5q58 0 94.5 41.5t36.5 111.5z" />
    <glyph glyph-name="q" unicode="q" horiz-adv-x="605" 
d="M419 -190v248q-18 -32 -55 -51t-88 -19q-52 0 -95 20t-74 54.5t-48 81.5t-17 101q0 52 16 98.5t46 81t73 54.5t96 20q32 0 57 -7t43 -18.5t30.5 -25t18.5 -26.5v65h111v-677h-114zM159 245q0 -35 9.5 -63.5t27 -49t41 -31.5t52.5 -11q28 0 52.5 11t41.5 31.5t27 49
t10 63.5q0 70 -37 110.5t-94 40.5q-58 0 -94 -40.5t-36 -110.5z" />
    <glyph glyph-name="r" unicode="r" horiz-adv-x="377" 
d="M357 372q-20 3 -38 3q-68 0 -99.5 -37t-31.5 -106v-232h-116v487h113v-78q17 40 55 62t86 22q11 0 19 -1t12 -2v-118z" />
    <glyph glyph-name="s" unicode="s" horiz-adv-x="465" 
d="M139 160q3 -33 27.5 -58t71.5 -25q36 0 54.5 16.5t18.5 39.5q0 20 -14 34t-43 20l-72 16q-65 14 -98 52.5t-33 89.5q0 32 14 60.5t38 50t56.5 34t70.5 12.5q51 0 85.5 -14.5t56.5 -35.5t32.5 -44.5t13.5 -41.5l-98 -28q-2 10 -7 23t-15.5 24t-27 18.5t-40.5 7.5
q-31 0 -50.5 -16.5t-19.5 -39.5q0 -20 13 -33t36 -18l74 -15q69 -15 104.5 -54.5t35.5 -93.5q0 -28 -11.5 -55.5t-34 -50t-57.5 -36.5t-81 -14q-53 0 -90 15t-61 37.5t-36 48t-14 46.5z" />
    <glyph glyph-name="t" unicode="t" horiz-adv-x="365" 
d="M225 487h101v-103h-101v-226q0 -32 15 -46.5t47 -14.5q12 0 24 1.5t16 2.5v-96q-5 -2 -22 -6.5t-49 -4.5q-68 0 -107 38t-39 107v245h-90v103h25q39 0 57 22t18 54v73h105v-149z" />
    <glyph glyph-name="u" unicode="u" horiz-adv-x="571" 
d="M389 54q-18 -33 -56.5 -50.5t-81.5 -17.5q-44 0 -78 15t-57.5 41.5t-36 61.5t-12.5 76v307h116v-286q0 -23 5.5 -43t17.5 -35t30.5 -24t44.5 -9q51 0 76.5 30.5t25.5 78.5v288h116v-398q0 -30 1.5 -52.5t3.5 -36.5h-111q-2 8 -3 23.5t-1 30.5z" />
    <glyph glyph-name="v" unicode="v" horiz-adv-x="541" 
d="M330 0h-116l-198 487h128l129 -348l126 348h122z" />
    <glyph glyph-name="w" unicode="w" horiz-adv-x="825" 
d="M476 487l115 -337l97 337h118l-156 -487h-116l-121 350l-118 -350h-119l-158 487h124l99 -337l115 337h120z" />
    <glyph glyph-name="x" unicode="x" horiz-adv-x="522" 
d="M193 246l-174 241h138q2 -4 10.5 -16t19.5 -28t23.5 -34.5t23.5 -34.5t19.5 -28t10.5 -15l106 156h132l-171 -239l177 -248h-136l-113 163q-3 -4 -11 -16.5t-19.5 -29t-24.5 -36t-24.5 -36t-20 -29t-10.5 -16.5h-133z" />
    <glyph glyph-name="y" unicode="y" horiz-adv-x="551" 
d="M106 -197l117 255l-208 429h131l140 -308l131 308h123l-310 -684h-124z" />
    <glyph glyph-name="z" unicode="z" horiz-adv-x="488" 
d="M45 0v101l247 284h-242v102h388v-98l-250 -287h255v-102h-398z" />
    <glyph glyph-name="braceleft" unicode="{" horiz-adv-x="356" 
d="M14 373q21 0 40.5 5t33.5 16.5t22.5 30t8.5 44.5v140q0 97 49 143.5t138 46.5h23v-89h-22q-45 0 -67.5 -22.5t-22.5 -74.5v-166q0 -49 -27 -81t-75 -43q48 -11 75 -43.5t27 -81.5v-166q0 -52 22.5 -74t67.5 -22h22v-89h-23q-89 0 -138 46.5t-49 143.5v139q0 53 -31 75
t-74 22v100z" />
    <glyph glyph-name="bar" unicode="|" horiz-adv-x="238" 
d="M70 -153v952h98v-952h-98z" />
    <glyph glyph-name="braceright" unicode="}" horiz-adv-x="356" 
d="M342 273q-43 0 -74 -22t-31 -75v-139q0 -97 -49 -143.5t-138 -46.5h-23v89h22q45 0 67.5 22t22.5 74v166q0 49 27 81.5t75 43.5q-48 11 -75 43t-27 81v166q0 52 -22.5 74.5t-67.5 22.5h-22v89h23q89 0 138 -46.5t49 -143.5v-140q0 -26 8.5 -44.5t22.5 -30t33.5 -16.5
t40.5 -5v-100z" />
    <glyph glyph-name="asciitilde" unicode="~" horiz-adv-x="628" 
d="M266 261q-28 14 -52 14q-26 0 -49.5 -14t-42.5 -40l-66 53q28 49 69.5 74.5t89.5 25.5q25 0 50 -6.5t51 -20.5l46 -25q27 -15 55 -15q26 0 49.5 13.5t40.5 39.5l66 -53q-28 -49 -69 -74t-89 -25q-50 0 -102 28z" />
    <glyph glyph-name="uni00A0" unicode="&#xa0;" horiz-adv-x="242" 
 />
    <glyph glyph-name="exclamdown" unicode="&#xa1;" horiz-adv-x="252" 
d="M197 -213h-142l30 498h83zM53 429q0 30 21.5 51.5t51.5 21.5t52 -21.5t22 -51.5q0 -31 -22 -52t-52 -21t-51.5 21t-21.5 52z" />
    <glyph glyph-name="cent" unicode="&#xa2;" horiz-adv-x="560" 
d="M298 201q27 0 48.5 8t36.5 21t25 29t15 33l101 -35q-7 -28 -22.5 -54t-38 -48t-52.5 -37.5t-67 -21.5v-96h-92v97q-45 7 -83 28.5t-66 54.5t-43.5 76.5t-15.5 94.5t15.5 94.5t43.5 77t66 55t83 28.5v103h92v-104q73 -12 118 -57t59 -102l-103 -35q-5 17 -14 33.5
t-23.5 29t-35.5 20.5t-48 8q-29 0 -54.5 -10.5t-44 -30t-29 -47.5t-10.5 -63t10.5 -62.5t29.5 -47t44 -30t55 -10.5z" />
    <glyph glyph-name="sterling" unicode="&#xa3;" horiz-adv-x="610" 
d="M269 304q2 -10 3 -18.5t1 -21.5q0 -50 -20.5 -93t-55.5 -68h174q47 0 73.5 29t28.5 76l103 -12q-1 -44 -14 -80t-37.5 -61.5t-59 -40t-78.5 -14.5h-334v96q46 21 77 62t31 98q0 13 -1.5 24t-4.5 24h-96v91h68q-10 27 -19 58t-9 66q0 42 15 79.5t43.5 65t69.5 43.5t93 16
q54 0 92.5 -17t64 -44t38.5 -61t14 -68l-102 -21q-2 50 -30.5 80t-76.5 30q-45 0 -75 -26.5t-30 -83.5q0 -32 10 -60t20 -57h191v-91h-167z" />
    <glyph glyph-name="currency" unicode="&#xa4;" horiz-adv-x="612" 
d="M416 171q-24 -14 -51.5 -22t-56.5 -8q-31 0 -59 8.5t-52 23.5l-74 -75l-71 71l73 74q-15 23 -23.5 51.5t-8.5 60.5q0 63 33 113l-74 75l72 71l74 -77q51 31 110 31q58 0 106 -28l73 74l72 -71l-71 -72q17 -24 26.5 -54t9.5 -62t-9.5 -62t-25.5 -53l70 -71l-72 -71z
M192 355q0 -52 33 -84.5t83 -32.5t82.5 32.5t32.5 84.5q0 51 -32.5 83t-82.5 32q-25 0 -46 -8.5t-36.5 -23.5t-24.5 -36.5t-9 -46.5z" />
    <glyph glyph-name="yen" unicode="&#xa5;" horiz-adv-x="657" 
d="M270 0v144h-185v85h185v70h-185v85h138l-193 325h133l169 -294l167 294h128l-196 -325h140v-85h-185v-70h185v-85h-185v-144h-116z" />
    <glyph glyph-name="brokenbar" unicode="&#xa6;" horiz-adv-x="250" 
d="M174 799v-399h-98v399h98zM174 245v-399h-98v399h98z" />
    <glyph glyph-name="section" unicode="&#xa7;" horiz-adv-x="522" 
d="M464 249q0 -23 -7 -42t-18.5 -35t-25.5 -28t-28 -19q39 -28 60 -65t21 -78q0 -43 -17 -77.5t-46 -59t-66.5 -37.5t-77.5 -13q-48 0 -85.5 13.5t-63.5 38t-40 58.5t-15 75l108 20q0 -51 24.5 -79.5t72.5 -28.5q39 0 64 21t25 59q0 23 -13.5 42.5t-36.5 31.5l-102 52
q-28 14 -53 30t-44 36.5t-30.5 46t-11.5 59.5q0 22 7 41.5t18.5 35.5t25.5 27.5t29 19.5q-41 28 -61.5 64.5t-20.5 78.5q0 43 17.5 77.5t46 58.5t66 37t78.5 13q48 0 85.5 -14t63.5 -38.5t39.5 -58.5t14.5 -73l-109 -20q0 51 -25 79t-70 28q-41 0 -66 -22.5t-25 -57.5
q0 -47 51 -73l101 -52q28 -14 53 -30.5t44.5 -36.5t31 -46t11.5 -59zM203 357q-17 -11 -27.5 -28t-10.5 -38q0 -24 11.5 -42.5t40.5 -33.5l100 -53q17 11 28 27.5t11 38.5q0 24 -11.5 42t-40.5 34z" />
    <glyph glyph-name="dieresis" unicode="&#xa8;" horiz-adv-x="393" 
d="M32 625q0 27 18.5 46t45.5 19q28 0 47 -19t19 -46q0 -28 -19 -46.5t-47 -18.5q-27 0 -45.5 18.5t-18.5 46.5zM232 625q0 27 18.5 46t45.5 19t46 -19t19 -46q0 -28 -19 -46.5t-46 -18.5t-45.5 18.5t-18.5 46.5z" />
    <glyph glyph-name="copyright" unicode="&#xa9;" horiz-adv-x="824" 
d="M127 355q0 -62 22 -116t60 -93.5t90 -62t112 -22.5t111.5 22.5t90 62t60.5 93.5t22 116t-22 115.5t-60.5 93t-90 62t-111.5 22.5t-112 -22.5t-90 -62t-60 -93t-22 -115.5zM45 355q0 76 28.5 143t78 117.5t116.5 79.5t143 29t143 -29t117 -79.5t79 -117.5t29 -143
q0 -77 -29 -144t-79 -117.5t-117 -79.5t-143 -29t-143 29t-116.5 79.5t-78 117.5t-28.5 144zM414 473q-42 0 -74 -30t-32 -88t32 -89t75 -31q22 0 39 7t28.5 17.5t18.5 22.5t10 23l80 -29q-7 -23 -21 -45t-36 -40t-51.5 -29t-67.5 -11q-42 0 -78 15.5t-63 42.5t-42 64.5
t-15 81.5t15 81.5t41.5 64.5t62.5 42t77 15q39 0 69 -11t51.5 -29t35 -40.5t19.5 -45.5l-82 -30q-3 13 -9.5 25.5t-17.5 22.5t-27 16.5t-38 6.5z" />
    <glyph glyph-name="ordfeminine" unicode="&#xaa;" horiz-adv-x="411" 
d="M260 522l-82 -14q-19 -3 -31.5 -13t-12.5 -30q0 -16 12 -29t36 -13q31 0 54.5 18t23.5 66v15zM46 460q0 45 30 71.5t73 32.5l86 12q14 2 19.5 8.5t5.5 15.5q0 20 -14.5 34.5t-46.5 14.5q-30 0 -47.5 -17.5t-19.5 -41.5l-79 17q2 21 12.5 41.5t29 36t44.5 25.5t60 10
q40 0 68.5 -10.5t46 -28.5t25.5 -41.5t8 -49.5v-169q0 -18 1.5 -34.5t2.5 -20.5h-82q-1 5 -2 15.5t-1 26.5q-13 -20 -38.5 -36t-63.5 -16q-28 0 -50 8.5t-37 23t-23 33t-8 39.5z" />
    <glyph glyph-name="guillemotleft" unicode="&#xab;" horiz-adv-x="534" 
d="M171 100l-135 193l136 194h111l-134 -195l133 -192h-111zM378 100l-135 193l136 194h111l-134 -195l133 -192h-111z" />
    <glyph glyph-name="logicalnot" unicode="&#xac;" horiz-adv-x="591" 
d="M422 199v195h-377v98h478v-293h-101z" />
    <glyph glyph-name="uni00AD" unicode="&#xad;" horiz-adv-x="410" 
d="M64 241v103h282v-103h-282z" />
    <glyph glyph-name="registered" unicode="&#xae;" horiz-adv-x="824" 
d="M45 355q0 76 28.5 143t78 117.5t116.5 79.5t143 29t143 -29t117 -79.5t79 -117.5t29 -143q0 -77 -29 -144t-79 -117.5t-117 -79.5t-143 -29t-143 29t-116.5 79.5t-78 117.5t-28.5 144zM127 355q0 -62 22 -116t60 -93.5t90 -62t112 -22.5t111.5 22.5t90 62t60.5 93.5
t22 116t-22 115.5t-60.5 93t-90 62t-111.5 22.5t-112 -22.5t-90 -62t-60 -93t-22 -115.5zM398 301h-29v-144h-86v401h149q29 0 54 -10t43.5 -27.5t29 -40.5t10.5 -50q0 -42 -22.5 -73t-59.5 -45l85 -155h-98zM418 374q30 0 46.5 14.5t16.5 40.5t-16.5 41t-46.5 15h-49v-111
h49z" />
    <glyph glyph-name="macron" unicode="&#xaf;" horiz-adv-x="338" 
d="M30 577v90h278v-90h-278z" />
    <glyph glyph-name="degree" unicode="&#xb0;" horiz-adv-x="402" 
d="M201 487q30 0 50 21t20 53t-20 52.5t-50 20.5t-50.5 -20.5t-20.5 -52.5q0 -33 20.5 -53.5t50.5 -20.5zM37 561q0 34 13 63t35.5 51t52.5 34.5t63 12.5t62.5 -12.5t52 -34.5t36 -51t13.5 -63q0 -35 -13.5 -64t-36 -51t-52.5 -34t-63 -12t-62.5 12.5t-52 34t-35.5 51
t-13 63.5z" />
    <glyph glyph-name="plusminus" unicode="&#xb1;" horiz-adv-x="593" 
d="M346 368v-127h-100v127h-177v95h177v129h100v-129h178v-95h-178zM69 104v96h455v-96h-455z" />
    <glyph glyph-name="twosuperior" unicode="&#xb2;" horiz-adv-x="351" 
d="M40 566q-3 15 -3 30q0 24 9 46t26.5 38.5t43.5 26.5t59 10t58.5 -9.5t43 -26t26.5 -38t9 -45.5q0 -35 -20 -62.5t-55 -48.5l-71 -43q-17 -12 -20 -25h169v-76h-281v12q0 48 19.5 85.5t67.5 66.5l60 36q41 24 41 56q0 17 -12 30.5t-37 13.5q-24 0 -38 -14.5t-14 -37.5
q0 -4 0.5 -11t2.5 -13z" />
    <glyph glyph-name="threesuperior" unicode="&#xb3;" horiz-adv-x="363" 
d="M107 468q4 -25 22.5 -41.5t46.5 -16.5t44.5 14.5t16.5 34.5q0 28 -19 39.5t-42 11.5q-16 0 -31 -6l-32 61l91 69h-164v75h279v-72l-94 -69q45 -5 74 -33t29 -77q0 -25 -10.5 -47.5t-30 -39t-47.5 -26.5t-63 -10q-33 0 -59.5 9.5t-45 24.5t-30 34.5t-15.5 40.5z" />
    <glyph glyph-name="acute" unicode="&#xb4;" horiz-adv-x="286" 
d="M125 548h-95l89 148h137z" />
    <glyph glyph-name="mu" unicode="&#xb5;" horiz-adv-x="562" 
d="M387 54q-18 -33 -56.5 -50.5t-81.5 -17.5q-38 0 -68 12v-188h-116v677h116v-286q0 -23 5.5 -43t17.5 -35t30.5 -24t44.5 -9q51 0 76.5 30.5t25.5 78.5v288h116v-398q0 -23 1.5 -46t3.5 -43h-111q-2 8 -3 23.5t-1 30.5z" />
    <glyph glyph-name="paragraph" unicode="&#xb6;" horiz-adv-x="667" 
d="M341 -190h-95v500h-17q-41 0 -77 15t-63 41t-43 62t-16 77q0 49 18.5 87.5t50 64t74 39t89.5 13.5h366v-93h-97v-806h-95v806h-95v-806z" />
    <glyph glyph-name="periodcentered" unicode="&#xb7;" horiz-adv-x="271" 
d="M57 298q0 32 23 55t55 23q33 0 56 -23t23 -55q0 -33 -23 -55t-56 -22q-32 0 -55 22t-23 55z" />
    <glyph glyph-name="cedilla" unicode="&#xb8;" horiz-adv-x="296" 
d="M82 -62l48 75h78l-39 -60q43 -1 70 -23.5t27 -60.5q0 -18 -7 -34.5t-21.5 -29t-38 -20.5t-56.5 -8q-40 0 -70.5 15t-44.5 33l41 50q10 -10 28.5 -22.5t44.5 -12.5q18 0 31 7t13 23q0 12 -10.5 21t-30.5 9q-15 0 -28 -5z" />
    <glyph glyph-name="onesuperior" unicode="&#xb9;" horiz-adv-x="249" 
d="M112 343v233h-89v60q43 1 68 23.5t30 49.5h82v-366h-91z" />
    <glyph glyph-name="ordmasculine" unicode="&#xba;" horiz-adv-x="436" 
d="M219 356q-39 0 -72 13.5t-57 37.5t-37.5 57.5t-13.5 73.5t13.5 73.5t37.5 57.5t57 37.5t72 13.5q38 0 71 -13.5t57 -37.5t37.5 -57.5t13.5 -73.5t-13.5 -73.5t-37.5 -57.5t-57 -37.5t-71 -13.5zM128 538q0 -51 27.5 -76.5t63.5 -25.5q35 0 62.5 26t27.5 76q0 51 -27.5 76
t-62.5 25q-36 0 -63.5 -25t-27.5 -76z" />
    <glyph glyph-name="guillemotright" unicode="&#xbb;" horiz-adv-x="534" 
d="M252 100l133 192l-134 195h111l136 -194l-135 -193h-111zM45 100l133 192l-134 195h111l136 -194l-135 -193h-111z" />
    <glyph glyph-name="onequarter" unicode="&#xbc;" horiz-adv-x="782" 
d="M122 343v233h-89v60q43 1 68 23.5t30 49.5h82v-366h-91zM654 709l-460 -709h-102l461 709h101zM416 159l172 207h99v-222h62v-73h-62v-71h-90v71h-181v88zM597 269l-103 -125h103v125z" />
    <glyph glyph-name="onehalf" unicode="&#xbd;" horiz-adv-x="805" 
d="M122 343v233h-89v60q43 1 68 23.5t30 49.5h82v-366h-91zM657 709l-460 -709h-102l461 709h101zM489 223q-3 15 -3 30q0 24 9 46t26.5 38.5t43.5 26.5t59 10t58.5 -9.5t43 -26t26.5 -38t9 -45.5q0 -35 -20 -62.5t-55 -48.5l-71 -43q-17 -12 -20 -25h169v-76h-281v12
q0 48 19.5 85.5t67.5 66.5l60 36q41 24 41 56q0 17 -12 30.5t-37 13.5q-24 0 -38 -14.5t-14 -37.5q0 -4 0.5 -11t2.5 -13z" />
    <glyph glyph-name="threequarters" unicode="&#xbe;" horiz-adv-x="857" 
d="M167 0l461 709h101l-460 -709h-102zM491 159l172 208h99v-223h62v-72h-62v-72h-90v72h-181v87zM672 269l-104 -125h104v125zM125 567l89 67h-166v75h278v-74l-94 -69q45 -5 74.5 -33t29.5 -76q0 -25 -10.5 -47t-30.5 -39t-48 -27t-62 -10t-60.5 9.5t-45 25t-30 35
t-14.5 40.5l80 24q3 -26 22 -42t47 -16q27 0 43.5 14t16.5 35q0 27 -18.5 38t-41.5 11q-8 0 -15 -1t-13 -3z" />
    <glyph glyph-name="questiondown" unicode="&#xbf;" horiz-adv-x="512" 
d="M320 286q3 -18 3 -38q0 -45 -18 -82t-62 -68l-46 -33q-25 -18 -36 -40t-11 -48q0 -39 26.5 -69.5t81.5 -30.5q29 0 50 10t35 26.5t20.5 37t6.5 42.5q0 11 -1.5 23.5t-4.5 21.5l114 -12q3 -11 4 -22.5t1 -23.5q0 -38 -14 -75t-42 -66.5t-70 -48t-99 -18.5q-56 0 -98.5 17
t-71.5 45t-43.5 64t-14.5 74q0 60 27.5 102.5t71.5 73.5l43 30q24 17 36.5 42.5t12.5 55.5v10h99zM197 429q0 30 21 51.5t52 21.5q30 0 51.5 -21.5t21.5 -51.5t-21.5 -51.5t-51.5 -21.5q-31 0 -52 21.5t-21 51.5z" />
    <glyph glyph-name="Agrave" unicode="&#xc0;" horiz-adv-x="717" 
d="M506 178h-300l-66 -178h-127l276 709h139l276 -709h-131zM248 289h216l-108 290zM166 883h148l103 -124h-108z" />
    <glyph glyph-name="Aacute" unicode="&#xc1;" horiz-adv-x="717" 
d="M506 178h-300l-66 -178h-127l276 709h139l276 -709h-131zM248 289h216l-108 290zM407 759h-109l102 124h149z" />
    <glyph glyph-name="Acircumflex" unicode="&#xc2;" horiz-adv-x="717" 
d="M506 178h-300l-66 -178h-127l276 709h139l276 -709h-131zM248 289h216l-108 290zM174 759l116 124h129l119 -124h-110l-75 64l-72 -64h-107z" />
    <glyph glyph-name="Atilde" unicode="&#xc3;" horiz-adv-x="717" 
d="M506 178h-300l-66 -178h-127l276 709h139l276 -709h-131zM248 289h216l-108 290zM520 863q0 -55 -28.5 -82.5t-70.5 -27.5q-22 0 -40 7t-33 16l-10 7q-12 8 -23 12.5t-22 4.5t-20.5 -8t-9.5 -25v-10h-75v22q0 56 29 83t71 27q22 0 40.5 -7t33.5 -16l10 -6q12 -7 22.5 -12
t20.5 -5q13 0 22 7.5t9 25.5v10h74v-23z" />
    <glyph glyph-name="Adieresis" unicode="&#xc4;" horiz-adv-x="717" 
d="M137 821q0 28 19 47.5t47 19.5q29 0 48 -19.5t19 -47.5t-19 -47t-48 -19q-28 0 -47 19t-19 47zM444 821q0 28 18.5 47.5t46.5 19.5q29 0 48 -19.5t19 -47.5t-19 -47t-48 -19q-28 0 -46.5 19t-18.5 47zM506 178h-300l-66 -178h-127l276 709h139l276 -709h-131zM248 289
h216l-108 290z" />
    <glyph glyph-name="Aring" unicode="&#xc5;" horiz-adv-x="717" 
d="M248 289h216l-108 290zM356 709q21 0 35.5 13.5t14.5 36.5q0 22 -14.5 35.5t-35.5 13.5t-35.5 -13.5t-14.5 -35.5q0 -23 14.5 -36.5t35.5 -13.5zM486 759q0 -29 -11 -52.5t-31 -40.5l260 -666h-131l-67 178h-300l-66 -178h-127l258 663q-20 17 -32 42t-12 54
q0 27 10.5 50t28 40t41 26.5t49.5 9.5t49.5 -9.5t41.5 -26.5t28.5 -40t10.5 -50z" />
    <glyph glyph-name="AE" unicode="&#xc6;" horiz-adv-x="1027" 
d="M536 0v180h-277l-115 -180h-149l470 709h509v-112h-318v-188h288v-109h-288v-188h318v-112h-438zM536 283v328l-211 -328h211z" />
    <glyph glyph-name="Ccedilla" unicode="&#xc7;" horiz-adv-x="751" 
d="M337 -62l31 49q-66 6 -125 33.5t-103.5 74.5t-70 112.5t-25.5 146.5q0 87 30 155.5t79.5 116t114 73t133.5 25.5q67 0 121 -18.5t94 -50t66 -73.5t38 -88l-113 -38q-8 32 -24.5 60.5t-42 49.5t-60 33t-79.5 12q-44 0 -86 -16t-75 -48t-53 -80.5t-20 -112.5
q0 -62 19.5 -109.5t52.5 -79.5t75.5 -48.5t87.5 -16.5t80 13t61 35t43.5 50t26.5 58l110 -36q-11 -41 -34 -80.5t-58 -71t-81 -53t-104 -27.5l-22 -35q43 -1 70 -23.5t27 -60.5q0 -18 -7 -34.5t-21.5 -29t-38 -20.5t-56.5 -8q-40 0 -70.5 15t-44.5 33l41 50
q10 -10 28.5 -22.5t44.5 -12.5q18 0 31 7t13 23q0 12 -10.5 21t-30.5 9q-15 0 -28 -5z" />
    <glyph glyph-name="Egrave" unicode="&#xc8;" horiz-adv-x="580" 
d="M141 883h148l103 -124h-108zM89 0v709h438v-112h-318v-188h288v-109h-288v-188h318v-112h-438z" />
    <glyph glyph-name="Eacute" unicode="&#xc9;" horiz-adv-x="580" 
d="M336 759h-109l102 124h149zM89 0v709h438v-112h-318v-188h288v-109h-288v-188h318v-112h-438z" />
    <glyph glyph-name="Ecircumflex" unicode="&#xca;" horiz-adv-x="580" 
d="M125 759l116 124h129l119 -124h-110l-75 64l-72 -64h-107zM89 0v709h438v-112h-318v-188h288v-109h-288v-188h318v-112h-438z" />
    <glyph glyph-name="Edieresis" unicode="&#xcb;" horiz-adv-x="580" 
d="M129 821q0 28 19 47.5t47 19.5t47.5 -19.5t19.5 -47.5t-19.5 -47t-47.5 -19t-47 19t-19 47zM357 821q0 28 18.5 47.5t47.5 19.5q28 0 47 -19.5t19 -47.5t-19 -47t-47 -19q-29 0 -47.5 19t-18.5 47zM89 0v709h438v-112h-318v-188h288v-109h-288v-188h318v-112h-438z" />
    <glyph glyph-name="Igrave" unicode="&#xcc;" horiz-adv-x="300" 
d="M89 0v709h122v-709h-122zM-42 883h148l103 -124h-108z" />
    <glyph glyph-name="Iacute" unicode="&#xcd;" horiz-adv-x="300" 
d="M89 0v709h122v-709h-122zM201 759h-109l102 124h149z" />
    <glyph glyph-name="Icircumflex" unicode="&#xce;" horiz-adv-x="300" 
d="M89 0v709h122v-709h-122zM-26 759l116 124h129l119 -124h-110l-75 64l-72 -64h-107z" />
    <glyph glyph-name="Idieresis" unicode="&#xcf;" horiz-adv-x="300" 
d="M3 822q0 26 17.5 44t43.5 18t44.5 -18t18.5 -44t-18.5 -44t-44.5 -18t-43.5 18t-17.5 44zM173 822q0 26 18 44t44 18t44 -18t18 -44t-18 -44t-44 -18t-44 18t-18 44zM88 0v709h122v-709h-122z" />
    <glyph glyph-name="Eth" unicode="&#xd0;" horiz-adv-x="739" 
d="M97 0v319h-82v93h82v297h251q72 0 135 -23.5t109.5 -69t73.5 -112t27 -151.5t-27 -151t-74 -111t-110 -68t-135 -23h-250zM343 110q46 0 87 15t71.5 45t48.5 75.5t18 107.5t-17.5 108.5t-48 77t-71.5 45.5t-87 15h-127v-187h131v-93h-131v-209h126z" />
    <glyph glyph-name="Ntilde" unicode="&#xd1;" horiz-adv-x="773" 
d="M554 863q0 -55 -28.5 -82.5t-70.5 -27.5q-22 0 -40 7t-33 16l-10 7q-12 8 -23 12.5t-22 4.5t-20.5 -8t-9.5 -25v-10h-75v22q0 56 29 83t71 27q22 0 40.5 -7t33.5 -16l10 -6q12 -7 22.5 -12t20.5 -5q13 0 22 7.5t9 25.5v10h74v-23zM559 0l-350 537v-537h-120v709h153
l322 -503v503h120v-709h-125z" />
    <glyph glyph-name="Ograve" unicode="&#xd2;" horiz-adv-x="809" 
d="M212 883h148l103 -124h-108zM167 355q0 -64 20.5 -112t53.5 -80t75.5 -48t87.5 -16t88 16t76 48t53.5 80t20.5 112t-20.5 112t-53.5 80t-76 48t-88 16t-87.5 -16t-75.5 -48t-53.5 -80t-20.5 -112zM44 355q0 87 30 155.5t80 116t115 72.5t135 25t135 -25t115 -72.5
t80.5 -116t30.5 -155.5t-30.5 -156t-80.5 -116.5t-115 -72.5t-135 -25t-135 25t-115 72.5t-80 116.5t-30 156z" />
    <glyph glyph-name="Oacute" unicode="&#xd3;" horiz-adv-x="809" 
d="M450 759h-109l102 124h149zM167 355q0 -64 20.5 -112t53.5 -80t75.5 -48t87.5 -16t88 16t76 48t53.5 80t20.5 112t-20.5 112t-53.5 80t-76 48t-88 16t-87.5 -16t-75.5 -48t-53.5 -80t-20.5 -112zM44 355q0 87 30 155.5t80 116t115 72.5t135 25t135 -25t115 -72.5
t80.5 -116t30.5 -155.5t-30.5 -156t-80.5 -116.5t-115 -72.5t-135 -25t-135 25t-115 72.5t-80 116.5t-30 156z" />
    <glyph glyph-name="Ocircumflex" unicode="&#xd4;" horiz-adv-x="809" 
d="M223 759l116 124h129l119 -124h-110l-75 64l-72 -64h-107zM167 355q0 -64 20.5 -112t53.5 -80t75.5 -48t87.5 -16t88 16t76 48t53.5 80t20.5 112t-20.5 112t-53.5 80t-76 48t-88 16t-87.5 -16t-75.5 -48t-53.5 -80t-20.5 -112zM44 355q0 87 30 155.5t80 116t115 72.5
t135 25t135 -25t115 -72.5t80.5 -116t30.5 -155.5t-30.5 -156t-80.5 -116.5t-115 -72.5t-135 -25t-135 25t-115 72.5t-80 116.5t-30 156z" />
    <glyph glyph-name="Otilde" unicode="&#xd5;" horiz-adv-x="809" 
d="M571 864q0 -55 -28.5 -82.5t-70.5 -27.5q-22 0 -40 7t-33 16l-10 7q-12 8 -23 12.5t-22 4.5t-20.5 -8t-9.5 -25v-10h-75v22q0 56 29 83t71 27q22 0 40.5 -7t33.5 -16l10 -6q12 -7 22.5 -12t20.5 -5q13 0 22 7.5t9 25.5v10h74v-23zM167 355q0 -64 20.5 -112t53.5 -80
t75.5 -48t87.5 -16t88 16t76 48t53.5 80t20.5 112t-20.5 112t-53.5 80t-76 48t-88 16t-87.5 -16t-75.5 -48t-53.5 -80t-20.5 -112zM44 355q0 87 30 155.5t80 116t115 72.5t135 25t135 -25t115 -72.5t80.5 -116t30.5 -155.5t-30.5 -156t-80.5 -116.5t-115 -72.5t-135 -25
t-135 25t-115 72.5t-80 116.5t-30 156z" />
    <glyph glyph-name="Odieresis" unicode="&#xd6;" horiz-adv-x="809" 
d="M177 821q0 28 19 47.5t47 19.5t47.5 -19.5t19.5 -47.5t-19.5 -47t-47.5 -19t-47 19t-19 47zM500 821q0 28 19 47.5t47 19.5t47.5 -19.5t19.5 -47.5t-19.5 -47t-47.5 -19t-47 19t-19 47zM167 355q0 -64 20.5 -112t53.5 -80t75.5 -48t87.5 -16t88 16t76 48t53.5 80
t20.5 112t-20.5 112t-53.5 80t-76 48t-88 16t-87.5 -16t-75.5 -48t-53.5 -80t-20.5 -112zM44 355q0 87 30 155.5t80 116t115 72.5t135 25t135 -25t115 -72.5t80.5 -116t30.5 -155.5t-30.5 -156t-80.5 -116.5t-115 -72.5t-135 -25t-135 25t-115 72.5t-80 116.5t-30 156z" />
    <glyph glyph-name="multiply" unicode="&#xd7;" horiz-adv-x="576" 
d="M288 419l166 170l70 -68l-167 -172l167 -171l-68 -70l-168 171l-167 -171l-69 70l167 171l-166 171l70 69z" />
    <glyph glyph-name="Oslash" unicode="&#xd8;" horiz-adv-x="809" 
d="M44 355q0 87 30 155.5t80 116t115 72.5t135 25q50 0 97 -13t89 -37l71 91l78 -60l-72 -92q45 -48 71.5 -112.5t26.5 -145.5q0 -87 -30.5 -156t-80.5 -116.5t-115 -72.5t-135 -25q-49 0 -96 12t-89 36l-68 -88l-80 59l71 91q-45 48 -71.5 113t-26.5 147zM167 355
q0 -52 13 -92.5t36 -71.5l303 391q-53 29 -115 29q-45 0 -87.5 -16t-75.5 -48t-53.5 -80t-20.5 -112zM642 355q0 51 -13 91t-35 71l-303 -391q52 -27 113 -27q45 0 88 16t76 48t53.5 80t20.5 112z" />
    <glyph glyph-name="Ugrave" unicode="&#xd9;" horiz-adv-x="693" 
d="M169 883h148l103 -124h-108zM346 -15q-56 0 -104 17t-83.5 50t-56 82t-20.5 113v462h119v-455q0 -75 38.5 -115t106.5 -40q69 0 107 40t38 115v455h120v-462q0 -64 -20.5 -113t-56 -82t-84 -50t-104.5 -17z" />
    <glyph glyph-name="Uacute" unicode="&#xda;" horiz-adv-x="693" 
d="M376 759h-109l102 124h149zM346 -15q-56 0 -104 17t-83.5 50t-56 82t-20.5 113v462h119v-455q0 -75 38.5 -115t106.5 -40q69 0 107 40t38 115v455h120v-462q0 -64 -20.5 -113t-56 -82t-84 -50t-104.5 -17z" />
    <glyph glyph-name="Ucircumflex" unicode="&#xdb;" horiz-adv-x="693" 
d="M165 759l116 124h129l119 -124h-110l-75 64l-72 -64h-107zM346 -15q-56 0 -104 17t-83.5 50t-56 82t-20.5 113v462h119v-455q0 -75 38.5 -115t106.5 -40q69 0 107 40t38 115v455h120v-462q0 -64 -20.5 -113t-56 -82t-84 -50t-104.5 -17z" />
    <glyph glyph-name="Udieresis" unicode="&#xdc;" horiz-adv-x="693" 
d="M163 821q0 28 18.5 47.5t47.5 19.5q28 0 47 -19.5t19 -47.5t-19 -47t-47 -19q-29 0 -47.5 19t-18.5 47zM399 821q0 28 18.5 47.5t47.5 19.5q28 0 47 -19.5t19 -47.5t-19 -47t-47 -19q-29 0 -47.5 19t-18.5 47zM346 -15q-56 0 -104 17t-83.5 50t-56 82t-20.5 113v462h119
v-455q0 -75 38.5 -115t106.5 -40q69 0 107 40t38 115v455h120v-462q0 -64 -20.5 -113t-56 -82t-84 -50t-104.5 -17z" />
    <glyph glyph-name="Yacute" unicode="&#xdd;" horiz-adv-x="651" 
d="M17 709h142l170 -297l171 297h135l-250 -409v-300h-120v300zM359 759h-109l102 124h149z" />
    <glyph glyph-name="Thorn" unicode="&#xde;" horiz-adv-x="605" 
d="M334 251q57 0 89.5 29.5t32.5 79.5q0 52 -32.5 82t-89.5 30h-125v-221h125zM209 147v-147h-120v709h120v-133h137q50 0 92.5 -16.5t73.5 -45t48.5 -68t17.5 -85.5t-17.5 -85.5t-48 -68t-73 -44.5t-92.5 -16h-138z" />
    <glyph glyph-name="germandbls" unicode="&#xdf;" horiz-adv-x="591" 
d="M378 343q1 -17 11 -25t30 -16l33 -15q46 -20 77 -58.5t31 -92.5q0 -25 -10 -52t-31 -49t-53 -36t-77 -14t-77 14t-51.5 35t-29 46t-9.5 47l96 22q0 -11 4 -23.5t12 -23.5t21.5 -18.5t33.5 -7.5q31 0 46 17t15 35q0 41 -50 63l-32 14q-18 8 -37 18.5t-34.5 25.5t-25.5 36
t-10 50q0 42 19.5 69t45.5 44l25 17q24 15 38.5 33.5t14.5 43.5q0 32 -25.5 56t-76.5 24q-23 0 -44 -8.5t-37 -25.5t-25.5 -43.5t-9.5 -62.5v-482h-114v489q0 58 18.5 102t50 73.5t73 44.5t88.5 15q49 0 89.5 -14t68.5 -38t43.5 -56t15.5 -69q0 -29 -7.5 -52t-19.5 -41
t-28 -31.5t-33 -24.5l-24 -15q-13 -8 -21 -17t-8 -23z" />
    <glyph glyph-name="agrave" unicode="&#xe0;" horiz-adv-x="531" 
d="M41 132q0 33 11.5 58t31 43.5t46.5 29.5t58 16l125 19q21 3 28.5 12.5t7.5 22.5q0 31 -22 52.5t-70 21.5q-46 0 -71 -25.5t-29 -62.5l-106 24q3 31 19 60t42 51t62.5 35t81.5 13q56 0 95.5 -15t64 -40t36 -58t11.5 -69v-242q0 -33 2.5 -53.5t3.5 -24.5h-108q-1 2 -3 17.5
t-2 44.5q-17 -28 -54 -52.5t-96 -24.5q-38 0 -68.5 12t-52 32.5t-33 47t-11.5 55.5zM228 76q24 0 46 6.5t38.5 21t26.5 38.5t10 60v22l-127 -19q-27 -5 -46 -20.5t-19 -45.5q0 -25 18 -44t53 -19zM94 696h139l88 -148h-95z" />
    <glyph glyph-name="aacute" unicode="&#xe1;" horiz-adv-x="531" 
d="M41 132q0 33 11.5 58t31 43.5t46.5 29.5t58 16l125 19q21 3 28.5 12.5t7.5 22.5q0 31 -22 52.5t-70 21.5q-46 0 -71 -25.5t-29 -62.5l-106 24q3 31 19 60t42 51t62.5 35t81.5 13q56 0 95.5 -15t64 -40t36 -58t11.5 -69v-242q0 -33 2.5 -53.5t3.5 -24.5h-108q-1 2 -3 17.5
t-2 44.5q-17 -28 -54 -52.5t-96 -24.5q-38 0 -68.5 12t-52 32.5t-33 47t-11.5 55.5zM228 76q24 0 46 6.5t38.5 21t26.5 38.5t10 60v22l-127 -19q-27 -5 -46 -20.5t-19 -45.5q0 -25 18 -44t53 -19zM287 548h-95l89 148h137z" />
    <glyph glyph-name="acircumflex" unicode="&#xe2;" horiz-adv-x="531" 
d="M41 132q0 33 11.5 58t31 43.5t46.5 29.5t58 16l125 19q21 3 28.5 12.5t7.5 22.5q0 31 -22 52.5t-70 21.5q-46 0 -71 -25.5t-29 -62.5l-106 24q3 31 19 60t42 51t62.5 35t81.5 13q56 0 95.5 -15t64 -40t36 -58t11.5 -69v-242q0 -33 2.5 -53.5t3.5 -24.5h-108q-1 2 -3 17.5
t-2 44.5q-17 -28 -54 -52.5t-96 -24.5q-38 0 -68.5 12t-52 32.5t-33 47t-11.5 55.5zM228 76q24 0 46 6.5t38.5 21t26.5 38.5t10 60v22l-127 -19q-27 -5 -46 -20.5t-19 -45.5q0 -25 18 -44t53 -19zM92 549l107 143h121l108 -143h-99l-70 77l-70 -77h-97z" />
    <glyph glyph-name="atilde" unicode="&#xe3;" horiz-adv-x="531" 
d="M41 132q0 33 11.5 58t31 43.5t46.5 29.5t58 16l125 19q21 3 28.5 12.5t7.5 22.5q0 31 -22 52.5t-70 21.5q-46 0 -71 -25.5t-29 -62.5l-106 24q3 31 19 60t42 51t62.5 35t81.5 13q56 0 95.5 -15t64 -40t36 -58t11.5 -69v-242q0 -33 2.5 -53.5t3.5 -24.5h-108q-1 2 -3 17.5
t-2 44.5q-17 -28 -54 -52.5t-96 -24.5q-38 0 -68.5 12t-52 32.5t-33 47t-11.5 55.5zM228 76q24 0 46 6.5t38.5 21t26.5 38.5t10 60v22l-127 -19q-27 -5 -46 -20.5t-19 -45.5q0 -25 18 -44t53 -19zM97 574q0 59 29.5 87t73.5 28q22 0 38.5 -6.5t31.5 -15.5l10 -6
q11 -7 21.5 -12t21.5 -5q31 0 31 44h76v-17q0 -59 -29 -88t-73 -29q-22 0 -39 7t-32 16l-10 6q-11 7 -21.5 11.5t-21.5 4.5q-15 0 -22.5 -10t-7.5 -33h-76z" />
    <glyph glyph-name="adieresis" unicode="&#xe4;" horiz-adv-x="531" 
d="M41 132q0 33 11.5 58t31 43.5t46.5 29.5t58 16l125 19q21 3 28.5 12.5t7.5 22.5q0 31 -22 52.5t-70 21.5q-46 0 -71 -25.5t-29 -62.5l-106 24q3 31 19 60t42 51t62.5 35t81.5 13q56 0 95.5 -15t64 -40t36 -58t11.5 -69v-242q0 -33 2.5 -53.5t3.5 -24.5h-108q-1 2 -3 17.5
t-2 44.5q-17 -28 -54 -52.5t-96 -24.5q-38 0 -68.5 12t-52 32.5t-33 47t-11.5 55.5zM228 76q24 0 46 6.5t38.5 21t26.5 38.5t10 60v22l-127 -19q-27 -5 -46 -20.5t-19 -45.5q0 -25 18 -44t53 -19zM95 625q0 27 18.5 46t45.5 19q28 0 47 -19t19 -46q0 -28 -19 -46.5
t-47 -18.5q-27 0 -45.5 18.5t-18.5 46.5zM295 625q0 27 18.5 46t45.5 19t46 -19t19 -46q0 -28 -19 -46.5t-46 -18.5t-45.5 18.5t-18.5 46.5z" />
    <glyph glyph-name="aring" unicode="&#xe5;" horiz-adv-x="531" 
d="M41 132q0 33 11.5 58t31 43.5t46.5 29.5t58 16l125 19q21 3 28.5 12.5t7.5 22.5q0 31 -22 52.5t-70 21.5q-46 0 -71 -25.5t-29 -62.5l-106 24q3 31 19 60t42 51t62.5 35t81.5 13q56 0 95.5 -15t64 -40t36 -58t11.5 -69v-242q0 -33 2.5 -53.5t3.5 -24.5h-108q-1 2 -3 17.5
t-2 44.5q-17 -28 -54 -52.5t-96 -24.5q-38 0 -68.5 12t-52 32.5t-33 47t-11.5 55.5zM228 76q24 0 46 6.5t38.5 21t26.5 38.5t10 60v22l-127 -19q-27 -5 -46 -20.5t-19 -45.5q0 -25 18 -44t53 -19zM369 648q0 -24 -9 -44t-25 -34.5t-36.5 -23t-43.5 -8.5t-43 8.5t-36 23
t-25 34.5t-9 44t9 44.5t25 35t36 23t43 8.5t43.5 -8.5t36.5 -23t25 -35t9 -44.5zM299 648q0 20 -12.5 32.5t-32.5 12.5q-18 0 -30.5 -12.5t-12.5 -32.5q0 -19 12.5 -31.5t30.5 -12.5q20 0 32.5 12.5t12.5 31.5z" />
    <glyph glyph-name="ae" unicode="&#xe6;" horiz-adv-x="871" 
d="M825 139q-10 -32 -30 -60t-48.5 -49t-65 -33t-78.5 -12q-59 0 -110 24.5t-85 70.5q-12 -18 -28.5 -35t-39.5 -30.5t-53 -21.5t-67 -8q-44 0 -77 12t-56 32.5t-34.5 47t-11.5 55.5q0 33 11.5 58t31 43.5t46.5 29.5t58 16l132 19q23 3 30 13.5t7 21.5q0 30 -24 52.5
t-73 22.5q-48 0 -75.5 -25.5t-31.5 -60.5l-102 21q3 33 20.5 61.5t45.5 50.5t65 34.5t79 12.5q61 0 102.5 -19.5t65.5 -51.5q32 34 75 52.5t90 18.5q56 0 100 -18t74 -51t46 -79.5t16 -104.5q0 -8 -0.5 -19t-1.5 -18h-358q1 -28 12 -51.5t29 -40t42 -26t51 -9.5
q53 0 81.5 24.5t41.5 61.5zM232 76q22 0 44.5 6.5t40.5 21t29 38.5t11 59v23l-135 -19q-29 -4 -47 -21t-18 -47q0 -23 19 -42t56 -19zM714 297q-1 21 -8.5 40.5t-22.5 34.5t-37.5 24t-52.5 9q-28 0 -49.5 -9.5t-36.5 -25t-24 -35t-10 -38.5h241z" />
    <glyph glyph-name="ccedilla" unicode="&#xe7;" horiz-adv-x="549" 
d="M224 -63l33 51q-47 6 -86.5 28t-68 55.5t-45 77.5t-16.5 95q0 56 19 103.5t53 82t79 53.5t98 19q49 0 87 -14t66 -36.5t45 -51.5t25 -58l-104 -38q-4 16 -12.5 32.5t-23 29.5t-34.5 21t-48 8q-27 0 -51 -10t-42.5 -29t-29.5 -47t-11 -65t11 -65.5t29.5 -48t43.5 -29.5
t52 -10q28 0 49.5 9t36 22.5t23.5 29t13 29.5l102 -37q-8 -26 -23 -51t-37.5 -46.5t-53 -37t-69.5 -21.5l-23 -36q43 -1 70 -23.5t27 -60.5q0 -18 -7 -34.5t-21.5 -29t-38 -20.5t-56.5 -8q-40 0 -70.5 15t-44.5 33l41 50q10 -10 28.5 -22.5t44.5 -12.5q18 0 31 7t13 23
q0 12 -10.5 21t-30.5 9q-15 0 -28 -5z" />
    <glyph glyph-name="egrave" unicode="&#xe8;" horiz-adv-x="557" 
d="M399 297q-1 21 -8.5 40.5t-22.5 34.5t-37 24t-52 9q-27 0 -48.5 -9.5t-36.5 -25t-24 -35t-10 -38.5h239zM510 139q-10 -32 -29 -60t-47 -49t-64 -33t-80 -12q-50 0 -95 17.5t-79 51t-54.5 82t-20.5 110.5q0 58 19.5 105t52.5 80.5t76 52t89 18.5q56 0 100.5 -18t75 -51
t46.5 -79.5t16 -104.5q0 -14 -1 -24.5t-2 -12.5h-356q1 -28 12 -51t29 -40t41.5 -26.5t50.5 -9.5q53 0 81.5 24.5t40.5 60.5zM116 696h139l88 -148h-95z" />
    <glyph glyph-name="eacute" unicode="&#xe9;" horiz-adv-x="557" 
d="M321 548h-95l89 148h137zM399 297q-1 21 -8.5 40.5t-22.5 34.5t-37 24t-52 9q-27 0 -48.5 -9.5t-36.5 -25t-24 -35t-10 -38.5h239zM510 139q-10 -32 -29 -60t-47 -49t-64 -33t-80 -12q-50 0 -95 17.5t-79 51t-54.5 82t-20.5 110.5q0 58 19.5 105t52.5 80.5t76 52t89 18.5
q56 0 100.5 -18t75 -51t46.5 -79.5t16 -104.5q0 -14 -1 -24.5t-2 -12.5h-356q1 -28 12 -51t29 -40t41.5 -26.5t50.5 -9.5q53 0 81.5 24.5t40.5 60.5z" />
    <glyph glyph-name="ecircumflex" unicode="&#xea;" horiz-adv-x="557" 
d="M117 549l107 143h121l108 -143h-99l-70 77l-70 -77h-97zM399 297q-1 21 -8.5 40.5t-22.5 34.5t-37 24t-52 9q-27 0 -48.5 -9.5t-36.5 -25t-24 -35t-10 -38.5h239zM510 139q-10 -32 -29 -60t-47 -49t-64 -33t-80 -12q-50 0 -95 17.5t-79 51t-54.5 82t-20.5 110.5
q0 58 19.5 105t52.5 80.5t76 52t89 18.5q56 0 100.5 -18t75 -51t46.5 -79.5t16 -104.5q0 -14 -1 -24.5t-2 -12.5h-356q1 -28 12 -51t29 -40t41.5 -26.5t50.5 -9.5q53 0 81.5 24.5t40.5 60.5z" />
    <glyph glyph-name="edieresis" unicode="&#xeb;" horiz-adv-x="557" 
d="M119 625q0 27 18.5 46t45.5 19q28 0 47 -19t19 -46q0 -28 -19 -46.5t-47 -18.5q-27 0 -45.5 18.5t-18.5 46.5zM319 625q0 27 18.5 46t45.5 19t46 -19t19 -46q0 -28 -19 -46.5t-46 -18.5t-45.5 18.5t-18.5 46.5zM399 297q-1 21 -8.5 40.5t-22.5 34.5t-37 24t-52 9
q-27 0 -48.5 -9.5t-36.5 -25t-24 -35t-10 -38.5h239zM510 139q-10 -32 -29 -60t-47 -49t-64 -33t-80 -12q-50 0 -95 17.5t-79 51t-54.5 82t-20.5 110.5q0 58 19.5 105t52.5 80.5t76 52t89 18.5q56 0 100.5 -18t75 -51t46.5 -79.5t16 -104.5q0 -14 -1 -24.5t-2 -12.5h-356
q1 -28 12 -51t29 -40t41.5 -26.5t50.5 -9.5q53 0 81.5 24.5t40.5 60.5z" />
    <glyph glyph-name="igrave" unicode="&#xec;" horiz-adv-x="259" 
d="M72 0v487h115v-487h-115zM-41 696h139l88 -148h-95z" />
    <glyph glyph-name="iacute" unicode="&#xed;" horiz-adv-x="259" 
d="M173 548h-95l89 148h137zM72 0v487h115v-487h-115z" />
    <glyph glyph-name="icircumflex" unicode="&#xee;" horiz-adv-x="259" 
d="M-37 549l107 143h121l108 -143h-99l-70 77l-70 -77h-97zM72 0v487h115v-487h-115z" />
    <glyph glyph-name="idieresis" unicode="&#xef;" horiz-adv-x="259" 
d="M-13 625q0 26 17.5 44t43.5 18t44 -18t18 -44t-18 -43.5t-44 -17.5t-43.5 17.5t-17.5 43.5zM149 625q0 26 17.5 44t43.5 18t44 -18t18 -44t-18 -43.5t-44 -17.5t-43.5 17.5t-17.5 43.5zM72 0v487h115v-487h-115z" />
    <glyph glyph-name="eth" unicode="&#xf0;" horiz-adv-x="592" 
d="M422 594q54 -56 88.5 -135.5t34.5 -188.5q0 -59 -16.5 -110.5t-48.5 -90t-79 -61t-108 -22.5q-54 0 -100 18.5t-79.5 50.5t-52.5 76.5t-19 96.5q0 57 20.5 100.5t53.5 73.5t75.5 45.5t86.5 15.5q39 0 73.5 -11t53.5 -33q-14 40 -35.5 71.5t-49.5 57.5l-135 -61l-31 72
l92 42q-28 16 -57 27t-56 19l36 89q42 -11 90.5 -31t96.5 -54l112 51l32 -73zM293 89q27 0 51.5 9t43 27t29.5 44t11 60t-11 60.5t-29.5 44t-43 26.5t-51.5 9t-51.5 -9t-43 -27t-30 -44t-11.5 -60t11.5 -60t30 -44t43 -27t51.5 -9z" />
    <glyph glyph-name="ntilde" unicode="&#xf1;" horiz-adv-x="572" 
d="M188 0h-116v487h113v-65q24 42 63.5 60.5t80.5 18.5q45 0 78 -15t54.5 -41.5t32.5 -61.5t11 -75v-308h-116v288q0 45 -22.5 76.5t-77.5 31.5q-50 0 -75.5 -33.5t-25.5 -81.5v-281zM129 574q0 59 29.5 87t73.5 28q22 0 38.5 -6.5t31.5 -15.5l10 -6q11 -7 21.5 -12t21.5 -5
q31 0 31 44h76v-17q0 -59 -29 -88t-73 -29q-22 0 -39 7t-32 16l-10 6q-11 7 -21.5 11.5t-21.5 4.5q-15 0 -22.5 -10t-7.5 -33h-76z" />
    <glyph glyph-name="ograve" unicode="&#xf2;" horiz-adv-x="587" 
d="M293 89q27 0 51.5 10t43.5 29.5t30 48.5t11 67t-11 66.5t-30 48t-43.5 29t-51.5 9.5t-51.5 -9.5t-43 -29t-30 -48t-11.5 -66.5t11.5 -67t30 -48.5t43 -29.5t51.5 -10zM293 502q55 0 101 -19.5t80 -54t53 -81.5t19 -103t-19 -103.5t-53 -82t-80 -54t-101 -19.5
q-54 0 -100.5 19.5t-80 54t-52.5 82t-19 103.5t19 103t52.5 81.5t80 54t100.5 19.5zM119 696h139l88 -148h-95z" />
    <glyph glyph-name="oacute" unicode="&#xf3;" horiz-adv-x="587" 
d="M331 548h-95l89 148h137zM293 89q27 0 51.5 10t43.5 29.5t30 48.5t11 67t-11 66.5t-30 48t-43.5 29t-51.5 9.5t-51.5 -9.5t-43 -29t-30 -48t-11.5 -66.5t11.5 -67t30 -48.5t43 -29.5t51.5 -10zM293 502q55 0 101 -19.5t80 -54t53 -81.5t19 -103t-19 -103.5t-53 -82
t-80 -54t-101 -19.5q-54 0 -100.5 19.5t-80 54t-52.5 82t-19 103.5t19 103t52.5 81.5t80 54t100.5 19.5z" />
    <glyph glyph-name="ocircumflex" unicode="&#xf4;" horiz-adv-x="587" 
d="M127 549l107 143h121l108 -143h-99l-70 77l-70 -77h-97zM293 89q27 0 51.5 10t43.5 29.5t30 48.5t11 67t-11 66.5t-30 48t-43.5 29t-51.5 9.5t-51.5 -9.5t-43 -29t-30 -48t-11.5 -66.5t11.5 -67t30 -48.5t43 -29.5t51.5 -10zM293 502q55 0 101 -19.5t80 -54t53 -81.5
t19 -103t-19 -103.5t-53 -82t-80 -54t-101 -19.5q-54 0 -100.5 19.5t-80 54t-52.5 82t-19 103.5t19 103t52.5 81.5t80 54t100.5 19.5z" />
    <glyph glyph-name="otilde" unicode="&#xf5;" horiz-adv-x="587" 
d="M293 89q27 0 51.5 10t43.5 29.5t30 48.5t11 67t-11 66.5t-30 48t-43.5 29t-51.5 9.5t-51.5 -9.5t-43 -29t-30 -48t-11.5 -66.5t11.5 -67t30 -48.5t43 -29.5t51.5 -10zM293 502q55 0 101 -19.5t80 -54t53 -81.5t19 -103t-19 -103.5t-53 -82t-80 -54t-101 -19.5
q-54 0 -100.5 19.5t-80 54t-52.5 82t-19 103.5t19 103t52.5 81.5t80 54t100.5 19.5zM129 574q0 59 29.5 87t73.5 28q22 0 38.5 -6.5t31.5 -15.5l10 -6q11 -7 21.5 -12t21.5 -5q31 0 31 44h76v-17q0 -59 -29 -88t-73 -29q-22 0 -39 7t-32 16l-10 6q-11 7 -21.5 11.5
t-21.5 4.5q-15 0 -22.5 -10t-7.5 -33h-76z" />
    <glyph glyph-name="odieresis" unicode="&#xf6;" horiz-adv-x="587" 
d="M128 625q0 27 18.5 46t45.5 19q28 0 47 -19t19 -46q0 -28 -19 -46.5t-47 -18.5q-27 0 -45.5 18.5t-18.5 46.5zM328 625q0 27 18.5 46t45.5 19t46 -19t19 -46q0 -28 -19 -46.5t-46 -18.5t-45.5 18.5t-18.5 46.5zM293 89q27 0 51.5 10t43.5 29.5t30 48.5t11 67t-11 66.5
t-30 48t-43.5 29t-51.5 9.5t-51.5 -9.5t-43 -29t-30 -48t-11.5 -66.5t11.5 -67t30 -48.5t43 -29.5t51.5 -10zM293 502q55 0 101 -19.5t80 -54t53 -81.5t19 -103t-19 -103.5t-53 -82t-80 -54t-101 -19.5q-54 0 -100.5 19.5t-80 54t-52.5 82t-19 103.5t19 103t52.5 81.5t80 54
t100.5 19.5z" />
    <glyph glyph-name="divide" unicode="&#xf7;" horiz-adv-x="571" 
d="M211 168q0 30 21.5 51t51.5 21q29 0 50 -21t21 -51q0 -29 -21 -50.5t-50 -21.5q-30 0 -51.5 21.5t-21.5 50.5zM48 299v99h475v-99h-475zM211 530q0 29 21.5 50t51.5 21q29 0 50 -21t21 -50t-21 -51t-50 -22q-30 0 -51.5 22t-21.5 51z" />
    <glyph glyph-name="oslash" unicode="&#xf8;" horiz-adv-x="587" 
d="M293 502q36 0 68.5 -8.5t60.5 -24.5l52 65l62 -51l-52 -65q29 -34 45.5 -78.5t16.5 -95.5q0 -56 -19 -103.5t-53 -82t-80 -54t-101 -19.5q-38 0 -69 8.5t-57 23.5l-50 -63l-63 51l50 63q-30 34 -46.5 78.5t-16.5 97.5q0 56 19 103t52.5 81.5t80 54t100.5 19.5zM157 244
q0 -49 19 -85l178 224q-30 14 -61 14q-27 0 -51.5 -9.5t-43 -29t-30 -48t-11.5 -66.5zM293 89q27 0 51.5 10t43.5 29.5t30 48.5t11 67q0 24 -5 44.5t-13 37.5l-177 -224q26 -13 59 -13z" />
    <glyph glyph-name="ugrave" unicode="&#xf9;" horiz-adv-x="571" 
d="M389 54q-18 -33 -56.5 -50.5t-81.5 -17.5q-44 0 -78 15t-57.5 41.5t-36 61.5t-12.5 76v307h116v-286q0 -23 5.5 -43t17.5 -35t30.5 -24t44.5 -9q51 0 76.5 30.5t25.5 78.5v288h116v-398q0 -30 1.5 -52.5t3.5 -36.5h-111q-2 8 -3 23.5t-1 30.5zM122 696h139l88 -148h-95z
" />
    <glyph glyph-name="uacute" unicode="&#xfa;" horiz-adv-x="571" 
d="M301 548h-95l89 148h137zM389 54q-18 -33 -56.5 -50.5t-81.5 -17.5q-44 0 -78 15t-57.5 41.5t-36 61.5t-12.5 76v307h116v-286q0 -23 5.5 -43t17.5 -35t30.5 -24t44.5 -9q51 0 76.5 30.5t25.5 78.5v288h116v-398q0 -30 1.5 -52.5t3.5 -36.5h-111q-2 8 -3 23.5t-1 30.5z
" />
    <glyph glyph-name="ucircumflex" unicode="&#xfb;" horiz-adv-x="571" 
d="M116 549l107 143h121l108 -143h-99l-70 77l-70 -77h-97zM389 54q-18 -33 -56.5 -50.5t-81.5 -17.5q-44 0 -78 15t-57.5 41.5t-36 61.5t-12.5 76v307h116v-286q0 -23 5.5 -43t17.5 -35t30.5 -24t44.5 -9q51 0 76.5 30.5t25.5 78.5v288h116v-398q0 -30 1.5 -52.5t3.5 -36.5
h-111q-2 8 -3 23.5t-1 30.5z" />
    <glyph glyph-name="udieresis" unicode="&#xfc;" horiz-adv-x="571" 
d="M119 625q0 27 18.5 46t45.5 19q28 0 47 -19t19 -46q0 -28 -19 -46.5t-47 -18.5q-27 0 -45.5 18.5t-18.5 46.5zM319 625q0 27 18.5 46t45.5 19t46 -19t19 -46q0 -28 -19 -46.5t-46 -18.5t-45.5 18.5t-18.5 46.5zM389 54q-18 -33 -56.5 -50.5t-81.5 -17.5q-44 0 -78 15
t-57.5 41.5t-36 61.5t-12.5 76v307h116v-286q0 -23 5.5 -43t17.5 -35t30.5 -24t44.5 -9q51 0 76.5 30.5t25.5 78.5v288h116v-398q0 -30 1.5 -52.5t3.5 -36.5h-111q-2 8 -3 23.5t-1 30.5z" />
    <glyph glyph-name="yacute" unicode="&#xfd;" horiz-adv-x="551" 
d="M106 -197l117 255l-208 429h131l140 -308l131 308h123l-310 -684h-124zM307 548h-95l89 148h137z" />
    <glyph glyph-name="thorn" unicode="&#xfe;" horiz-adv-x="606" 
d="M72 -190v914h116v-297q20 29 58.5 50t92.5 21t96 -19.5t70.5 -53.5t43.5 -80.5t15 -100.5q0 -55 -16 -101.5t-46 -81t-72.5 -54t-94.5 -19.5q-53 0 -91 19.5t-57 47.5v-245h-115zM448 244q0 69 -36 110t-95 41q-29 0 -53 -11t-41 -30.5t-27 -47.5t-10 -62
q0 -70 37 -111.5t94 -41.5q58 0 94.5 41.5t36.5 111.5z" />
    <glyph glyph-name="ydieresis" unicode="&#xff;" horiz-adv-x="551" 
d="M106 -197l117 255l-208 429h131l140 -308l131 308h123l-310 -684h-124zM115 625q0 27 18.5 46t45.5 19q28 0 47 -19t19 -46q0 -28 -19 -46.5t-47 -18.5q-27 0 -45.5 18.5t-18.5 46.5zM315 625q0 27 18.5 46t45.5 19t46 -19t19 -46q0 -28 -19 -46.5t-46 -18.5t-45.5 18.5
t-18.5 46.5z" />
    <glyph glyph-name="Amacron" unicode="&#x100;" horiz-adv-x="717" 
d="M506 178h-300l-66 -178h-127l276 709h139l276 -709h-131zM248 289h216l-108 290zM206 776v93h300v-93h-300z" />
    <glyph glyph-name="amacron" unicode="&#x101;" horiz-adv-x="531" 
d="M41 132q0 33 11.5 58t31 43.5t46.5 29.5t58 16l125 19q21 3 28.5 12.5t7.5 22.5q0 31 -22 52.5t-70 21.5q-46 0 -71 -25.5t-29 -62.5l-106 24q3 31 19 60t42 51t62.5 35t81.5 13q56 0 95.5 -15t64 -40t36 -58t11.5 -69v-242q0 -33 2.5 -53.5t3.5 -24.5h-108q-1 2 -3 17.5
t-2 44.5q-17 -28 -54 -52.5t-96 -24.5q-38 0 -68.5 12t-52 32.5t-33 47t-11.5 55.5zM228 76q24 0 46 6.5t38.5 21t26.5 38.5t10 60v22l-127 -19q-27 -5 -46 -20.5t-19 -45.5q0 -25 18 -44t53 -19zM122 577v90h278v-90h-278z" />
    <glyph glyph-name="Abreve" unicode="&#x102;" horiz-adv-x="717" 
d="M506 178h-300l-66 -178h-127l276 709h139l276 -709h-131zM248 289h216l-108 290zM357 754q-39 0 -68.5 11.5t-49.5 30t-31 42.5t-12 48h93q2 -19 17.5 -36.5t50.5 -17.5t50.5 17.5t16.5 36.5h93q-1 -24 -11.5 -48t-30.5 -42.5t-49.5 -30t-68.5 -11.5z" />
    <glyph glyph-name="abreve" unicode="&#x103;" horiz-adv-x="531" 
d="M41 132q0 33 11.5 58t31 43.5t46.5 29.5t58 16l125 19q21 3 28.5 12.5t7.5 22.5q0 31 -22 52.5t-70 21.5q-46 0 -71 -25.5t-29 -62.5l-106 24q3 31 19 60t42 51t62.5 35t81.5 13q56 0 95.5 -15t64 -40t36 -58t11.5 -69v-242q0 -33 2.5 -53.5t3.5 -24.5h-108q-1 2 -3 17.5
t-2 44.5q-17 -28 -54 -52.5t-96 -24.5q-38 0 -68.5 12t-52 32.5t-33 47t-11.5 55.5zM228 76q24 0 46 6.5t38.5 21t26.5 38.5t10 60v22l-127 -19q-27 -5 -46 -20.5t-19 -45.5q0 -25 18 -44t53 -19zM257 547q-38 0 -66 12.5t-47.5 33t-29.5 47t-11 54.5h82q2 -22 18 -41.5
t54 -19.5q19 0 32.5 5.5t22.5 14.5t13 19.5t5 21.5h82q-1 -28 -11 -54.5t-29 -47t-48 -33t-67 -12.5z" />
    <glyph glyph-name="Aogonek" unicode="&#x104;" horiz-adv-x="717" 
d="M622 -95q0 -24 15.5 -35t35.5 -11q16 0 31 3v-74q-10 -4 -21.5 -6t-29.5 -2q-25 0 -47 7t-38 20.5t-25 33t-9 43.5q0 45 21.5 72t49.5 44h-32l-67 178h-300l-66 -178h-127l276 709h139l276 -709q-14 -7 -28.5 -16t-26.5 -21t-19.5 -26.5t-7.5 -31.5zM248 289h216
l-108 290z" />
    <glyph glyph-name="aogonek" unicode="&#x105;" horiz-adv-x="531" 
d="M228 76q24 0 46 6.5t38.5 21t26.5 38.5t10 60v22l-127 -19q-27 -5 -46 -20.5t-19 -45.5q0 -25 18 -44t53 -19zM299 -116q0 45 21.5 72t49.5 44h-9q-1 3 -3 18t-2 44q-17 -28 -54 -52.5t-96 -24.5q-38 0 -68.5 12t-52 32.5t-33 47t-11.5 55.5q0 33 11.5 58t31 43.5
t46.5 29.5t58 16l125 19q21 3 28.5 12.5t7.5 22.5q0 31 -22 52.5t-70 21.5q-46 0 -71 -25.5t-29 -62.5l-106 24q3 31 19 60t42 51t62.5 35t81.5 13q56 0 95.5 -15t64 -40t36 -58t11.5 -69v-242q0 -27 2 -45.5t4 -32.5q-14 -7 -28.5 -16t-26.5 -21t-19.5 -26.5t-7.5 -31.5
q0 -24 15.5 -35t35.5 -11q16 0 31 3v-74q-10 -4 -21.5 -6t-29.5 -2q-25 0 -47 7t-38 20.5t-25 33t-9 43.5z" />
    <glyph glyph-name="Cacute" unicode="&#x106;" horiz-adv-x="751" 
d="M402 -15q-72 0 -136.5 25t-114 72.5t-78.5 116t-29 155.5t30 155.5t79.5 116t114 73t133.5 25.5q67 0 121 -18.5t94 -50t66 -73.5t38 -88l-113 -38q-8 32 -24.5 60.5t-42 49.5t-60 33t-79.5 12q-44 0 -86 -16t-75 -48t-53 -80.5t-20 -112.5q0 -62 19.5 -109.5t52.5 -79.5
t75.5 -48.5t87.5 -16.5t80 13t61 35t43.5 50t26.5 58l110 -36q-12 -45 -38 -87.5t-66.5 -75t-94.5 -52.5t-122 -20zM446 759h-109l102 124h149z" />
    <glyph glyph-name="cacute" unicode="&#x107;" horiz-adv-x="549" 
d="M326 548h-95l89 148h137zM291 395q-27 0 -51 -10t-42.5 -29t-29.5 -47t-11 -65t11 -65.5t29.5 -48t43.5 -29.5t52 -10q28 0 49.5 9t36 22.5t23.5 29t13 29.5l102 -37q-9 -29 -27 -57t-45.5 -51t-65.5 -37t-86 -14q-54 0 -100 19.5t-79.5 54.5t-53 82t-19.5 103t19 103.5
t53 82t79 53.5t98 19q49 0 87 -14t66 -36.5t45 -51.5t25 -58l-104 -38q-4 16 -12.5 32.5t-23 29.5t-34.5 21t-48 8z" />
    <glyph glyph-name="Ccircumflex" unicode="&#x108;" horiz-adv-x="751" 
d="M222 759l116 124h129l119 -124h-110l-75 64l-72 -64h-107zM402 -15q-72 0 -136.5 25t-114 72.5t-78.5 116t-29 155.5t30 155.5t79.5 116t114 73t133.5 25.5q67 0 121 -18.5t94 -50t66 -73.5t38 -88l-113 -38q-8 32 -24.5 60.5t-42 49.5t-60 33t-79.5 12q-44 0 -86 -16
t-75 -48t-53 -80.5t-20 -112.5q0 -62 19.5 -109.5t52.5 -79.5t75.5 -48.5t87.5 -16.5t80 13t61 35t43.5 50t26.5 58l110 -36q-12 -45 -38 -87.5t-66.5 -75t-94.5 -52.5t-122 -20z" />
    <glyph glyph-name="ccircumflex" unicode="&#x109;" horiz-adv-x="549" 
d="M122 549l107 143h121l108 -143h-99l-70 77l-70 -77h-97zM291 395q-27 0 -51 -10t-42.5 -29t-29.5 -47t-11 -65t11 -65.5t29.5 -48t43.5 -29.5t52 -10q28 0 49.5 9t36 22.5t23.5 29t13 29.5l102 -37q-9 -29 -27 -57t-45.5 -51t-65.5 -37t-86 -14q-54 0 -100 19.5
t-79.5 54.5t-53 82t-19.5 103t19 103.5t53 82t79 53.5t98 19q49 0 87 -14t66 -36.5t45 -51.5t25 -58l-104 -38q-4 16 -12.5 32.5t-23 29.5t-34.5 21t-48 8z" />
    <glyph glyph-name="Cdotaccent" unicode="&#x10a;" horiz-adv-x="751" 
d="M402 -15q-72 0 -136.5 25t-114 72.5t-78.5 116t-29 155.5t30 155.5t79.5 116t114 73t133.5 25.5q67 0 121 -18.5t94 -50t66 -73.5t38 -88l-113 -38q-8 32 -24.5 60.5t-42 49.5t-60 33t-79.5 12q-44 0 -86 -16t-75 -48t-53 -80.5t-20 -112.5q0 -62 19.5 -109.5t52.5 -79.5
t75.5 -48.5t87.5 -16.5t80 13t61 35t43.5 50t26.5 58l110 -36q-12 -45 -38 -87.5t-66.5 -75t-94.5 -52.5t-122 -20zM327 829q0 31 21.5 52t51.5 21t51.5 -21t21.5 -52q0 -29 -21.5 -50t-51.5 -21t-51.5 21t-21.5 50z" />
    <glyph glyph-name="cdotaccent" unicode="&#x10b;" horiz-adv-x="549" 
d="M291 395q-27 0 -51 -10t-42.5 -29t-29.5 -47t-11 -65t11 -65.5t29.5 -48t43.5 -29.5t52 -10q28 0 49.5 9t36 22.5t23.5 29t13 29.5l102 -37q-9 -29 -27 -57t-45.5 -51t-65.5 -37t-86 -14q-54 0 -100 19.5t-79.5 54.5t-53 82t-19.5 103t19 103.5t53 82t79 53.5t98 19
q49 0 87 -14t66 -36.5t45 -51.5t25 -58l-104 -38q-4 16 -12.5 32.5t-23 29.5t-34.5 21t-48 8zM217 623q0 30 21 51t51 21t51 -21t21 -51q0 -29 -21 -50t-51 -21t-51 21t-21 50z" />
    <glyph glyph-name="Ccaron" unicode="&#x10c;" horiz-adv-x="751" 
d="M328 883l72 -65l75 65h108l-119 -124h-129l-116 124h109zM402 -15q-72 0 -136.5 25t-114 72.5t-78.5 116t-29 155.5t30 155.5t79.5 116t114 73t133.5 25.5q67 0 121 -18.5t94 -50t66 -73.5t38 -88l-113 -38q-8 32 -24.5 60.5t-42 49.5t-60 33t-79.5 12q-44 0 -86 -16
t-75 -48t-53 -80.5t-20 -112.5q0 -62 19.5 -109.5t52.5 -79.5t75.5 -48.5t87.5 -16.5t80 13t61 35t43.5 50t26.5 58l110 -36q-12 -45 -38 -87.5t-66.5 -75t-94.5 -52.5t-122 -20z" />
    <glyph glyph-name="ccaron" unicode="&#x10d;" horiz-adv-x="549" 
d="M213 694l70 -77l70 77h98l-106 -145h-124l-106 145h98zM291 395q-27 0 -51 -10t-42.5 -29t-29.5 -47t-11 -65t11 -65.5t29.5 -48t43.5 -29.5t52 -10q28 0 49.5 9t36 22.5t23.5 29t13 29.5l102 -37q-9 -29 -27 -57t-45.5 -51t-65.5 -37t-86 -14q-54 0 -100 19.5
t-79.5 54.5t-53 82t-19.5 103t19 103.5t53 82t79 53.5t98 19q49 0 87 -14t66 -36.5t45 -51.5t25 -58l-104 -38q-4 16 -12.5 32.5t-23 29.5t-34.5 21t-48 8z" />
    <glyph glyph-name="Dcaron" unicode="&#x10e;" horiz-adv-x="731" 
d="M286 883l72 -65l75 65h108l-119 -124h-129l-116 124h109zM335 110q46 0 87 15t71.5 45t48.5 75.5t18 107.5t-17.5 108.5t-48 77t-71.5 45.5t-87 15h-127v-489h126zM89 0v709h251q72 0 135 -23.5t109.5 -69t73.5 -112t27 -151.5t-27 -151t-74 -111t-110 -68t-135 -23h-250
z" />
    <glyph glyph-name="dcaron" unicode="&#x10f;" horiz-adv-x="601" 
d="M650 535h-80l29 189h119zM157 245q0 -70 35.5 -112.5t95.5 -42.5q28 0 52 11.5t41 32t26.5 49t9.5 63.5q0 70 -35.5 110.5t-92.5 40.5t-94.5 -41t-37.5 -111zM529 89q0 -33 2 -58t3 -31h-111q-2 8 -3.5 28t-1.5 35q-17 -31 -54 -53t-89 -22q-53 0 -96 19.5t-73.5 54
t-47.5 81.5t-17 102q0 52 17 98.5t47.5 81.5t73.5 55t94 20q32 0 56 -6.5t41.5 -17t28.5 -22.5t17 -24v294h113v-635z" />
    <glyph glyph-name="Dcroat" unicode="&#x110;" horiz-adv-x="739" 
d="M97 0v319h-82v93h82v297h251q72 0 135 -23.5t109.5 -69t73.5 -112t27 -151.5t-27 -151t-74 -111t-110 -68t-135 -23h-250zM343 110q46 0 87 15t71.5 45t48.5 75.5t18 107.5t-17.5 108.5t-48 77t-71.5 45.5t-87 15h-127v-187h131v-93h-131v-209h126z" />
    <glyph glyph-name="dcroat" unicode="&#x111;" horiz-adv-x="601" 
d="M157 245q0 -70 35.5 -112.5t95.5 -42.5q28 0 52 11.5t41 32t26.5 49t9.5 63.5q0 70 -35.5 110.5t-92.5 40.5t-94.5 -41t-37.5 -111zM418 63q-17 -31 -54 -53t-89 -22q-53 0 -96 19.5t-73.5 54t-47.5 81.5t-17 102q0 52 17 98.5t47.5 81.5t73.5 55t94 20q32 0 56 -6.5
t41.5 -17t28.5 -22.5t17 -24v123h-123v86h123v85h113v-85h75v-86h-75v-464q0 -33 2 -58t3 -31h-111q-2 8 -3.5 25.5t-1.5 37.5z" />
    <glyph glyph-name="Emacron" unicode="&#x112;" horiz-adv-x="580" 
d="M89 0v709h438v-112h-318v-188h288v-109h-288v-188h318v-112h-438zM156 776v93h300v-93h-300z" />
    <glyph glyph-name="emacron" unicode="&#x113;" horiz-adv-x="557" 
d="M399 297q-1 21 -8.5 40.5t-22.5 34.5t-37 24t-52 9q-27 0 -48.5 -9.5t-36.5 -25t-24 -35t-10 -38.5h239zM510 139q-10 -32 -29 -60t-47 -49t-64 -33t-80 -12q-50 0 -95 17.5t-79 51t-54.5 82t-20.5 110.5q0 58 19.5 105t52.5 80.5t76 52t89 18.5q56 0 100.5 -18t75 -51
t46.5 -79.5t16 -104.5q0 -14 -1 -24.5t-2 -12.5h-356q1 -28 12 -51t29 -40t41.5 -26.5t50.5 -9.5q53 0 81.5 24.5t40.5 60.5zM145 577v90h278v-90h-278z" />
    <glyph glyph-name="Ebreve" unicode="&#x114;" horiz-adv-x="580" 
d="M89 0v709h438v-112h-318v-188h288v-109h-288v-188h318v-112h-438zM307 754q-39 0 -68.5 11.5t-49.5 30t-31 42.5t-12 48h93q2 -19 17.5 -36.5t50.5 -17.5t50.5 17.5t16.5 36.5h93q-1 -24 -11.5 -48t-30.5 -42.5t-49.5 -30t-68.5 -11.5z" />
    <glyph glyph-name="ebreve" unicode="&#x115;" horiz-adv-x="557" 
d="M399 297q-1 21 -8.5 40.5t-22.5 34.5t-37 24t-52 9q-27 0 -48.5 -9.5t-36.5 -25t-24 -35t-10 -38.5h239zM510 139q-10 -32 -29 -60t-47 -49t-64 -33t-80 -12q-50 0 -95 17.5t-79 51t-54.5 82t-20.5 110.5q0 58 19.5 105t52.5 80.5t76 52t89 18.5q56 0 100.5 -18t75 -51
t46.5 -79.5t16 -104.5q0 -14 -1 -24.5t-2 -12.5h-356q1 -28 12 -51t29 -40t41.5 -26.5t50.5 -9.5q53 0 81.5 24.5t40.5 60.5zM283 547q-38 0 -66 12.5t-47.5 33t-29.5 47t-11 54.5h82q2 -22 18 -41.5t54 -19.5q19 0 32.5 5.5t22.5 14.5t13 19.5t5 21.5h82q-1 -28 -11 -54.5
t-29 -47t-48 -33t-67 -12.5z" />
    <glyph glyph-name="Edotaccent" unicode="&#x116;" horiz-adv-x="580" 
d="M235 826q0 31 21.5 52t51.5 21t51.5 -21t21.5 -52q0 -29 -21.5 -50t-51.5 -21t-51.5 21t-21.5 50zM89 0v709h438v-112h-318v-188h288v-109h-288v-188h318v-112h-438z" />
    <glyph glyph-name="edotaccent" unicode="&#x117;" horiz-adv-x="557" 
d="M399 297q-1 21 -8.5 40.5t-22.5 34.5t-37 24t-52 9q-27 0 -48.5 -9.5t-36.5 -25t-24 -35t-10 -38.5h239zM510 139q-10 -32 -29 -60t-47 -49t-64 -33t-80 -12q-50 0 -95 17.5t-79 51t-54.5 82t-20.5 110.5q0 58 19.5 105t52.5 80.5t76 52t89 18.5q56 0 100.5 -18t75 -51
t46.5 -79.5t16 -104.5q0 -14 -1 -24.5t-2 -12.5h-356q1 -28 12 -51t29 -40t41.5 -26.5t50.5 -9.5q53 0 81.5 24.5t40.5 60.5zM213 622q0 30 21 51t51 21t51 -21t21 -51q0 -29 -21 -50t-51 -21t-51 21t-21 50z" />
    <glyph glyph-name="Eogonek" unicode="&#x118;" horiz-adv-x="580" 
d="M527 0q-14 -7 -28.5 -16t-26.5 -21t-19.5 -26.5t-7.5 -31.5q0 -24 15.5 -35t35.5 -11q16 0 31 3v-74q-10 -4 -21.5 -6t-29.5 -2q-25 0 -47 7t-38 20.5t-25 33t-9 43.5q0 45 22 72t49 44h-339v709h438v-112h-318v-188h288v-109h-288v-188h318v-112z" />
    <glyph glyph-name="eogonek" unicode="&#x119;" horiz-adv-x="557" 
d="M510 139q-15 -48 -51 -86t-89 -56q-34 -11 -54 -34t-20 -53q0 -26 15 -38t36 -12q17 0 31 3v-74q-10 -4 -21.5 -6t-29.5 -2q-25 0 -47 7t-38 20.5t-25 33t-9 43.5q0 35 15 60t36 42q-44 5 -83.5 25t-69.5 53t-47.5 78.5t-17.5 102.5q0 58 19.5 105t52.5 80.5t76 52
t89 18.5q56 0 100.5 -18t75 -51t46.5 -79.5t16 -104.5q0 -14 -1 -24.5t-2 -12.5h-356q1 -28 12 -51t29 -40t41.5 -26.5t50.5 -9.5q53 0 81.5 24.5t40.5 60.5zM399 297q-1 21 -8.5 40.5t-22.5 34.5t-37 24t-52 9q-27 0 -48.5 -9.5t-36.5 -25t-24 -35t-10 -38.5h239z" />
    <glyph glyph-name="Ecaron" unicode="&#x11a;" horiz-adv-x="580" 
d="M240 883l72 -65l75 65h108l-119 -124h-129l-116 124h109zM89 0v709h438v-112h-318v-188h288v-109h-288v-188h318v-112h-438z" />
    <glyph glyph-name="ecaron" unicode="&#x11b;" horiz-adv-x="557" 
d="M213 694l70 -77l70 77h98l-106 -145h-124l-106 145h98zM399 297q-1 21 -8.5 40.5t-22.5 34.5t-37 24t-52 9q-27 0 -48.5 -9.5t-36.5 -25t-24 -35t-10 -38.5h239zM510 139q-10 -32 -29 -60t-47 -49t-64 -33t-80 -12q-50 0 -95 17.5t-79 51t-54.5 82t-20.5 110.5
q0 58 19.5 105t52.5 80.5t76 52t89 18.5q56 0 100.5 -18t75 -51t46.5 -79.5t16 -104.5q0 -14 -1 -24.5t-2 -12.5h-356q1 -28 12 -51t29 -40t41.5 -26.5t50.5 -9.5q53 0 81.5 24.5t40.5 60.5z" />
    <glyph glyph-name="Gcircumflex" unicode="&#x11c;" horiz-adv-x="776" 
d="M219 759l116 124h129l119 -124h-110l-75 64l-72 -64h-107zM619 0l-9 90q-12 -20 -31.5 -38.5t-46.5 -33.5t-62 -24t-77 -9q-69 0 -132.5 25t-111.5 72.5t-76.5 116t-28.5 156.5q0 87 30 156t79.5 116t114 72t133.5 25q64 0 117 -17.5t93.5 -47t68 -68.5t41.5 -83
l-113 -43q-9 30 -26.5 57t-43.5 47t-60.5 32t-76.5 12q-43 0 -85 -15.5t-75.5 -47.5t-54 -80.5t-20.5 -114.5q0 -65 19.5 -113.5t52 -81t74.5 -49t88 -16.5q54 0 91.5 16.5t61.5 40.5t36 51.5t14 50.5h-234v105h347v-359h-97z" />
    <glyph glyph-name="gcircumflex" unicode="&#x11d;" horiz-adv-x="595" 
d="M122 549l107 143h121l108 -143h-99l-70 77l-70 -77h-97zM148 1q6 -45 38.5 -75t83.5 -30q138 0 138 146v51q-16 -29 -51.5 -50t-89.5 -21q-49 0 -90 18t-71 49.5t-47 75t-17 94.5q0 49 16.5 92t46 75t71 51t91.5 19q57 0 92.5 -20.5t51.5 -50.5v62h112v-441
q0 -49 -13.5 -94t-43 -80t-77 -56t-116.5 -21q-48 0 -88.5 14t-71 38t-49 56.5t-23.5 69.5zM286 121q56 0 90.5 37.5t34.5 100.5q0 31 -9.5 56.5t-26 43.5t-39.5 27.5t-50 9.5q-56 0 -91.5 -37t-35.5 -100q0 -64 35 -101t92 -37z" />
    <glyph glyph-name="Gbreve" unicode="&#x11e;" horiz-adv-x="776" 
d="M397 754q-39 0 -68.5 11.5t-49.5 30t-31 42.5t-12 48h93q2 -19 17.5 -36.5t50.5 -17.5t50.5 17.5t16.5 36.5h93q-1 -24 -11.5 -48t-30.5 -42.5t-49.5 -30t-68.5 -11.5zM619 0l-9 90q-12 -20 -31.5 -38.5t-46.5 -33.5t-62 -24t-77 -9q-69 0 -132.5 25t-111.5 72.5
t-76.5 116t-28.5 156.5q0 87 30 156t79.5 116t114 72t133.5 25q64 0 117 -17.5t93.5 -47t68 -68.5t41.5 -83l-113 -43q-9 30 -26.5 57t-43.5 47t-60.5 32t-76.5 12q-43 0 -85 -15.5t-75.5 -47.5t-54 -80.5t-20.5 -114.5q0 -65 19.5 -113.5t52 -81t74.5 -49t88 -16.5
q54 0 91.5 16.5t61.5 40.5t36 51.5t14 50.5h-234v105h347v-359h-97z" />
    <glyph glyph-name="gbreve" unicode="&#x11f;" horiz-adv-x="595" 
d="M148 1q6 -45 38.5 -75t83.5 -30q138 0 138 146v51q-16 -29 -51.5 -50t-89.5 -21q-49 0 -90 18t-71 49.5t-47 75t-17 94.5q0 49 16.5 92t46 75t71 51t91.5 19q57 0 92.5 -20.5t51.5 -50.5v62h112v-441q0 -49 -13.5 -94t-43 -80t-77 -56t-116.5 -21q-48 0 -88.5 14t-71 38
t-49 56.5t-23.5 69.5zM286 121q56 0 90.5 37.5t34.5 100.5q0 31 -9.5 56.5t-26 43.5t-39.5 27.5t-50 9.5q-56 0 -91.5 -37t-35.5 -100q0 -64 35 -101t92 -37zM283 547q-38 0 -66 12.5t-47.5 33t-29.5 47t-11 54.5h82q2 -22 18 -41.5t54 -19.5q19 0 32.5 5.5t22.5 14.5
t13 19.5t5 21.5h82q-1 -28 -11 -54.5t-29 -47t-48 -33t-67 -12.5z" />
    <glyph glyph-name="Gdotaccent" unicode="&#x120;" horiz-adv-x="776" 
d="M327 828q0 31 21.5 52t51.5 21t51.5 -21t21.5 -52q0 -29 -21.5 -50t-51.5 -21t-51.5 21t-21.5 50zM619 0l-9 90q-12 -20 -31.5 -38.5t-46.5 -33.5t-62 -24t-77 -9q-69 0 -132.5 25t-111.5 72.5t-76.5 116t-28.5 156.5q0 87 30 156t79.5 116t114 72t133.5 25
q64 0 117 -17.5t93.5 -47t68 -68.5t41.5 -83l-113 -43q-9 30 -26.5 57t-43.5 47t-60.5 32t-76.5 12q-43 0 -85 -15.5t-75.5 -47.5t-54 -80.5t-20.5 -114.5q0 -65 19.5 -113.5t52 -81t74.5 -49t88 -16.5q54 0 91.5 16.5t61.5 40.5t36 51.5t14 50.5h-234v105h347v-359h-97z
" />
    <glyph glyph-name="gdotaccent" unicode="&#x121;" horiz-adv-x="595" 
d="M148 1q6 -45 38.5 -75t83.5 -30q138 0 138 146v51q-16 -29 -51.5 -50t-89.5 -21q-49 0 -90 18t-71 49.5t-47 75t-17 94.5q0 49 16.5 92t46 75t71 51t91.5 19q57 0 92.5 -20.5t51.5 -50.5v62h112v-441q0 -49 -13.5 -94t-43 -80t-77 -56t-116.5 -21q-48 0 -88.5 14t-71 38
t-49 56.5t-23.5 69.5zM286 121q56 0 90.5 37.5t34.5 100.5q0 31 -9.5 56.5t-26 43.5t-39.5 27.5t-50 9.5q-56 0 -91.5 -37t-35.5 -100q0 -64 35 -101t92 -37zM209 622q0 30 21 51t51 21t51 -21t21 -51q0 -29 -21 -50t-51 -21t-51 21t-21 50z" />
    <glyph glyph-name="Gcommaaccent" unicode="&#x122;" horiz-adv-x="776" 
d="M333 -97q0 25 19.5 42t47.5 17t51 -20.5t23 -60.5q0 -34 -12.5 -57t-31 -37t-41.5 -20t-44 -6v44q32 0 51.5 14.5t21.5 33.5q-2 -2 -8.5 -4.5t-16.5 -2.5q-27 0 -43.5 15.5t-16.5 41.5zM619 0l-9 90q-12 -20 -31.5 -38.5t-46.5 -33.5t-62 -24t-77 -9q-69 0 -132.5 25
t-111.5 72.5t-76.5 116t-28.5 156.5q0 87 30 156t79.5 116t114 72t133.5 25q64 0 117 -17.5t93.5 -47t68 -68.5t41.5 -83l-113 -43q-9 30 -26.5 57t-43.5 47t-60.5 32t-76.5 12q-43 0 -85 -15.5t-75.5 -47.5t-54 -80.5t-20.5 -114.5q0 -65 19.5 -113.5t52 -81t74.5 -49
t88 -16.5q54 0 91.5 16.5t61.5 40.5t36 51.5t14 50.5h-234v105h347v-359h-97z" />
    <glyph glyph-name="gcommaaccent" unicode="&#x123;" horiz-adv-x="595" 
d="M346 596q0 -26 -19 -42t-48 -16q-27 0 -50.5 20.5t-23.5 59.5q0 32 12.5 54.5t31.5 37t41.5 21.5t43.5 7v-44q-32 0 -51.5 -15t-21.5 -32q2 2 8.5 4.5t16.5 2.5q28 0 44 -16t16 -42zM148 1q6 -45 38.5 -75t83.5 -30q138 0 138 146v51q-16 -29 -51.5 -50t-89.5 -21
q-49 0 -90 18t-71 49.5t-47 75t-17 94.5q0 49 16.5 92t46 75t71 51t91.5 19q57 0 92.5 -20.5t51.5 -50.5v62h112v-441q0 -49 -13.5 -94t-43 -80t-77 -56t-116.5 -21q-48 0 -88.5 14t-71 38t-49 56.5t-23.5 69.5zM286 121q56 0 90.5 37.5t34.5 100.5q0 31 -9.5 56.5t-26 43.5
t-39.5 27.5t-50 9.5q-56 0 -91.5 -37t-35.5 -100q0 -64 35 -101t92 -37z" />
    <glyph glyph-name="Hcircumflex" unicode="&#x124;" horiz-adv-x="752" 
d="M542 0v303h-333v-303h-120v709h120v-293h333v293h121v-709h-121zM194 759l116 124h129l119 -124h-110l-75 64l-72 -64h-107z" />
    <glyph glyph-name="hcircumflex" unicode="&#x125;" horiz-adv-x="572" 
d="M109 769l116 124h129l119 -124h-110l-75 64l-72 -64h-107zM188 0h-116v724h116v-284q25 32 63 46.5t76 14.5q45 0 78.5 -15t55.5 -41.5t33 -61.5t11 -75v-308h-116v288q0 45 -22.5 76.5t-77.5 31.5q-48 0 -73.5 -31.5t-27.5 -78.5v-286z" />
    <glyph glyph-name="Hbar" unicode="&#x126;" horiz-adv-x="757" 
d="M545 0v303h-333v-303h-120v515h-72v82h72v112h120v-112h333v112h121v-112h71v-82h-71v-515h-121zM545 416v99h-333v-99h333z" />
    <glyph glyph-name="hbar" unicode="&#x127;" horiz-adv-x="572" 
d="M188 0h-116v554h-83v87h83v83h116v-83h115v-87h-115v-114q25 32 63 46.5t76 14.5q45 0 78.5 -15t55.5 -41.5t33 -61.5t11 -75v-308h-116v288q0 45 -22.5 76.5t-77.5 31.5q-48 0 -73.5 -31.5t-27.5 -78.5v-286z" />
    <glyph glyph-name="Itilde" unicode="&#x128;" horiz-adv-x="300" 
d="M89 0v709h122v-709h-122zM319 863q0 -55 -28.5 -82.5t-70.5 -27.5q-22 0 -40 7t-33 16l-10 7q-12 8 -23 12.5t-22 4.5t-20.5 -8t-9.5 -25v-10h-75v22q0 56 29 83t71 27q22 0 40.5 -7t33.5 -16l10 -6q12 -7 22.5 -12t20.5 -5q13 0 22 7.5t9 25.5v10h74v-23z" />
    <glyph glyph-name="itilde" unicode="&#x129;" horiz-adv-x="259" 
d="M72 0v487h115v-487h-115zM-36 574q0 59 29.5 87t73.5 28q22 0 38.5 -6.5t31.5 -15.5l10 -6q11 -7 21.5 -12t21.5 -5q31 0 31 44h76v-17q0 -59 -29 -88t-73 -29q-22 0 -39 7t-32 16l-10 6q-11 7 -21.5 11.5t-21.5 4.5q-15 0 -22.5 -10t-7.5 -33h-76z" />
    <glyph glyph-name="Imacron" unicode="&#x12a;" horiz-adv-x="300" 
d="M89 0v709h122v-709h-122zM2 776v93h300v-93h-300z" />
    <glyph glyph-name="imacron" unicode="&#x12b;" horiz-adv-x="259" 
d="M72 0v487h115v-487h-115zM-8 577v90h278v-90h-278z" />
    <glyph glyph-name="Ibreve" unicode="&#x12c;" horiz-adv-x="300" 
d="M89 0v709h122v-709h-122zM152 754q-39 0 -68.5 11.5t-49.5 30t-31 42.5t-12 48h93q2 -19 17.5 -36.5t50.5 -17.5t50.5 17.5t16.5 36.5h93q-1 -24 -11.5 -48t-30.5 -42.5t-49.5 -30t-68.5 -11.5z" />
    <glyph glyph-name="ibreve" unicode="&#x12d;" horiz-adv-x="259" 
d="M72 0v487h115v-487h-115zM130 547q-38 0 -66 12.5t-47.5 33t-29.5 47t-11 54.5h82q2 -22 18 -41.5t54 -19.5q19 0 32.5 5.5t22.5 14.5t13 19.5t5 21.5h82q-1 -28 -11 -54.5t-29 -47t-48 -33t-67 -12.5z" />
    <glyph glyph-name="Iogonek" unicode="&#x12e;" horiz-adv-x="300" 
d="M41 -116q0 45 21.5 72t49.5 44h-23v709h122v-709q-14 -7 -28.5 -16t-26.5 -21t-19.5 -26.5t-7.5 -31.5q0 -24 15.5 -35t35.5 -11q16 0 31 3v-74q-10 -4 -21.5 -6t-29.5 -2q-25 0 -47 7t-38 20.5t-25 33t-9 43.5z" />
    <glyph glyph-name="iogonek" unicode="&#x12f;" horiz-adv-x="259" 
d="M54 658q0 32 22 54t53 22q32 0 54 -22t22 -54t-22 -53.5t-54 -21.5q-31 0 -53 21.5t-22 53.5zM17 -116q0 45 21.5 72t49.5 44h-16v487h115v-487q-14 -7 -28.5 -16t-26.5 -21t-19.5 -26.5t-7.5 -31.5q0 -24 15.5 -35t35.5 -11q16 0 31 3v-74q-10 -4 -21.5 -6t-29.5 -2
q-25 0 -47 7t-38 20.5t-25 33t-9 43.5z" />
    <glyph glyph-name="Idotaccent" unicode="&#x130;" horiz-adv-x="300" 
d="M89 0v709h122v-709h-122zM77 826q0 31 21.5 52t51.5 21t51.5 -21t21.5 -52q0 -29 -21.5 -50t-51.5 -21t-51.5 21t-21.5 50z" />
    <glyph glyph-name="dotlessi" unicode="&#x131;" horiz-adv-x="259" 
d="M72 0v487h115v-487h-115z" />
    <glyph glyph-name="IJ" unicode="&#x132;" horiz-adv-x="616" 
d="M82 305v404h122v-404h-122zM204 235v-17q0 -63 29 -91.5t77 -28.5t75.5 30.5t27.5 84.5v496h121v-493q0 -47 -16 -89t-45 -73.5t-70 -50t-92 -18.5q-53 0 -95 16.5t-72 46.5t-46 72t-16 94z" />
    <glyph glyph-name="ij" unicode="&#x133;" horiz-adv-x="519" 
d="M72 0v487h115v-487h-115zM54 658q0 32 22 54t53 22q32 0 54 -22t22 -54t-22 -53.5t-54 -21.5q-31 0 -53 21.5t-22 53.5zM331 487h116v-536q0 -34 -10 -62.5t-29 -49.5t-45.5 -32.5t-60.5 -11.5q-29 0 -45.5 3.5t-20.5 5.5v96q4 -1 14.5 -2t20.5 -1q33 0 46.5 16.5
t13.5 46.5v527zM313 659q0 32 22 54t53 22q32 0 54 -22t22 -54q0 -31 -22 -53t-54 -22q-31 0 -53 22t-22 53z" />
    <glyph glyph-name="Jcircumflex" unicode="&#x134;" horiz-adv-x="556" 
d="M233 759l116 124h129l119 -124h-110l-75 64l-72 -64h-107zM24 260l117 24v-66q0 -63 31 -91.5t78 -28.5q48 0 76 30.5t28 84.5v496h120v-493q0 -47 -16 -89t-45 -73.5t-70 -50t-92 -18.5q-52 0 -94 16.5t-71.5 46.5t-45.5 72t-16 94v46z" />
    <glyph glyph-name="jcircumflex" unicode="&#x135;" horiz-adv-x="260" 
d="M-38 549l107 143h121l108 -143h-99l-70 77l-70 -77h-97zM72 487h116v-536q0 -34 -10 -62.5t-29 -49.5t-45.5 -32.5t-60.5 -11.5q-29 0 -45.5 3.5t-20.5 5.5v96q4 -1 14.5 -2t20.5 -1q33 0 46.5 16.5t13.5 46.5v527z" />
    <glyph glyph-name="Kcommaaccent" unicode="&#x136;" horiz-adv-x="677" 
d="M303 307l-94 -103v-204h-120v709h120v-340l305 340h158l-287 -313l290 -396h-151zM297 -94q0 25 19.5 42t47.5 17t51 -20.5t23 -60.5q0 -34 -12.5 -57t-31 -37t-41.5 -20t-44 -6v44q32 0 51.5 14.5t21.5 33.5q-2 -2 -8.5 -4.5t-16.5 -2.5q-27 0 -43.5 15.5t-16.5 41.5z
" />
    <glyph glyph-name="kcommaaccent" unicode="&#x137;" horiz-adv-x="544" 
d="M328 281l204 -281h-142l-143 199l-60 -63v-136h-115v724h115v-434l187 197h154zM228 -96q0 25 19.5 42t47.5 17t51 -20.5t23 -60.5q0 -34 -12.5 -57t-31 -37t-41.5 -20t-44 -6v44q32 0 51.5 14.5t21.5 33.5q-2 -2 -8.5 -4.5t-16.5 -2.5q-27 0 -43.5 15.5t-16.5 41.5z" />
    <glyph glyph-name="kgreenlandic" unicode="&#x138;" horiz-adv-x="544" 
d="M328 281l204 -281h-142l-143 199l-60 -63v-136h-115v487h115v-197l187 197h154z" />
    <glyph glyph-name="Lacute" unicode="&#x139;" horiz-adv-x="551" 
d="M207 759h-109l102 124h149zM89 0v709h120v-595h325v-114h-445z" />
    <glyph glyph-name="lacute" unicode="&#x13a;" horiz-adv-x="260" 
d="M181 769h-109l102 124h149zM72 0v724h116v-724h-116z" />
    <glyph glyph-name="Lcommaaccent" unicode="&#x13b;" horiz-adv-x="551" 
d="M89 0v709h120v-595h325v-114h-445zM249 -96q0 25 19.5 42t47.5 17t51 -20.5t23 -60.5q0 -34 -12.5 -57t-31 -37t-41.5 -20t-44 -6v44q32 0 51.5 14.5t21.5 33.5q-2 -2 -8.5 -4.5t-16.5 -2.5q-27 0 -43.5 15.5t-16.5 41.5z" />
    <glyph glyph-name="lcommaaccent" unicode="&#x13c;" horiz-adv-x="260" 
d="M72 0v724h116v-724h-116zM59 -96q0 25 19.5 42t47.5 17t51 -20.5t23 -60.5q0 -34 -12.5 -57t-31 -37t-41.5 -20t-44 -6v44q32 0 51.5 14.5t21.5 33.5q-2 -2 -8.5 -4.5t-16.5 -2.5q-27 0 -43.5 15.5t-16.5 41.5z" />
    <glyph glyph-name="Lcaron" unicode="&#x13d;" horiz-adv-x="551" 
d="M387 559h-85l31 200h126zM89 0v709h120v-595h325v-114h-445z" />
    <glyph glyph-name="lcaron" unicode="&#x13e;" horiz-adv-x="260" 
d="M303 535h-80l29 189h119zM72 0v724h116v-724h-116z" />
    <glyph glyph-name="Ldot" unicode="&#x13f;" horiz-adv-x="551" 
d="M301 390q0 29 21 49.5t50 20.5t50 -20.5t21 -49.5t-21 -49.5t-50 -20.5t-50 20.5t-21 49.5zM89 0v709h120v-595h325v-114h-445z" />
    <glyph glyph-name="ldot" unicode="&#x140;" horiz-adv-x="377" 
d="M72 0v724h116v-724h-116zM242 322q0 30 21 51t51 21t51 -21t21 -51q0 -29 -21 -50t-51 -21t-51 21t-21 50z" />
    <glyph glyph-name="Lslash" unicode="&#x141;" horiz-adv-x="571" 
d="M109 0v273l-94 -42v100l94 42v336h120v-282l159 71v-100l-159 -71v-213h325v-114h-445z" />
    <glyph glyph-name="lslash" unicode="&#x142;" horiz-adv-x="358" 
d="M122 0v264l-87 -39v101l87 39v359h116v-307l90 40v-100l-90 -41v-316h-116z" />
    <glyph glyph-name="Nacute" unicode="&#x143;" horiz-adv-x="773" 
d="M409 759h-109l102 124h149zM559 0l-350 537v-537h-120v709h153l322 -503v503h120v-709h-125z" />
    <glyph glyph-name="nacute" unicode="&#x144;" horiz-adv-x="572" 
d="M307 548h-95l89 148h137zM188 0h-116v487h113v-65q24 42 63.5 60.5t80.5 18.5q45 0 78 -15t54.5 -41.5t32.5 -61.5t11 -75v-308h-116v288q0 45 -22.5 76.5t-77.5 31.5q-50 0 -75.5 -33.5t-25.5 -81.5v-281z" />
    <glyph glyph-name="Ncommaaccent" unicode="&#x145;" horiz-adv-x="773" 
d="M334 -96q0 25 19.5 42t47.5 17t51 -20.5t23 -60.5q0 -34 -12.5 -57t-31 -37t-41.5 -20t-44 -6v44q32 0 51.5 14.5t21.5 33.5q-2 -2 -8.5 -4.5t-16.5 -2.5q-27 0 -43.5 15.5t-16.5 41.5zM559 0l-350 537v-537h-120v709h153l322 -503v503h120v-709h-125z" />
    <glyph glyph-name="ncommaaccent" unicode="&#x146;" horiz-adv-x="572" 
d="M224 -95q0 25 19.5 42t47.5 17t51 -20.5t23 -60.5q0 -34 -12.5 -57t-31 -37t-41.5 -20t-44 -6v44q32 0 51.5 14.5t21.5 33.5q-2 -2 -8.5 -4.5t-16.5 -2.5q-27 0 -43.5 15.5t-16.5 41.5zM188 0h-116v487h113v-65q24 42 63.5 60.5t80.5 18.5q45 0 78 -15t54.5 -41.5
t32.5 -61.5t11 -75v-308h-116v288q0 45 -22.5 76.5t-77.5 31.5q-50 0 -75.5 -33.5t-25.5 -81.5v-281z" />
    <glyph glyph-name="Ncaron" unicode="&#x147;" horiz-adv-x="773" 
d="M314 883l72 -65l75 65h108l-119 -124h-129l-116 124h109zM559 0l-350 537v-537h-120v709h153l322 -503v503h120v-709h-125z" />
    <glyph glyph-name="ncaron" unicode="&#x148;" horiz-adv-x="572" 
d="M205 694l70 -77l70 77h98l-106 -145h-124l-106 145h98zM188 0h-116v487h113v-65q24 42 63.5 60.5t80.5 18.5q45 0 78 -15t54.5 -41.5t32.5 -61.5t11 -75v-308h-116v288q0 45 -22.5 76.5t-77.5 31.5q-50 0 -75.5 -33.5t-25.5 -81.5v-281z" />
    <glyph glyph-name="napostrophe" unicode="&#x149;" horiz-adv-x="572" 
d="M60 672q0 26 19.5 42.5t47.5 16.5q29 0 51.5 -20.5t22.5 -59.5q0 -36 -12.5 -59t-31.5 -37t-41.5 -19.5t-43.5 -5.5v45q32 0 51.5 13t21.5 33q-2 -1 -8.5 -3.5t-16.5 -2.5q-27 0 -43.5 15.5t-16.5 41.5zM188 0h-116v487h113v-65q24 42 63.5 60.5t80.5 18.5q45 0 78 -15
t54.5 -41.5t32.5 -61.5t11 -75v-308h-116v288q0 45 -22.5 76.5t-77.5 31.5q-50 0 -75.5 -33.5t-25.5 -81.5v-281z" />
    <glyph glyph-name="Eng" unicode="&#x14a;" horiz-adv-x="773" 
d="M209 537v-537h-120v709h153l322 -501v501h120v-750q0 -70 -40 -114t-109 -44q-30 0 -47 4t-22 6v97q7 -2 17 -3t21 -1q35 0 47.5 16t12.5 45v28z" />
    <glyph glyph-name="eng" unicode="&#x14b;" horiz-adv-x="572" 
d="M188 0h-116v487h113v-65q24 42 63.5 60.5t80.5 18.5q45 0 78 -15t54.5 -41.5t32.5 -61.5t11 -75v-355q0 -35 -10.5 -63.5t-29.5 -49t-46 -32t-61 -11.5q-29 0 -46 3.5t-21 5.5v95q5 -1 14 -2t23 -1q34 0 47.5 17t13.5 47v326q0 45 -22.5 76.5t-77.5 31.5
q-50 0 -75.5 -33.5t-25.5 -81.5v-281z" />
    <glyph glyph-name="Omacron" unicode="&#x14c;" horiz-adv-x="809" 
d="M167 355q0 -64 20.5 -112t53.5 -80t75.5 -48t87.5 -16t88 16t76 48t53.5 80t20.5 112t-20.5 112t-53.5 80t-76 48t-88 16t-87.5 -16t-75.5 -48t-53.5 -80t-20.5 -112zM44 355q0 87 30 155.5t80 116t115 72.5t135 25t135 -25t115 -72.5t80.5 -116t30.5 -155.5t-30.5 -156
t-80.5 -116.5t-115 -72.5t-135 -25t-135 25t-115 72.5t-80 116.5t-30 156zM254 776v93h300v-93h-300z" />
    <glyph glyph-name="omacron" unicode="&#x14d;" horiz-adv-x="587" 
d="M155 577v90h278v-90h-278zM293 89q27 0 51.5 10t43.5 29.5t30 48.5t11 67t-11 66.5t-30 48t-43.5 29t-51.5 9.5t-51.5 -9.5t-43 -29t-30 -48t-11.5 -66.5t11.5 -67t30 -48.5t43 -29.5t51.5 -10zM293 502q55 0 101 -19.5t80 -54t53 -81.5t19 -103t-19 -103.5t-53 -82
t-80 -54t-101 -19.5q-54 0 -100.5 19.5t-80 54t-52.5 82t-19 103.5t19 103t52.5 81.5t80 54t100.5 19.5z" />
    <glyph glyph-name="Obreve" unicode="&#x14e;" horiz-adv-x="809" 
d="M410 754q-39 0 -68.5 11.5t-49.5 30t-31 42.5t-12 48h93q2 -19 17.5 -36.5t50.5 -17.5t50.5 17.5t16.5 36.5h93q-1 -24 -11.5 -48t-30.5 -42.5t-49.5 -30t-68.5 -11.5zM167 355q0 -64 20.5 -112t53.5 -80t75.5 -48t87.5 -16t88 16t76 48t53.5 80t20.5 112t-20.5 112
t-53.5 80t-76 48t-88 16t-87.5 -16t-75.5 -48t-53.5 -80t-20.5 -112zM44 355q0 87 30 155.5t80 116t115 72.5t135 25t135 -25t115 -72.5t80.5 -116t30.5 -155.5t-30.5 -156t-80.5 -116.5t-115 -72.5t-135 -25t-135 25t-115 72.5t-80 116.5t-30 156z" />
    <glyph glyph-name="obreve" unicode="&#x14f;" horiz-adv-x="587" 
d="M293 89q27 0 51.5 10t43.5 29.5t30 48.5t11 67t-11 66.5t-30 48t-43.5 29t-51.5 9.5t-51.5 -9.5t-43 -29t-30 -48t-11.5 -66.5t11.5 -67t30 -48.5t43 -29.5t51.5 -10zM293 502q55 0 101 -19.5t80 -54t53 -81.5t19 -103t-19 -103.5t-53 -82t-80 -54t-101 -19.5
q-54 0 -100.5 19.5t-80 54t-52.5 82t-19 103.5t19 103t52.5 81.5t80 54t100.5 19.5zM293 547q-38 0 -66 12.5t-47.5 33t-29.5 47t-11 54.5h82q2 -22 18 -41.5t54 -19.5q19 0 32.5 5.5t22.5 14.5t13 19.5t5 21.5h82q-1 -28 -11 -54.5t-29 -47t-48 -33t-67 -12.5z" />
    <glyph glyph-name="Ohungarumlaut" unicode="&#x150;" horiz-adv-x="809" 
d="M358 759h-79l56 124h118zM508 759h-80l69 124h118zM167 355q0 -64 20.5 -112t53.5 -80t75.5 -48t87.5 -16t88 16t76 48t53.5 80t20.5 112t-20.5 112t-53.5 80t-76 48t-88 16t-87.5 -16t-75.5 -48t-53.5 -80t-20.5 -112zM44 355q0 87 30 155.5t80 116t115 72.5t135 25
t135 -25t115 -72.5t80.5 -116t30.5 -155.5t-30.5 -156t-80.5 -116.5t-115 -72.5t-135 -25t-135 25t-115 72.5t-80 116.5t-30 156z" />
    <glyph glyph-name="ohungarumlaut" unicode="&#x151;" horiz-adv-x="587" 
d="M293 89q27 0 51.5 10t43.5 29.5t30 48.5t11 67t-11 66.5t-30 48t-43.5 29t-51.5 9.5t-51.5 -9.5t-43 -29t-30 -48t-11.5 -66.5t11.5 -67t30 -48.5t43 -29.5t51.5 -10zM293 502q55 0 101 -19.5t80 -54t53 -81.5t19 -103t-19 -103.5t-53 -82t-80 -54t-101 -19.5
q-54 0 -100.5 19.5t-80 54t-52.5 82t-19 103.5t19 103t52.5 81.5t80 54t100.5 19.5zM254 548h-76l52 148h118zM396 548h-76l64 148h119z" />
    <glyph glyph-name="OE" unicode="&#x152;" horiz-adv-x="1132" 
d="M642 0v81q-45 -47 -106 -71.5t-132 -24.5q-70 0 -135 25t-115 72.5t-80 116.5t-30 156t30 155.5t80 116t115 72.5t135 25q71 0 132 -24.5t106 -72.5v82h437v-112h-317v-188h288v-109h-288v-188h318v-112h-438zM167 355q0 -64 20.5 -112t53.5 -80t75.5 -48t87.5 -16t88 16
t76 48t53.5 80t20.5 112t-20.5 112t-53.5 80t-76 48t-88 16t-87.5 -16t-75.5 -48t-53.5 -80t-20.5 -112z" />
    <glyph glyph-name="oe" unicode="&#x153;" horiz-adv-x="946" 
d="M293 502q60 0 109.5 -22.5t84.5 -64.5q32 40 79.5 63.5t100.5 23.5q56 0 100.5 -18t75 -51t46.5 -79.5t16 -104.5q0 -14 -1 -24.5t-2 -12.5h-356q1 -28 12 -51t29 -40t41.5 -26.5t50.5 -9.5q53 0 81.5 24.5t40.5 60.5l98 -31q-10 -32 -29 -60t-47 -49t-64 -33t-80 -12
q-57 0 -107 22.5t-85 65.5q-34 -42 -84 -65t-110 -23q-54 0 -100.5 19.5t-80 54t-52.5 82t-19 103.5t19 103t52.5 81.5t80 54t100.5 19.5zM293 89q27 0 51.5 10t43.5 29.5t30 48.5t11 67t-11 66.5t-30 48t-43.5 29t-51.5 9.5t-51.5 -9.5t-43 -29t-30 -48t-11.5 -66.5
t11.5 -67t30 -48.5t43 -29.5t51.5 -10zM788 297q-1 21 -8.5 40.5t-22.5 34.5t-37 24t-52 9q-27 0 -48.5 -9.5t-36.5 -25t-24 -35t-10 -38.5h239z" />
    <glyph glyph-name="Racute" unicode="&#x154;" horiz-adv-x="630" 
d="M343 759h-109l102 124h149zM298 280h-88v-280h-121v709h272q51 0 92.5 -16.5t70 -46t44 -68.5t15.5 -84q0 -76 -42.5 -130t-117.5 -72l160 -292h-136zM339 386q56 0 89 29.5t33 78.5q0 50 -33 79.5t-89 29.5h-129v-217h129z" />
    <glyph glyph-name="racute" unicode="&#x155;" horiz-adv-x="377" 
d="M218 548h-95l89 148h137zM357 372q-20 3 -38 3q-68 0 -99.5 -37t-31.5 -106v-232h-116v487h113v-78q17 40 55 62t86 22q11 0 19 -1t12 -2v-118z" />
    <glyph glyph-name="Rcommaaccent" unicode="&#x156;" horiz-adv-x="630" 
d="M298 280h-88v-280h-121v709h272q51 0 92.5 -16.5t70 -46t44 -68.5t15.5 -84q0 -76 -42.5 -130t-117.5 -72l160 -292h-136zM339 386q56 0 89 29.5t33 78.5q0 50 -33 79.5t-89 29.5h-129v-217h129zM268 -94q0 25 19.5 42t47.5 17t51 -20.5t23 -60.5q0 -34 -12.5 -57
t-31 -37t-41.5 -20t-44 -6v44q32 0 51.5 14.5t21.5 33.5q-2 -2 -8.5 -4.5t-16.5 -2.5q-27 0 -43.5 15.5t-16.5 41.5z" />
    <glyph glyph-name="rcommaaccent" unicode="&#x157;" horiz-adv-x="377" 
d="M357 372q-20 3 -38 3q-68 0 -99.5 -37t-31.5 -106v-232h-116v487h113v-78q17 40 55 62t86 22q11 0 19 -1t12 -2v-118zM61 -96q0 25 19.5 42t47.5 17t51 -20.5t23 -60.5q0 -34 -12.5 -57t-31 -37t-41.5 -20t-44 -6v44q32 0 51.5 14.5t21.5 33.5q-2 -2 -8.5 -4.5
t-16.5 -2.5q-27 0 -43.5 15.5t-16.5 41.5z" />
    <glyph glyph-name="Rcaron" unicode="&#x158;" horiz-adv-x="630" 
d="M240 883l72 -65l75 65h108l-119 -124h-129l-116 124h109zM298 280h-88v-280h-121v709h272q51 0 92.5 -16.5t70 -46t44 -68.5t15.5 -84q0 -76 -42.5 -130t-117.5 -72l160 -292h-136zM339 386q56 0 89 29.5t33 78.5q0 50 -33 79.5t-89 29.5h-129v-217h129z" />
    <glyph glyph-name="rcaron" unicode="&#x159;" horiz-adv-x="377" 
d="M138 694l70 -77l70 77h98l-106 -145h-124l-106 145h98zM357 372q-20 3 -38 3q-68 0 -99.5 -37t-31.5 -106v-232h-116v487h113v-78q17 40 55 62t86 22q11 0 19 -1t12 -2v-118z" />
    <glyph glyph-name="Sacute" unicode="&#x15a;" horiz-adv-x="602" 
d="M351 759h-109l102 124h149zM443 509q-3 16 -11.5 35.5t-25 35.5t-41.5 27t-61 11q-27 0 -49.5 -8.5t-38.5 -22.5t-25 -32.5t-9 -38.5q0 -34 20.5 -58t62.5 -33l102 -21q94 -19 143 -74t49 -130q0 -41 -16.5 -80t-48.5 -69t-78.5 -48t-107.5 -18q-68 0 -117.5 19.5t-83 51
t-51.5 70.5t-22 77l112 32q3 -28 14 -53.5t31.5 -45t49.5 -31.5t67 -12q64 0 96.5 28t32.5 70q0 35 -24.5 60.5t-70.5 35.5l-100 21q-81 17 -130.5 68t-49.5 131q0 45 19 84.5t52 69t76.5 46.5t93.5 17q63 0 107 -17t73.5 -43.5t45.5 -58.5t22 -62z" />
    <glyph glyph-name="sacute" unicode="&#x15b;" horiz-adv-x="465" 
d="M271 548h-95l89 148h137zM139 160q3 -33 27.5 -58t71.5 -25q36 0 54.5 16.5t18.5 39.5q0 20 -14 34t-43 20l-72 16q-65 14 -98 52.5t-33 89.5q0 32 14 60.5t38 50t56.5 34t70.5 12.5q51 0 85.5 -14.5t56.5 -35.5t32.5 -44.5t13.5 -41.5l-98 -28q-2 10 -7 23t-15.5 24
t-27 18.5t-40.5 7.5q-31 0 -50.5 -16.5t-19.5 -39.5q0 -20 13 -33t36 -18l74 -15q69 -15 104.5 -54.5t35.5 -93.5q0 -28 -11.5 -55.5t-34 -50t-57.5 -36.5t-81 -14q-53 0 -90 15t-61 37.5t-36 48t-14 46.5z" />
    <glyph glyph-name="Scircumflex" unicode="&#x15c;" horiz-adv-x="602" 
d="M137 759l116 124h129l119 -124h-110l-75 64l-72 -64h-107zM443 509q-3 16 -11.5 35.5t-25 35.5t-41.5 27t-61 11q-27 0 -49.5 -8.5t-38.5 -22.5t-25 -32.5t-9 -38.5q0 -34 20.5 -58t62.5 -33l102 -21q94 -19 143 -74t49 -130q0 -41 -16.5 -80t-48.5 -69t-78.5 -48
t-107.5 -18q-68 0 -117.5 19.5t-83 51t-51.5 70.5t-22 77l112 32q3 -28 14 -53.5t31.5 -45t49.5 -31.5t67 -12q64 0 96.5 28t32.5 70q0 35 -24.5 60.5t-70.5 35.5l-100 21q-81 17 -130.5 68t-49.5 131q0 45 19 84.5t52 69t76.5 46.5t93.5 17q63 0 107 -17t73.5 -43.5
t45.5 -58.5t22 -62z" />
    <glyph glyph-name="scircumflex" unicode="&#x15d;" horiz-adv-x="465" 
d="M75 549l107 143h121l108 -143h-99l-70 77l-70 -77h-97zM139 160q3 -33 27.5 -58t71.5 -25q36 0 54.5 16.5t18.5 39.5q0 20 -14 34t-43 20l-72 16q-65 14 -98 52.5t-33 89.5q0 32 14 60.5t38 50t56.5 34t70.5 12.5q51 0 85.5 -14.5t56.5 -35.5t32.5 -44.5t13.5 -41.5
l-98 -28q-2 10 -7 23t-15.5 24t-27 18.5t-40.5 7.5q-31 0 -50.5 -16.5t-19.5 -39.5q0 -20 13 -33t36 -18l74 -15q69 -15 104.5 -54.5t35.5 -93.5q0 -28 -11.5 -55.5t-34 -50t-57.5 -36.5t-81 -14q-53 0 -90 15t-61 37.5t-36 48t-14 46.5z" />
    <glyph glyph-name="Scedilla" unicode="&#x15e;" horiz-adv-x="602" 
d="M242 -62l31 49q-59 5 -102 26t-72.5 51.5t-45 66.5t-19.5 72l112 32q3 -28 14 -53.5t31.5 -45t49.5 -31.5t67 -12q64 0 96.5 28t32.5 70q0 35 -24.5 60.5t-70.5 35.5l-100 21q-81 17 -130.5 68t-49.5 131q0 45 19 84.5t52 69t76.5 46.5t93.5 17q63 0 107 -17t73.5 -43.5
t45.5 -58.5t22 -62l-108 -34q-3 16 -11.5 35.5t-25 35.5t-41.5 27t-61 11q-27 0 -49.5 -8.5t-38.5 -22.5t-25 -32.5t-9 -38.5q0 -34 20.5 -58t62.5 -33l102 -21q94 -19 143 -74t49 -130q0 -38 -13.5 -73.5t-40 -64t-65 -48.5t-89.5 -26l-22 -35q43 -1 70 -23.5t27 -60.5
q0 -18 -7 -34.5t-21.5 -29t-38 -20.5t-56.5 -8q-40 0 -70.5 15t-44.5 33l41 50q10 -10 28.5 -22.5t44.5 -12.5q18 0 31 7t13 23q0 12 -10.5 21t-30.5 9q-15 0 -28 -5z" />
    <glyph glyph-name="scedilla" unicode="&#x15f;" horiz-adv-x="465" 
d="M166 -62l32 50q-42 6 -71.5 22t-48.5 37t-28.5 43.5t-11.5 41.5l101 28q3 -33 27.5 -58t71.5 -25q36 0 54.5 16.5t18.5 39.5q0 20 -14 34t-43 20l-72 16q-65 14 -98 52.5t-33 89.5q0 32 14 60.5t38 50t56.5 34t70.5 12.5q51 0 85.5 -14.5t56.5 -35.5t32.5 -44.5
t13.5 -41.5l-98 -28q-2 10 -7 23t-15.5 24t-27 18.5t-40.5 7.5q-31 0 -50.5 -16.5t-19.5 -39.5q0 -20 13 -33t36 -18l74 -15q69 -15 104.5 -54.5t35.5 -93.5q0 -24 -9 -49t-27 -46.5t-46 -37t-65 -20.5l-23 -35q43 -1 70 -23.5t27 -60.5q0 -18 -7 -34.5t-21.5 -29t-38 -20.5
t-56.5 -8q-40 0 -70.5 15t-44.5 33l41 50q10 -10 28.5 -22.5t44.5 -12.5q18 0 31 7t13 23q0 12 -10.5 21t-30.5 9q-15 0 -28 -5z" />
    <glyph glyph-name="Scaron" unicode="&#x160;" horiz-adv-x="602" 
d="M236 883l72 -65l75 65h108l-119 -124h-129l-116 124h109zM443 509q-3 16 -11.5 35.5t-25 35.5t-41.5 27t-61 11q-27 0 -49.5 -8.5t-38.5 -22.5t-25 -32.5t-9 -38.5q0 -34 20.5 -58t62.5 -33l102 -21q94 -19 143 -74t49 -130q0 -41 -16.5 -80t-48.5 -69t-78.5 -48
t-107.5 -18q-68 0 -117.5 19.5t-83 51t-51.5 70.5t-22 77l112 32q3 -28 14 -53.5t31.5 -45t49.5 -31.5t67 -12q64 0 96.5 28t32.5 70q0 35 -24.5 60.5t-70.5 35.5l-100 21q-81 17 -130.5 68t-49.5 131q0 45 19 84.5t52 69t76.5 46.5t93.5 17q63 0 107 -17t73.5 -43.5
t45.5 -58.5t22 -62z" />
    <glyph glyph-name="scaron" unicode="&#x161;" horiz-adv-x="465" 
d="M165 694l70 -77l70 77h98l-106 -145h-124l-106 145h98zM139 160q3 -33 27.5 -58t71.5 -25q36 0 54.5 16.5t18.5 39.5q0 20 -14 34t-43 20l-72 16q-65 14 -98 52.5t-33 89.5q0 32 14 60.5t38 50t56.5 34t70.5 12.5q51 0 85.5 -14.5t56.5 -35.5t32.5 -44.5t13.5 -41.5
l-98 -28q-2 10 -7 23t-15.5 24t-27 18.5t-40.5 7.5q-31 0 -50.5 -16.5t-19.5 -39.5q0 -20 13 -33t36 -18l74 -15q69 -15 104.5 -54.5t35.5 -93.5q0 -28 -11.5 -55.5t-34 -50t-57.5 -36.5t-81 -14q-53 0 -90 15t-61 37.5t-36 48t-14 46.5z" />
    <glyph glyph-name="Tcommaaccent" unicode="&#x162;" horiz-adv-x="615" 
d="M230 -62l39 62h-22v596h-230v113h581v-113h-231v-596h-20l-30 -47q43 -1 70 -23.5t27 -60.5q0 -18 -7 -34.5t-21.5 -29t-38 -20.5t-56.5 -8q-40 0 -70.5 15t-44.5 33l41 50q10 -10 28.5 -22.5t44.5 -12.5q18 0 31 7t13 23q0 12 -10.5 21t-30.5 9q-15 0 -28 -5z" />
    <glyph glyph-name="tcommaaccent" unicode="&#x163;" horiz-adv-x="365" 
d="M225 487h101v-103h-101v-226q0 -32 15 -46.5t47 -14.5q12 0 24 1.5t16 2.5v-96q-5 -2 -22 -6.5t-49 -4.5q-68 0 -107 38t-39 107v245h-90v103h25q39 0 57 22t18 54v73h105v-149zM148 -96q0 25 19.5 42t47.5 17t51 -20.5t23 -60.5q0 -34 -12.5 -57t-31 -37t-41.5 -20
t-44 -6v44q32 0 51.5 14.5t21.5 33.5q-2 -2 -8.5 -4.5t-16.5 -2.5q-27 0 -43.5 15.5t-16.5 41.5z" />
    <glyph glyph-name="Tcaron" unicode="&#x164;" horiz-adv-x="615" 
d="M235 883l72 -65l75 65h108l-119 -124h-129l-116 124h109zM367 596v-596h-120v596h-230v113h581v-113h-231z" />
    <glyph glyph-name="tcaron" unicode="&#x165;" horiz-adv-x="365" 
d="M362 560h-80l29 189h119zM225 487h101v-103h-101v-226q0 -32 15 -46.5t47 -14.5q12 0 24 1.5t16 2.5v-96q-5 -2 -22 -6.5t-49 -4.5q-68 0 -107 38t-39 107v245h-90v103h25q39 0 57 22t18 54v73h105v-149z" />
    <glyph glyph-name="Tbar" unicode="&#x166;" horiz-adv-x="624" 
d="M371 596v-224h117v-93h-117v-279h-120v279h-113v93h113v224h-230v113h581v-113h-231z" />
    <glyph glyph-name="tbar" unicode="&#x167;" horiz-adv-x="372" 
d="M116 202h-90v86h90v96h-90v103h25q39 0 57 22t18 54v73h105v-149h101v-103h-101v-96h101v-86h-101v-44q0 -32 15 -46.5t47 -14.5q12 0 24 1.5t16 2.5v-96q-5 -2 -21.5 -6.5t-49.5 -4.5q-68 0 -107 38t-39 107v63z" />
    <glyph glyph-name="Utilde" unicode="&#x168;" horiz-adv-x="693" 
d="M346 -15q-56 0 -104 17t-83.5 50t-56 82t-20.5 113v462h119v-455q0 -75 38.5 -115t106.5 -40q69 0 107 40t38 115v455h120v-462q0 -64 -20.5 -113t-56 -82t-84 -50t-104.5 -17zM514 863q0 -55 -28.5 -82.5t-70.5 -27.5q-22 0 -40 7t-33 16l-10 7q-12 8 -23 12.5t-22 4.5
t-20.5 -8t-9.5 -25v-10h-75v22q0 56 29 83t71 27q22 0 40.5 -7t33.5 -16l10 -6q12 -7 22.5 -12t20.5 -5q13 0 22 7.5t9 25.5v10h74v-23z" />
    <glyph glyph-name="utilde" unicode="&#x169;" horiz-adv-x="571" 
d="M389 54q-18 -33 -56.5 -50.5t-81.5 -17.5q-44 0 -78 15t-57.5 41.5t-36 61.5t-12.5 76v307h116v-286q0 -23 5.5 -43t17.5 -35t30.5 -24t44.5 -9q51 0 76.5 30.5t25.5 78.5v288h116v-398q0 -30 1.5 -52.5t3.5 -36.5h-111q-2 8 -3 23.5t-1 30.5zM118 574q0 59 29.5 87
t73.5 28q22 0 38.5 -6.5t31.5 -15.5l10 -6q11 -7 21.5 -12t21.5 -5q31 0 31 44h76v-17q0 -59 -29 -88t-73 -29q-22 0 -39 7t-32 16l-10 6q-11 7 -21.5 11.5t-21.5 4.5q-15 0 -22.5 -10t-7.5 -33h-76z" />
    <glyph glyph-name="Umacron" unicode="&#x16a;" horiz-adv-x="693" 
d="M346 -15q-56 0 -104 17t-83.5 50t-56 82t-20.5 113v462h119v-455q0 -75 38.5 -115t106.5 -40q69 0 107 40t38 115v455h120v-462q0 -64 -20.5 -113t-56 -82t-84 -50t-104.5 -17zM197 776v93h300v-93h-300z" />
    <glyph glyph-name="umacron" unicode="&#x16b;" horiz-adv-x="571" 
d="M389 54q-18 -33 -56.5 -50.5t-81.5 -17.5q-44 0 -78 15t-57.5 41.5t-36 61.5t-12.5 76v307h116v-286q0 -23 5.5 -43t17.5 -35t30.5 -24t44.5 -9q51 0 76.5 30.5t25.5 78.5v288h116v-398q0 -30 1.5 -52.5t3.5 -36.5h-111q-2 8 -3 23.5t-1 30.5zM144 577v90h278v-90h-278z
" />
    <glyph glyph-name="Ubreve" unicode="&#x16c;" horiz-adv-x="693" 
d="M346 -15q-56 0 -104 17t-83.5 50t-56 82t-20.5 113v462h119v-455q0 -75 38.5 -115t106.5 -40q69 0 107 40t38 115v455h120v-462q0 -64 -20.5 -113t-56 -82t-84 -50t-104.5 -17zM347 754q-39 0 -68.5 11.5t-49.5 30t-31 42.5t-12 48h93q2 -19 17.5 -36.5t50.5 -17.5
t50.5 17.5t16.5 36.5h93q-1 -24 -11.5 -48t-30.5 -42.5t-49.5 -30t-68.5 -11.5z" />
    <glyph glyph-name="ubreve" unicode="&#x16d;" horiz-adv-x="571" 
d="M389 54q-18 -33 -56.5 -50.5t-81.5 -17.5q-44 0 -78 15t-57.5 41.5t-36 61.5t-12.5 76v307h116v-286q0 -23 5.5 -43t17.5 -35t30.5 -24t44.5 -9q51 0 76.5 30.5t25.5 78.5v288h116v-398q0 -30 1.5 -52.5t3.5 -36.5h-111q-2 8 -3 23.5t-1 30.5zM282 547q-38 0 -66 12.5
t-47.5 33t-29.5 47t-11 54.5h82q2 -22 18 -41.5t54 -19.5q19 0 32.5 5.5t22.5 14.5t13 19.5t5 21.5h82q-1 -28 -11 -54.5t-29 -47t-48 -33t-67 -12.5z" />
    <glyph glyph-name="Uring" unicode="&#x16e;" horiz-adv-x="693" 
d="M346 -15q-56 0 -104 17t-83.5 50t-56 82t-20.5 113v462h119v-455q0 -75 38.5 -115t106.5 -40q69 0 107 40t38 115v455h120v-462q0 -64 -20.5 -113t-56 -82t-84 -50t-104.5 -17zM469 854q0 -26 -10 -47.5t-27 -37.5t-39 -25t-47 -9q-24 0 -46.5 9t-39 25t-26.5 37.5
t-10 47.5q0 25 10 47t26.5 38t39 25t46.5 9q25 0 47 -9t39 -25t27 -38t10 -47zM393 854q0 21 -13.5 34t-33.5 13t-33.5 -13t-13.5 -34t13.5 -34t33.5 -13t33.5 13t13.5 34z" />
    <glyph glyph-name="uring" unicode="&#x16f;" horiz-adv-x="571" 
d="M397 645q0 -24 -9 -44t-25 -34.5t-36.5 -23t-43.5 -8.5t-43 8.5t-36 23t-25 34.5t-9 44t9 44.5t25 35t36 23t43 8.5t43.5 -8.5t36.5 -23t25 -35t9 -44.5zM327 645q0 20 -12.5 32.5t-32.5 12.5q-18 0 -30.5 -12.5t-12.5 -32.5q0 -19 12.5 -31.5t30.5 -12.5q20 0 32.5 12.5
t12.5 31.5zM389 54q-18 -33 -56.5 -50.5t-81.5 -17.5q-44 0 -78 15t-57.5 41.5t-36 61.5t-12.5 76v307h116v-286q0 -23 5.5 -43t17.5 -35t30.5 -24t44.5 -9q51 0 76.5 30.5t25.5 78.5v288h116v-398q0 -30 1.5 -52.5t3.5 -36.5h-111q-2 8 -3 23.5t-1 30.5z" />
    <glyph glyph-name="Uhungarumlaut" unicode="&#x170;" horiz-adv-x="693" 
d="M299 759h-79l56 124h118zM449 759h-80l69 124h118zM346 -15q-56 0 -104 17t-83.5 50t-56 82t-20.5 113v462h119v-455q0 -75 38.5 -115t106.5 -40q69 0 107 40t38 115v455h120v-462q0 -64 -20.5 -113t-56 -82t-84 -50t-104.5 -17z" />
    <glyph glyph-name="uhungarumlaut" unicode="&#x171;" horiz-adv-x="571" 
d="M389 54q-18 -33 -56.5 -50.5t-81.5 -17.5q-44 0 -78 15t-57.5 41.5t-36 61.5t-12.5 76v307h116v-286q0 -23 5.5 -43t17.5 -35t30.5 -24t44.5 -9q51 0 76.5 30.5t25.5 78.5v288h116v-398q0 -30 1.5 -52.5t3.5 -36.5h-111q-2 8 -3 23.5t-1 30.5zM233 548h-76l52 148h118z
M375 548h-76l64 148h119z" />
    <glyph glyph-name="Uogonek" unicode="&#x172;" horiz-adv-x="693" 
d="M397 -220q-25 0 -47 7t-38 20.5t-25 33t-9 43.5q0 35 14.5 60t35.5 42q-53 3 -98 21t-78 51t-51.5 80t-18.5 109v462h119v-455q0 -75 38.5 -115t106.5 -40q69 0 107 40t38 115v455h120v-462q0 -98 -44.5 -158t-116.5 -89q-36 -14 -60.5 -36.5t-24.5 -55.5q0 -25 15.5 -37
t36.5 -12q17 0 31 3v-74q-10 -4 -21.5 -6t-29.5 -2z" />
    <glyph glyph-name="uogonek" unicode="&#x173;" horiz-adv-x="571" 
d="M334 -116q0 45 21.5 72t49.5 44h-12q-2 8 -3 23.5t-1 30.5q-18 -33 -56.5 -50.5t-81.5 -17.5q-44 0 -78 15t-57.5 41.5t-36 61.5t-12.5 76v307h116v-286q0 -23 5.5 -43t17.5 -35t30.5 -24t44.5 -9q51 0 76.5 30.5t25.5 78.5v288h116v-398q0 -31 1.5 -53t3.5 -36
q-14 -7 -28.5 -16t-26.5 -21t-19.5 -26.5t-7.5 -31.5q0 -24 15.5 -35t35.5 -11q16 0 31 3v-74q-10 -4 -21.5 -6t-29.5 -2q-25 0 -47 7t-38 20.5t-25 33t-9 43.5z" />
    <glyph glyph-name="Wcircumflex" unicode="&#x174;" horiz-adv-x="1032" 
d="M334 759l116 124h129l119 -124h-110l-75 64l-72 -64h-107zM887 709h124l-199 -709h-124l-172 536l-172 -536h-123l-201 709h126l142 -518l166 518h125l169 -522z" />
    <glyph glyph-name="wcircumflex" unicode="&#x175;" horiz-adv-x="828" 
d="M246 549l107 143h121l108 -143h-99l-70 77l-70 -77h-97zM476 487l115 -337l97 337h118l-156 -487h-116l-121 350l-118 -350h-119l-158 487h124l99 -337l115 337h120z" />
    <glyph glyph-name="Ycircumflex" unicode="&#x176;" horiz-adv-x="651" 
d="M17 709h142l170 -297l171 297h135l-250 -409v-300h-120v300zM144 759l116 124h129l119 -124h-110l-75 64l-72 -64h-107z" />
    <glyph glyph-name="ycircumflex" unicode="&#x177;" horiz-adv-x="551" 
d="M106 -197l117 255l-208 429h131l140 -308l131 308h123l-310 -684h-124zM110 549l107 143h121l108 -143h-99l-70 77l-70 -77h-97z" />
    <glyph glyph-name="Ydieresis" unicode="&#x178;" horiz-adv-x="651" 
d="M142 821q0 28 18.5 47.5t47.5 19.5q28 0 47 -19.5t19 -47.5t-19 -47t-47 -19q-29 0 -47.5 19t-18.5 47zM381 821q0 28 19 47.5t47 19.5t47.5 -19.5t19.5 -47.5t-19.5 -47t-47.5 -19t-47 19t-19 47zM17 709h142l170 -297l171 297h135l-250 -409v-300h-120v300z" />
    <glyph glyph-name="Zacute" unicode="&#x179;" horiz-adv-x="639" 
d="M344 759h-109l102 124h149zM42 0v118l393 478h-382v113h537v-114l-398 -481h403v-114h-553z" />
    <glyph glyph-name="zacute" unicode="&#x17a;" horiz-adv-x="488" 
d="M266 548h-95l89 148h137zM45 0v101l247 284h-242v102h388v-98l-250 -287h255v-102h-398z" />
    <glyph glyph-name="Zdotaccent" unicode="&#x17b;" horiz-adv-x="639" 
d="M42 0v118l393 478h-382v113h537v-114l-398 -481h403v-114h-553zM250 826q0 31 21.5 52t51.5 21t51.5 -21t21.5 -52q0 -29 -21.5 -50t-51.5 -21t-51.5 21t-21.5 50z" />
    <glyph glyph-name="zdotaccent" unicode="&#x17c;" horiz-adv-x="488" 
d="M45 0v101l247 284h-242v102h388v-98l-250 -287h255v-102h-398zM173 622q0 30 21 51t51 21t51 -21t21 -51q0 -29 -21 -50t-51 -21t-51 21t-21 50z" />
    <glyph glyph-name="Zcaron" unicode="&#x17d;" horiz-adv-x="639" 
d="M252 883l72 -65l75 65h108l-119 -124h-129l-116 124h109zM42 0v118l393 478h-382v113h537v-114l-398 -481h403v-114h-553z" />
    <glyph glyph-name="zcaron" unicode="&#x17e;" horiz-adv-x="488" 
d="M178 694l70 -77l70 77h98l-106 -145h-124l-106 145h98zM45 0v101l247 284h-242v102h388v-98l-250 -287h255v-102h-398z" />
    <glyph glyph-name="uni018F" unicode="&#x18f;" horiz-adv-x="790" 
d="M385 724q75 0 140.5 -24t114 -71.5t77 -117t28.5 -159.5q0 -87 -29.5 -155.5t-78.5 -115.5t-113 -71.5t-134 -24.5q-68 0 -131.5 23t-112.5 68.5t-79 114.5t-30 161v10t1 16h582q-3 60 -23.5 104t-53 73t-74 43t-86.5 14t-82.5 -13.5t-67 -35.5t-49 -50.5t-28.5 -57.5
l-110 39q13 45 43 87t74 73.5t100 50.5t122 19zM390 95q86 0 145 48t75 132h-441q6 -39 24.5 -72t47.5 -57t66.5 -37.5t82.5 -13.5z" />
    <glyph glyph-name="florin" unicode="&#x192;" horiz-adv-x="5120" 
d="M2128 382q111 -27 159.5 -72.5t48.5 -121.5q0 -45 -16.5 -81t-47 -62t-73.5 -40t-96 -14q-75 0 -143 26t-125 77q-3 3 -3 5q0 4 2 6l67 80q3 3 5 3q4 0 6 -2q49 -43 94.5 -62t99.5 -19q48 0 76 19.5t28 53.5q0 15 -5 27t-19.5 22.5t-41.5 20t-71 20.5q-51 12 -91 27
t-68 37.5t-42.5 54.5t-14.5 77q0 42 16.5 77.5t46 61t70.5 39.5t91 14q135 0 234 -81q3 -3 3 -6q0 -1 -2 -5l-59 -84q-2 -4 -7 -4q-3 0 -5 2q-85 64 -166 64q-43 0 -69 -18.5t-26 -49.5q0 -16 5.5 -28t21 -22.5t43.5 -20.5t74 -21zM2657 502q43 0 84 -16.5t73 -48.5t52 -80
t20 -111t-20 -110.5t-52 -80t-73 -48.5t-84 -16q-93 0 -153 69v-195q0 -9 -9 -9h-108q-9 0 -9 9v619q0 8 9 8h108q9 0 9 -8v-56q62 74 153 74zM2760 246q0 31 -9.5 58t-26.5 46t-40.5 30t-51.5 11t-52 -11t-41.5 -30.5t-27.5 -46t-10 -57.5t10 -57.5t27.5 -46t41.5 -30.5
t52 -11q57 0 92.5 40t35.5 105zM3183 502q55 0 102.5 -20t82.5 -54.5t55.5 -81t20.5 -100.5t-20.5 -101t-56 -81.5t-83.5 -54t-103 -19.5t-102.5 19.5t-82.5 54t-55 80.5t-20 100t20.5 101t55.5 82t83 55t103 20zM3183 100q29 0 54 11t43 30t28 45.5t10 57.5t-10.5 58
t-29 46.5t-43.5 30.5t-54 11q-30 0 -55 -10.5t-43 -30t-28 -46t-10 -57.5t10.5 -58t29 -46.5t43.5 -30.5t55 -11zM3757 492q8 0 8 -8v-94q0 -8 -8 -8h-120v-225q0 -52 51 -52q20 0 34.5 5t19.5 7q4 2 7.5 3.5t5.5 1.5q8 0 8 -9v-87q0 -2 -0.5 -4.5t-5.5 -4.5
q-20 -11 -43 -18t-57 -7q-145 0 -145 148v242h-53q-7 0 -7 8v94q0 8 7 8h53v123q0 7 8 7h109q8 0 8 -7v-123h120zM4294 559q-2 0 -6.5 2t-14.5 4q-13 3 -22 4.5t-21 1.5q-55 0 -55 -65v-14h186q6 0 8 -4l127 -334l116 333q2 5 7 5h114q2 0 5 -2t3 -6q0 -3 -2 -7l-188 -485
q-15 -38 -31 -64.5t-35.5 -43t-43.5 -24t-54 -7.5q-32 0 -59 7t-57 22q-4 2 -4 6q0 3 1 5l36 82q2 5 7 5q1 0 2 -0.5t2 -0.5q18 -9 32 -13.5t28 -4.5q18 0 31.5 9t27.5 39l-155 373h-102v-373q0 -9 -9 -9h-108q-9 0 -9 9v373h-52q-7 0 -7 8v95q0 7 7 7h52v24
q0 80 39.5 121.5t115.5 41.5q52 0 90 -12q6 -2 6 -8v-92q0 -2 -2 -5t-6 -3zM3933 492q7 0 7 -8v-475q0 -9 -7 -9h-110q-7 0 -7 9v475q0 8 7 8h110zM3878 708q32 0 55.5 -22.5t23.5 -54.5q0 -33 -23.5 -56t-55.5 -23t-54.5 23t-22.5 56q0 32 22.5 54.5t54.5 22.5zM4833 338
q-32 0 -54 22.5t-22 54.5t22 54.5t54 22.5t54.5 -22t22.5 -54t-22.5 -55t-54.5 -23zM4833 484q-29 0 -48.5 -20t-19.5 -49t19.5 -49.5t48.5 -20.5q30 0 50 21t20 50q0 28 -20 48t-50 20zM4873 377h-19l-20 27h-16v-27h-15v81h35q14 0 23 -7t9 -20q0 -10 -5.5 -15.5
t-13.5 -8.5zM4818 444v-26h20q16 0 16 12q0 14 -16 14h-20zM1200 -6q17 0 30.5 13t13.5 32q0 24 -21 37q-79 49 -182 80t-239 31q-123 0 -263 -32q-15 -4 -24.5 -15.5t-9.5 -26.5q0 -17 11.5 -30.5t31.5 -13.5q7 0 20 3t21 5q66 14 121.5 18.5t93.5 4.5q107 0 199.5 -25
t173.5 -74q12 -7 23 -7zM1277 181q22 0 38.5 16.5t16.5 39.5q0 14 -6.5 26.5t-19.5 20.5q-107 66 -240 99.5t-270 33.5q-73 0 -144 -10t-138 -30q-18 -5 -28.5 -20t-10.5 -33q0 -22 14 -38t38 -16q9 0 14 1t10.5 2.5t13.5 4t22 5.5q58 14 112.5 19t94.5 5q123 0 241.5 -30
t212.5 -88q14 -8 29 -8zM1332 408q15 -9 33 -9q28 0 47.5 19t19.5 47q0 17 -8.5 32t-24.5 24q-125 72 -277 105.5t-316 33.5q-92 0 -176.5 -11.5t-154.5 -32.5q-22 -7 -34.5 -24.5t-12.5 -38.5q0 -26 18 -46.5t47 -20.5q10 0 19 3q63 19 139 29t161 10q68 0 138 -7
t137 -21.5t129.5 -37.5t115.5 -54zM210 327q0 97 25.5 187.5t71.5 169t110.5 143t143 110.5t168.5 71t187 25t187 -25t168.5 -71t143 -110.5t110.5 -143t71 -169t25 -187.5q0 -98 -25 -188t-71 -168t-110.5 -142.5t-143 -110.5t-168.5 -71t-187 -25t-187 25t-168.5 71
t-143 110.5t-110.5 142.5t-71.5 168.5t-25.5 187.5z" />
    <glyph glyph-name="uni01B5" unicode="&#x1b5;" horiz-adv-x="648" 
d="M47 0v118l163 199h-130v101h213l147 178h-382v113h537v-114l-147 -177h117v-101h-200l-168 -203h403v-114h-553z" />
    <glyph glyph-name="uni01B6" unicode="&#x1b6;" horiz-adv-x="496" 
d="M49 0v91l98 115h-90v86h163l81 95h-247v100h388v-93l-87 -102h83v-86h-156l-90 -106h255v-100h-398z" />
    <glyph glyph-name="Aringacute" unicode="&#x1fa;" horiz-adv-x="717" 
d="M410 908h-109l102 124h149zM248 289h216l-108 290zM356 709q21 0 35.5 13.5t14.5 36.5q0 22 -14.5 35.5t-35.5 13.5t-35.5 -13.5t-14.5 -35.5q0 -23 14.5 -36.5t35.5 -13.5zM486 759q0 -29 -11 -52.5t-31 -40.5l260 -666h-131l-67 178h-300l-66 -178h-127l258 663
q-20 17 -32 42t-12 54q0 27 10.5 50t28 40t41 26.5t49.5 9.5t49.5 -9.5t41.5 -26.5t28.5 -40t10.5 -50z" />
    <glyph glyph-name="aringacute" unicode="&#x1fb;" horiz-adv-x="531" 
d="M41 132q0 33 11.5 58t31 43.5t46.5 29.5t58 16l125 19q21 3 28.5 12.5t7.5 22.5q0 31 -22 52.5t-70 21.5q-46 0 -71 -25.5t-29 -62.5l-106 24q3 31 19 60t42 51t62.5 35t81.5 13q56 0 95.5 -15t64 -40t36 -58t11.5 -69v-242q0 -33 2.5 -53.5t3.5 -24.5h-108q-1 2 -3 17.5
t-2 44.5q-17 -28 -54 -52.5t-96 -24.5q-38 0 -68.5 12t-52 32.5t-33 47t-11.5 55.5zM228 76q24 0 46 6.5t38.5 21t26.5 38.5t10 60v22l-127 -19q-27 -5 -46 -20.5t-19 -45.5q0 -25 18 -44t53 -19zM303 783h-95l89 148h137zM373 640q0 -24 -9 -44t-25 -34.5t-36.5 -23
t-43.5 -8.5t-43 8.5t-36 23t-25 34.5t-9 44t9 44.5t25 35t36 23t43 8.5t43.5 -8.5t36.5 -23t25 -35t9 -44.5zM303 640q0 20 -12.5 32.5t-32.5 12.5q-18 0 -30.5 -12.5t-12.5 -32.5q0 -19 12.5 -31.5t30.5 -12.5q20 0 32.5 12.5t12.5 31.5z" />
    <glyph glyph-name="AEacute" unicode="&#x1fc;" horiz-adv-x="1027" 
d="M601 759h-109l102 124h149zM536 0v180h-277l-115 -180h-149l470 709h509v-112h-318v-188h288v-109h-288v-188h318v-112h-438zM536 283v328l-211 -328h211z" />
    <glyph glyph-name="aeacute" unicode="&#x1fd;" horiz-adv-x="871" 
d="M472 548h-95l89 148h137zM825 139q-10 -32 -30 -60t-48.5 -49t-65 -33t-78.5 -12q-59 0 -110 24.5t-85 70.5q-12 -18 -28.5 -35t-39.5 -30.5t-53 -21.5t-67 -8q-44 0 -77 12t-56 32.5t-34.5 47t-11.5 55.5q0 33 11.5 58t31 43.5t46.5 29.5t58 16l132 19q23 3 30 13.5
t7 21.5q0 30 -24 52.5t-73 22.5q-48 0 -75.5 -25.5t-31.5 -60.5l-102 21q3 33 20.5 61.5t45.5 50.5t65 34.5t79 12.5q61 0 102.5 -19.5t65.5 -51.5q32 34 75 52.5t90 18.5q56 0 100 -18t74 -51t46 -79.5t16 -104.5q0 -8 -0.5 -19t-1.5 -18h-358q1 -28 12 -51.5t29 -40
t42 -26t51 -9.5q53 0 81.5 24.5t41.5 61.5zM232 76q22 0 44.5 6.5t40.5 21t29 38.5t11 59v23l-135 -19q-29 -4 -47 -21t-18 -47q0 -23 19 -42t56 -19zM714 297q-1 21 -8.5 40.5t-22.5 34.5t-37.5 24t-52.5 9q-28 0 -49.5 -9.5t-36.5 -25t-24 -35t-10 -38.5h241z" />
    <glyph glyph-name="Oslashacute" unicode="&#x1fe;" horiz-adv-x="809" 
d="M44 355q0 87 30 155.5t80 116t115 72.5t135 25q50 0 97 -13t89 -37l71 91l78 -60l-72 -92q45 -48 71.5 -112.5t26.5 -145.5q0 -87 -30.5 -156t-80.5 -116.5t-115 -72.5t-135 -25q-49 0 -96 12t-89 36l-68 -88l-80 59l71 91q-45 48 -71.5 113t-26.5 147zM167 355
q0 -52 13 -92.5t36 -71.5l303 391q-53 29 -115 29q-45 0 -87.5 -16t-75.5 -48t-53.5 -80t-20.5 -112zM642 355q0 51 -13 91t-35 71l-303 -391q52 -27 113 -27q45 0 88 16t76 48t53.5 80t20.5 112zM454 759h-109l102 124h149z" />
    <glyph glyph-name="oslashacute" unicode="&#x1ff;" horiz-adv-x="587" 
d="M337 548h-95l89 148h137zM293 502q36 0 68.5 -8.5t60.5 -24.5l52 65l62 -51l-52 -65q29 -34 45.5 -78.5t16.5 -95.5q0 -56 -19 -103.5t-53 -82t-80 -54t-101 -19.5q-38 0 -69 8.5t-57 23.5l-50 -63l-63 51l50 63q-30 34 -46.5 78.5t-16.5 97.5q0 56 19 103t52.5 81.5
t80 54t100.5 19.5zM157 244q0 -49 19 -85l178 224q-30 14 -61 14q-27 0 -51.5 -9.5t-43 -29t-30 -48t-11.5 -66.5zM293 89q27 0 51.5 10t43.5 29.5t30 48.5t11 67q0 24 -5 44.5t-13 37.5l-177 -224q26 -13 59 -13z" />
    <glyph glyph-name="Scommaaccent" unicode="&#x218;" horiz-adv-x="602" 
d="M443 509q-3 16 -11.5 35.5t-25 35.5t-41.5 27t-61 11q-27 0 -49.5 -8.5t-38.5 -22.5t-25 -32.5t-9 -38.5q0 -34 20.5 -58t62.5 -33l102 -21q94 -19 143 -74t49 -130q0 -41 -16.5 -80t-48.5 -69t-78.5 -48t-107.5 -18q-68 0 -117.5 19.5t-83 51t-51.5 70.5t-22 77l112 32
q3 -28 14 -53.5t31.5 -45t49.5 -31.5t67 -12q64 0 96.5 28t32.5 70q0 35 -24.5 60.5t-70.5 35.5l-100 21q-81 17 -130.5 68t-49.5 131q0 45 19 84.5t52 69t76.5 46.5t93.5 17q63 0 107 -17t73.5 -43.5t45.5 -58.5t22 -62zM243 -96q0 25 19.5 42t47.5 17t51 -20.5t23 -60.5
q0 -34 -12.5 -57t-31 -37t-41.5 -20t-44 -6v44q32 0 51.5 14.5t21.5 33.5q-2 -2 -8.5 -4.5t-16.5 -2.5q-27 0 -43.5 15.5t-16.5 41.5z" />
    <glyph glyph-name="scommaaccent" unicode="&#x219;" horiz-adv-x="465" 
d="M139 160q3 -33 27.5 -58t71.5 -25q36 0 54.5 16.5t18.5 39.5q0 20 -14 34t-43 20l-72 16q-65 14 -98 52.5t-33 89.5q0 32 14 60.5t38 50t56.5 34t70.5 12.5q51 0 85.5 -14.5t56.5 -35.5t32.5 -44.5t13.5 -41.5l-98 -28q-2 10 -7 23t-15.5 24t-27 18.5t-40.5 7.5
q-31 0 -50.5 -16.5t-19.5 -39.5q0 -20 13 -33t36 -18l74 -15q69 -15 104.5 -54.5t35.5 -93.5q0 -28 -11.5 -55.5t-34 -50t-57.5 -36.5t-81 -14q-53 0 -90 15t-61 37.5t-36 48t-14 46.5zM168 -97q0 25 19.5 42t47.5 17t51 -20.5t23 -60.5q0 -34 -12.5 -57t-31 -37t-41.5 -20
t-44 -6v44q32 0 51.5 14.5t21.5 33.5q-2 -2 -8.5 -4.5t-16.5 -2.5q-27 0 -43.5 15.5t-16.5 41.5z" />
    <glyph glyph-name="uni021A" unicode="&#x21a;" horiz-adv-x="615" 
d="M367 596v-596h-120v596h-230v113h581v-113h-231zM237 -96q0 25 19.5 42t47.5 17t51 -20.5t23 -60.5q0 -34 -12.5 -57t-31 -37t-41.5 -20t-44 -6v44q32 0 51.5 14.5t21.5 33.5q-2 -2 -8.5 -4.5t-16.5 -2.5q-27 0 -43.5 15.5t-16.5 41.5z" />
    <glyph glyph-name="uni021B" unicode="&#x21b;" horiz-adv-x="365" 
d="M147 -62l43 68q-38 15 -59 49t-21 84v245h-90v103h25q39 0 57 22t18 54v73h105v-149h101v-103h-101v-226q0 -32 15 -46.5t47 -14.5q12 0 24 1.5t16 2.5v-96q-5 -2 -21.5 -6t-45.5 -5l-26 -41q43 -1 70 -23.5t27 -60.5q0 -18 -7 -34.5t-21.5 -29t-38 -20.5t-56.5 -8
q-40 0 -70.5 15t-44.5 33l41 50q10 -10 28.5 -22.5t44.5 -12.5q18 0 31 7t13 23q0 12 -10.5 21t-30.5 9q-15 0 -28 -5z" />
    <glyph glyph-name="dotlessj" unicode="&#x237;" horiz-adv-x="260" 
d="M72 487h116v-536q0 -34 -10 -62.5t-29 -49.5t-45.5 -32.5t-60.5 -11.5q-29 0 -45.5 3.5t-20.5 5.5v96q4 -1 14.5 -2t20.5 -1q33 0 46.5 16.5t13.5 46.5v527z" />
    <glyph glyph-name="uni0259" unicode="&#x259;" horiz-adv-x="560" 
d="M156 188q2 -44 33 -75.5t91 -31.5q28 0 49.5 9.5t36.5 24.5t23.5 34t10.5 39h-244zM45 350q10 30 30.5 57.5t50 48.5t67 33.5t81.5 12.5q56 0 101 -18.5t77 -53t49 -82.5t17 -106t-19 -105.5t-51 -81t-75.5 -52t-91.5 -18.5q-55 0 -100 18t-76.5 50.5t-48.5 79t-17 103.5
q0 11 1 22.5t1 12.5h362q-2 58 -37 95t-94 37q-51 0 -84.5 -26t-46.5 -61z" />
    <glyph glyph-name="circumflex" unicode="&#x2c6;" horiz-adv-x="396" 
d="M30 549l107 143h121l108 -143h-99l-70 77l-70 -77h-97z" />
    <glyph glyph-name="caron" unicode="&#x2c7;" horiz-adv-x="396" 
d="M128 694l70 -77l70 77h98l-106 -145h-124l-106 145h98z" />
    <glyph glyph-name="uni02C9" unicode="&#x2c9;" horiz-adv-x="338" 
d="M30 577v90h278v-90h-278z" />
    <glyph glyph-name="breve" unicode="&#x2d8;" horiz-adv-x="369" 
d="M184 547q-38 0 -66 12.5t-47.5 33t-29.5 47t-11 54.5h82q2 -22 18 -41.5t54 -19.5q19 0 32.5 5.5t22.5 14.5t13 19.5t5 21.5h82q-1 -28 -11 -54.5t-29 -47t-48 -33t-67 -12.5z" />
    <glyph glyph-name="dotaccent" unicode="&#x2d9;" horiz-adv-x="184" 
d="M20 622q0 30 21 51t51 21t51 -21t21 -51q0 -29 -21 -50t-51 -21t-51 21t-21 50z" />
    <glyph glyph-name="ring" unicode="&#x2da;" horiz-adv-x="287" 
d="M257 645q0 -24 -9 -44t-25 -34.5t-36.5 -23t-43.5 -8.5t-43 8.5t-36 23t-25 34.5t-9 44t9 44.5t25 35t36 23t43 8.5t43.5 -8.5t36.5 -23t25 -35t9 -44.5zM187 645q0 20 -12.5 32.5t-32.5 12.5q-18 0 -30.5 -12.5t-12.5 -32.5q0 -19 12.5 -31.5t30.5 -12.5q20 0 32.5 12.5
t12.5 31.5z" />
    <glyph glyph-name="ogonek" unicode="&#x2db;" horiz-adv-x="228" 
d="M147 -220q-25 0 -47 7t-38 20.5t-25 33t-9 43.5q0 28 9.5 49.5t24.5 37t33 26.5t35 19l68 -16q-14 -7 -28.5 -16t-26.5 -21t-19.5 -26.5t-7.5 -31.5q0 -24 15.5 -35t35.5 -11q16 0 31 3v-74q-10 -4 -21.5 -6t-29.5 -2z" />
    <glyph glyph-name="tilde" unicode="&#x2dc;" horiz-adv-x="385" 
d="M26 574q0 59 29.5 87t73.5 28q22 0 38.5 -6.5t31.5 -15.5l10 -6q11 -7 21.5 -12t21.5 -5q31 0 31 44h76v-17q0 -59 -29 -88t-73 -29q-22 0 -39 7t-32 16l-10 6q-11 7 -21.5 11.5t-21.5 4.5q-15 0 -22.5 -10t-7.5 -33h-76z" />
    <glyph glyph-name="hungarumlaut" unicode="&#x2dd;" horiz-adv-x="383" 
d="M105 548h-76l52 148h118zM247 548h-76l64 148h119z" />
    <glyph glyph-name="uni0394" unicode="&#x394;" horiz-adv-x="704" 
d="M288 709h129l275 -709h-678zM181 111h343l-172 465z" />
    <glyph glyph-name="uni03A9" unicode="&#x3a9;" horiz-adv-x="804" 
d="M403 614q-42 0 -82.5 -14.5t-72.5 -43t-51.5 -70t-19.5 -95.5q0 -48 16.5 -86.5t42.5 -67.5t59.5 -47.5t68.5 -25.5v-164h-304v109h189q-38 15 -73 41t-62 62.5t-43.5 83t-16.5 100.5q0 76 29 137t77 103.5t111 65t132 22.5t132 -22.5t111 -65t77 -103.5t29 -137
q0 -54 -16.5 -100.5t-43.5 -83t-62.5 -62.5t-72.5 -41h189v-109h-304v164q34 7 68 25.5t60 47.5t42.5 67.5t16.5 86.5q0 54 -19.5 95.5t-51.5 70t-72.5 43t-82.5 14.5z" />
    <glyph glyph-name="uni03BC" unicode="&#x3bc;" horiz-adv-x="576" 
d="M394 54q-18 -33 -56.5 -50.5t-81.5 -17.5q-38 0 -68 12v-188h-116v677h116v-286q0 -23 5.5 -43t17.5 -35t30.5 -24t44.5 -9q51 0 76.5 30.5t25.5 78.5v288h116v-398q0 -32 2 -57t3 -32h-111q-2 8 -3 23.5t-1 30.5z" />
    <glyph glyph-name="pi" unicode="&#x3c0;" horiz-adv-x="620" 
d="M573 5q-6 -2 -22 -7.5t-43 -5.5q-34 0 -58.5 10.5t-41 28.5t-24.5 42t-8 52v262h-147v-387h-115v387h-83v100h540v-100h-80v-248q0 -27 15.5 -37.5t35.5 -10.5q19 0 31 4v-90z" />
    <glyph glyph-name="Wgrave" unicode="&#x1e80;" horiz-adv-x="1032" 
d="M325 883h148l103 -124h-108zM887 709h124l-199 -709h-124l-172 536l-172 -536h-123l-201 709h126l142 -518l166 518h125l169 -522z" />
    <glyph glyph-name="wgrave" unicode="&#x1e81;" horiz-adv-x="828" 
d="M476 487l115 -337l97 337h118l-156 -487h-116l-121 350l-118 -350h-119l-158 487h124l99 -337l115 337h120zM236 696h139l88 -148h-95z" />
    <glyph glyph-name="Wacute" unicode="&#x1e82;" horiz-adv-x="1032" 
d="M569 759h-109l102 124h149zM887 709h124l-199 -709h-124l-172 536l-172 -536h-123l-201 709h126l142 -518l166 518h125l169 -522z" />
    <glyph glyph-name="wacute" unicode="&#x1e83;" horiz-adv-x="828" 
d="M459 548h-95l89 148h137zM476 487l115 -337l97 337h118l-156 -487h-116l-121 350l-118 -350h-119l-158 487h124l99 -337l115 337h120z" />
    <glyph glyph-name="Wdieresis" unicode="&#x1e84;" horiz-adv-x="1032" 
d="M307 821q0 28 19 47.5t47 19.5q29 0 48 -19.5t19 -47.5t-19 -47t-48 -19q-28 0 -47 19t-19 47zM594 821q0 28 18.5 47.5t47.5 19.5q28 0 47 -19.5t19 -47.5t-19 -47t-47 -19q-29 0 -47.5 19t-18.5 47zM887 709h124l-199 -709h-124l-172 536l-172 -536h-123l-201 709h126
l142 -518l166 518h125l169 -522z" />
    <glyph glyph-name="wdieresis" unicode="&#x1e85;" horiz-adv-x="828" 
d="M235 625q0 27 18.5 46t45.5 19q28 0 46.5 -19t18.5 -46q0 -28 -18.5 -46.5t-46.5 -18.5q-27 0 -45.5 18.5t-18.5 46.5zM461 625q0 27 18.5 46t46.5 19q27 0 46 -19t19 -46q0 -28 -19 -46.5t-46 -18.5q-28 0 -46.5 18.5t-18.5 46.5zM476 487l115 -337l97 337h118
l-156 -487h-116l-121 350l-118 -350h-119l-158 487h124l99 -337l115 337h120z" />
    <glyph glyph-name="uni1E8A" unicode="&#x1e8a;" horiz-adv-x="639" 
d="M392 354l235 -354h-144l-165 259l-167 -259h-141l237 355l-235 354h144l165 -260l166 260h141zM245 826q0 31 21.5 52t51.5 21t51.5 -21t21.5 -52q0 -29 -21.5 -50t-51.5 -21t-51.5 21t-21.5 50z" />
    <glyph glyph-name="uni1E8B" unicode="&#x1e8b;" horiz-adv-x="522" 
d="M193 246l-174 241h138q2 -4 10.5 -16t19.5 -28t23.5 -34.5t23.5 -34.5t19.5 -28t10.5 -15l106 156h132l-171 -239l177 -248h-136l-113 163q-3 -4 -11 -16.5t-19.5 -29t-24.5 -36t-24.5 -36t-20 -29t-10.5 -16.5h-133zM189 622q0 30 21 51t51 21t51 -21t21 -51
q0 -29 -21 -50t-51 -21t-51 21t-21 50z" />
    <glyph glyph-name="Ygrave" unicode="&#x1ef2;" horiz-adv-x="651" 
d="M17 709h142l170 -297l171 297h135l-250 -409v-300h-120v300zM144 883h148l103 -124h-108z" />
    <glyph glyph-name="ygrave" unicode="&#x1ef3;" horiz-adv-x="551" 
d="M106 -197l117 255l-208 429h131l140 -308l131 308h123l-310 -684h-124zM116 696h139l88 -148h-95z" />
    <glyph glyph-name="uni2007" unicode="&#x2007;" horiz-adv-x="623" 
 />
    <glyph glyph-name="uni2008" unicode="&#x2008;" horiz-adv-x="265" 
 />
    <glyph glyph-name="uni200B" unicode="&#x200b;" horiz-adv-x="0" 
 />
    <glyph glyph-name="endash" unicode="&#x2013;" horiz-adv-x="646" 
d="M66 242v101h514v-101h-514z" />
    <glyph glyph-name="emdash" unicode="&#x2014;" horiz-adv-x="1078" 
d="M66 242v101h946v-101h-946z" />
    <glyph glyph-name="quoteleft" unicode="&#x2018;" horiz-adv-x="245" 
d="M197 509q0 -27 -20.5 -46.5t-52.5 -19.5q-35 0 -57.5 24.5t-22.5 66.5q0 47 14 80t35.5 55t46.5 33t48 13v-55q-31 -6 -54 -31.5t-25 -57.5q2 1 7.5 3t13.5 2q29 0 48 -18.5t19 -48.5z" />
    <glyph glyph-name="quoteright" unicode="&#x2019;" horiz-adv-x="250" 
d="M54 649q0 27 21 47.5t53 20.5q36 0 59.5 -25.5t23.5 -67.5q0 -49 -14.5 -83t-36.5 -56.5t-48 -33.5t-49 -13v55q31 6 54.5 32t25.5 60q-2 -1 -7.5 -3t-13.5 -2q-30 0 -49 19t-19 50z" />
    <glyph glyph-name="quotesinglbase" unicode="&#x201a;" horiz-adv-x="260" 
d="M52 65q0 28 21 48t53 20q36 0 59.5 -25.5t23.5 -67.5q0 -48 -14.5 -82.5t-36.5 -56.5t-48 -33t-49 -14v56q15 3 29.5 11t25.5 20.5t17.5 28t7.5 32.5q-2 -2 -7.5 -3.5t-13.5 -1.5q-30 0 -49 18.5t-19 49.5z" />
    <glyph glyph-name="quotedblleft" unicode="&#x201c;" horiz-adv-x="430" 
d="M382 512q0 -27 -20.5 -46.5t-52.5 -19.5q-35 0 -57.5 24.5t-22.5 66.5q0 47 14 80t35.5 55t47 33t47.5 13v-55q-15 -3 -29 -11t-24.5 -20t-17 -27t-7.5 -31q2 1 7 3t13 2q30 0 48.5 -18.5t18.5 -48.5zM197 512q0 -27 -20.5 -46.5t-52.5 -19.5q-35 0 -57.5 24.5
t-22.5 66.5q0 47 14 80t35.5 55t46.5 33t48 13v-55q-31 -5 -54 -31t-25 -58q2 1 7.5 3t13.5 2q29 0 48 -18.5t19 -48.5z" />
    <glyph glyph-name="quotedblright" unicode="&#x201d;" horiz-adv-x="430" 
d="M54 648q0 28 20 47.5t52 19.5q35 0 58 -24.5t23 -66.5q0 -47 -14 -80.5t-36 -55t-47.5 -32t-47.5 -13.5v54q31 6 54 31t25 59q-2 -2 -7.5 -3.5t-13.5 -1.5q-29 0 -47.5 18t-18.5 48zM238 648q0 28 20.5 47.5t52.5 19.5q35 0 57.5 -24.5t22.5 -66.5q0 -47 -14 -80.5
t-35.5 -55t-47 -32t-47.5 -13.5v54q31 6 54 31t24 59q-2 -2 -7 -3.5t-13 -1.5q-29 0 -48 18t-19 48z" />
    <glyph glyph-name="quotedblbase" unicode="&#x201e;" horiz-adv-x="441" 
d="M52 63q0 28 20 47.5t52 19.5q35 0 58 -24.5t23 -66.5q0 -47 -14 -80.5t-36 -55t-47.5 -32t-47.5 -13.5v54q31 6 54 31t25 59q-2 -2 -7.5 -3.5t-13.5 -1.5q-29 0 -47.5 18t-18.5 48zM236 63q0 28 20.5 47.5t52.5 19.5q35 0 57.5 -24.5t22.5 -66.5q0 -47 -14 -80.5
t-35.5 -55t-47 -32t-47.5 -13.5v54q31 6 54 31t24 59q-2 -2 -7 -3.5t-13 -1.5q-29 0 -48 18t-19 48z" />
    <glyph glyph-name="dagger" unicode="&#x2020;" horiz-adv-x="417" 
d="M159 162v308h-124v94h124v145h99v-145h124v-94h-124v-308h-99z" />
    <glyph glyph-name="daggerdbl" unicode="&#x2021;" horiz-adv-x="1831" 
d="M1200 -6q17 0 30.5 13t13.5 32q0 24 -21 37q-79 49 -182 80t-239 31q-123 0 -263 -32q-15 -4 -24.5 -15.5t-9.5 -26.5q0 -17 11.5 -30.5t31.5 -13.5q7 0 20 3t21 5q66 14 121.5 18.5t93.5 4.5q107 0 199.5 -25t173.5 -74q12 -7 23 -7zM1277 181q22 0 38.5 16.5t16.5 39.5
q0 14 -6.5 26.5t-19.5 20.5q-107 66 -240 99.5t-270 33.5q-73 0 -144 -10t-138 -30q-18 -5 -28.5 -20t-10.5 -33q0 -22 14 -38t38 -16q9 0 14 1t10.5 2.5t13.5 4t22 5.5q58 14 112.5 19t94.5 5q123 0 241.5 -30t212.5 -88q14 -8 29 -8zM1332 408q15 -9 33 -9q28 0 47.5 19
t19.5 47q0 17 -8.5 32t-24.5 24q-125 72 -277 105.5t-316 33.5q-92 0 -176.5 -11.5t-154.5 -32.5q-22 -7 -34.5 -24.5t-12.5 -38.5q0 -26 18 -46.5t47 -20.5q10 0 19 3q63 19 139 29t161 10q68 0 138 -7t137 -21.5t129.5 -37.5t115.5 -54zM210 327q0 97 25.5 187.5t71.5 169
t110.5 143t143 110.5t168.5 71t187 25t187 -25t168.5 -71t143 -110.5t110.5 -143t71 -169t25 -187.5q0 -98 -25 -188t-71 -168t-110.5 -142.5t-143 -110.5t-168.5 -71t-187 -25t-187 25t-168.5 71t-143 110.5t-110.5 142.5t-71.5 168.5t-25.5 187.5z" />
    <glyph glyph-name="bullet" unicode="&#x2022;" horiz-adv-x="550" 
d="M67 294q0 43 16.5 81.5t45 66.5t66 44.5t80.5 16.5t80.5 -16.5t66 -44.5t45 -66.5t16.5 -81.5q0 -42 -16.5 -80t-45 -66t-66 -44.5t-80.5 -16.5t-80.5 16.5t-66 44.5t-45 66t-16.5 80z" />
    <glyph glyph-name="ellipsis" unicode="&#x2026;" horiz-adv-x="864" 
d="M813 65q0 -30 -21 -51.5t-52 -21.5t-52.5 21.5t-21.5 51.5q0 31 21.5 52.5t52.5 21.5t52 -21.5t21 -52.5zM505 65q0 -30 -21 -51.5t-52 -21.5t-52.5 21.5t-21.5 51.5q0 31 21.5 52.5t52.5 21.5t52 -21.5t21 -52.5zM198 65q0 -30 -21.5 -51.5t-52.5 -21.5
q-30 0 -51.5 21.5t-21.5 51.5q0 31 21.5 52.5t51.5 21.5q31 0 52.5 -21.5t21.5 -52.5z" />
    <glyph glyph-name="perthousand" unicode="&#x2030;" horiz-adv-x="1075" 
d="M133 0l461 709h106l-460 -709h-107zM195 485q31 0 51 20.5t20 53.5q0 32 -20 52t-51 20q-30 0 -50.5 -20t-20.5 -52q0 -33 20.5 -53.5t50.5 -20.5zM32 559q0 34 13 63t35.5 50.5t52 34t62.5 12.5t63 -12.5t52.5 -34t35.5 -50.5t13 -63q0 -35 -13 -64t-35.5 -51t-52.5 -34
t-63 -12t-63 12.5t-52 34t-35 51t-13 63.5zM475 151q0 34 13 63t35.5 50.5t52.5 34t63 12.5q35 0 66 -14t54 -38q23 24 54.5 38t66.5 14q33 0 62.5 -12.5t52 -34t36 -50.5t13.5 -63q0 -35 -13.5 -64t-36 -51t-52 -34t-62.5 -12q-36 0 -67 14t-54 38q-23 -24 -54.5 -38
t-66.5 -14q-33 0 -62.5 12.5t-52 34t-35.5 51t-13 63.5zM568 151q0 -33 20.5 -53.5t50.5 -20.5t50 21t20 53t-20 52.5t-50 20.5t-50.5 -20.5t-20.5 -52.5zM880 224q-30 0 -50.5 -20.5t-20.5 -52.5q0 -33 20.5 -53.5t50.5 -20.5t50 21t20 53t-20 52.5t-50 20.5z" />
    <glyph glyph-name="guilsinglleft" unicode="&#x2039;" horiz-adv-x="327" 
d="M171 100l-135 193l136 194h111l-134 -195l133 -192h-111z" />
    <glyph glyph-name="guilsinglright" unicode="&#x203a;" horiz-adv-x="327" 
d="M45 100l133 192l-134 195h112l135 -194l-135 -193h-111z" />
    <glyph glyph-name="uni2042" unicode="&#x2042;" horiz-adv-x="828" 
d="M453 595l106 35l25 -76l-107 -35l69 -91l-64 -47l-71 93l-66 -92l-66 47l68 90l-107 35l25 76l105 -36v115h83v-114zM243 203l106 35l25 -76l-107 -35l69 -91l-64 -47l-71 93l-66 -92l-66 47l68 90l-107 35l25 76l105 -36v115h83v-114zM667 203l106 35l25 -76l-107 -35
l69 -91l-64 -47l-71 93l-66 -92l-66 47l68 90l-107 35l25 76l105 -36v115h83v-114z" />
    <glyph glyph-name="fraction" unicode="&#x2044;" horiz-adv-x="161" 
d="M363 709l-460 -709h-102l461 709h101z" />
    <glyph glyph-name="uni2051" unicode="&#x2051;" horiz-adv-x="444" 
d="M262 595l106 35l25 -76l-107 -35l69 -91l-64 -47l-71 93l-66 -92l-66 47l68 90l-107 35l25 76l105 -36v115h83v-114zM262 205l106 35l25 -76l-107 -35l69 -91l-64 -47l-71 93l-66 -92l-66 47l68 90l-107 35l25 76l105 -36v115h83v-114z" />
    <glyph glyph-name="uni2070" unicode="&#x2070;" horiz-adv-x="389" 
d="M126 526q0 -20 2.5 -40t9.5 -36.5t20.5 -27t35.5 -10.5t35.5 10.5t21 27t9.5 36.5t2 40q0 19 -2 39.5t-9.5 37.5t-21 27.5t-35.5 10.5t-35.5 -10.5t-20.5 -27t-9.5 -37t-2.5 -40.5zM34 526q0 34 7.5 68t26 61.5t49.5 44.5t77 17q47 0 78 -17.5t49.5 -45t26 -61.5t7.5 -67
t-7.5 -66.5t-26 -61t-49.5 -45t-78 -17.5t-78 17t-49 44.5t-25.5 61.5t-7.5 67z" />
    <glyph glyph-name="uni2074" unicode="&#x2074;" horiz-adv-x="383" 
d="M25 502l172 207h99v-222h62v-73h-62v-71h-90v71h-181v88zM206 612l-103 -125h103v125z" />
    <glyph glyph-name="uni2075" unicode="&#x2075;" horiz-adv-x="349" 
d="M104 464q5 -24 23 -38t43 -14q26 0 42.5 13.5t16.5 39.5q0 29 -17 42.5t-43 13.5q-18 0 -32.5 -6.5t-25.5 -17.5l-74 24l47 188h214v-75h-158l-19 -73q13 13 32.5 19t39.5 6q57 0 91.5 -31.5t34.5 -87.5q0 -27 -10 -51t-28.5 -41.5t-46.5 -28t-64 -10.5q-29 0 -53.5 8.5
t-43.5 22.5t-31.5 32.5t-16.5 39.5z" />
    <glyph glyph-name="uni2076" unicode="&#x2076;" horiz-adv-x="371" 
d="M307 631q-29 12 -64 12q-43 0 -76 -22t-43 -70q14 17 37.5 27t49.5 10q57 0 93.5 -31t36.5 -91q0 -29 -11.5 -53.5t-31.5 -41.5t-48 -26.5t-61 -9.5q-30 0 -58.5 10.5t-50 31.5t-34.5 52.5t-13 73.5q0 49 15.5 89t43 67.5t65 42.5t80.5 15q24 0 47 -5t41 -13zM129 464
q0 -26 19 -40.5t42 -14.5t41.5 14.5t18.5 40.5t-18.5 41t-41.5 15t-42 -15t-19 -41z" />
    <glyph glyph-name="uni2077" unicode="&#x2077;" horiz-adv-x="343" 
d="M325 632q-13 -10 -35.5 -31t-45.5 -56t-42 -85t-25 -117h-96q6 71 27.5 125t44.5 91q27 43 60 74h-191v76h303v-77z" />
    <glyph glyph-name="uni2078" unicode="&#x2078;" horiz-adv-x="368" 
d="M184 562q24 0 37 12.5t13 30.5q0 16 -12.5 28t-37.5 12t-38 -12t-13 -28q0 -18 13.5 -30.5t37.5 -12.5zM184 408q31 0 45.5 13t14.5 33q0 18 -15 31t-45 13t-45.5 -13t-15.5 -31q0 -20 15 -33t46 -13zM184 335q-72 0 -111.5 30.5t-39.5 78.5q0 29 19.5 52.5t51.5 34.5
q-29 11 -44.5 33t-15.5 48q0 46 38 75.5t102 29.5t101.5 -29.5t37.5 -75.5q0 -26 -15 -48t-44 -33q32 -11 51.5 -34t19.5 -51q0 -48 -39 -79.5t-112 -31.5z" />
    <glyph glyph-name="uni2079" unicode="&#x2079;" horiz-adv-x="369" 
d="M65 422q14 -5 29.5 -9t32.5 -4q45 0 79 21t42 71q-14 -17 -38 -27t-50 -10q-27 0 -50.5 8t-41.5 23.5t-28.5 38.5t-10.5 52t11 53t31.5 41.5t48.5 27t61 9.5q30 0 58 -10.5t49.5 -30.5t34.5 -51t13 -71q0 -53 -15 -94t-41 -68.5t-63 -42t-80 -14.5q-24 0 -47.5 4.5
t-41.5 12.5zM239 587q0 26 -18 41t-43 15q-24 0 -42 -15t-18 -41t18 -41t42 -15q25 0 43 15t18 41z" />
    <glyph glyph-name="uni2080" unicode="&#x2080;" horiz-adv-x="389" 
d="M126 110q0 -20 2.5 -40t9.5 -36.5t20.5 -27t35.5 -10.5t35.5 10.5t21 27t9.5 36.5t2 40q0 19 -2 39.5t-9.5 37.5t-21 27.5t-35.5 10.5t-35.5 -10.5t-20.5 -27t-9.5 -37t-2.5 -40.5zM34 110q0 34 7.5 68t26 61.5t49.5 44.5t77 17q47 0 78 -17.5t49.5 -45t26 -61.5t7.5 -67
t-7.5 -66.5t-26 -61t-49.5 -45t-78 -17.5t-78 17t-49 44.5t-25.5 61.5t-7.5 67z" />
    <glyph glyph-name="uni2081" unicode="&#x2081;" horiz-adv-x="249" 
d="M111 -90v233h-89v60q43 1 68 23.5t30 49.5h82v-366h-91z" />
    <glyph glyph-name="uni2082" unicode="&#x2082;" horiz-adv-x="354" 
d="M42 133q-3 15 -3 30q0 24 9 46t26.5 38.5t43.5 26.5t59 10t58.5 -9.5t43 -26t26.5 -38t9 -45.5q0 -35 -20 -62.5t-55 -48.5l-71 -43q-17 -12 -20 -25h169v-76h-281v12q0 48 19.5 85.5t67.5 66.5l60 36q41 24 41 56q0 17 -12 30.5t-37 13.5q-24 0 -38 -14.5t-14 -37.5
q0 -4 0.5 -11t2.5 -13z" />
    <glyph glyph-name="uni2083" unicode="&#x2083;" horiz-adv-x="365" 
d="M108 36q4 -25 22.5 -41.5t46.5 -16.5t44.5 14.5t16.5 34.5q0 28 -19 39.5t-42 11.5q-16 0 -31 -6l-32 61l91 69h-164v75h279v-72l-94 -69q45 -5 74 -33t29 -77q0 -25 -10.5 -47.5t-30 -39t-47.5 -26.5t-63 -10q-33 0 -59.5 9.5t-45 24.5t-30 34.5t-15.5 40.5z" />
    <glyph glyph-name="uni2084" unicode="&#x2084;" horiz-adv-x="385" 
d="M26 69l172 207h99v-222h62v-73h-62v-71h-90v71h-181v88zM207 179l-103 -125h103v125z" />
    <glyph glyph-name="uni2085" unicode="&#x2085;" horiz-adv-x="351" 
d="M105 31q5 -24 23 -38t43 -14q26 0 42.5 13.5t16.5 39.5q0 29 -17 42.5t-43 13.5q-18 0 -32.5 -6.5t-25.5 -17.5l-74 24l47 188h214v-75h-158l-19 -73q13 13 32.5 19t39.5 6q57 0 91.5 -31.5t34.5 -87.5q0 -27 -10 -51t-28.5 -41.5t-46.5 -28t-64 -10.5q-29 0 -53.5 8.5
t-43.5 22.5t-31.5 32.5t-16.5 39.5z" />
    <glyph glyph-name="uni2086" unicode="&#x2086;" horiz-adv-x="372" 
d="M307 199q-29 12 -64 12q-43 0 -76 -22t-43 -70q14 17 37.5 27t49.5 10q57 0 93.5 -31t36.5 -91q0 -29 -11.5 -53.5t-31.5 -41.5t-48 -26.5t-61 -9.5q-30 0 -58.5 10.5t-50 31.5t-34.5 52.5t-13 73.5q0 49 15.5 89t43 67.5t65 42.5t80.5 15q24 0 47 -5t41 -13zM129 32
q0 -26 19 -40.5t42 -14.5t41.5 14.5t18.5 40.5t-18.5 41t-41.5 15t-42 -15t-19 -41z" />
    <glyph glyph-name="uni2087" unicode="&#x2087;" horiz-adv-x="344" 
d="M326 199q-13 -10 -35.5 -31t-45.5 -56t-42 -85t-25 -117h-96q6 71 27.5 125t44.5 91q27 43 60 74h-191v76h303v-77z" />
    <glyph glyph-name="uni2088" unicode="&#x2088;" horiz-adv-x="369" 
d="M185 129q24 0 37 12.5t13 30.5q0 16 -12.5 28t-37.5 12t-38 -12t-13 -28q0 -18 13.5 -30.5t37.5 -12.5zM185 -25q31 0 45.5 13t14.5 33q0 18 -15 31t-45 13t-45.5 -13t-15.5 -31q0 -20 15 -33t46 -13zM185 -98q-72 0 -111.5 30.5t-39.5 78.5q0 29 19.5 52.5t51.5 34.5
q-29 11 -44.5 33t-15.5 48q0 46 38 75.5t102 29.5t101.5 -29.5t37.5 -75.5q0 -26 -15 -48t-44 -33q32 -11 51.5 -34t19.5 -51q0 -48 -39 -79.5t-112 -31.5z" />
    <glyph glyph-name="uni2089" unicode="&#x2089;" horiz-adv-x="370" 
d="M66 -10q14 -5 29.5 -9t32.5 -4q45 0 79 21t42 71q-14 -17 -38 -27t-50 -10q-27 0 -50.5 8t-41.5 23.5t-28.5 38.5t-10.5 52t11 53t31.5 41.5t48.5 27t61 9.5q30 0 58 -10.5t49.5 -30.5t34.5 -51t13 -71q0 -53 -15 -94t-41 -68.5t-63 -42t-80 -14.5q-24 0 -47.5 4.5
t-41.5 12.5zM240 155q0 26 -18 41t-43 15q-24 0 -42 -15t-18 -41t18 -41t42 -15q25 0 43 15t18 41z" />
    <glyph glyph-name="Euro" unicode="&#x20ac;" horiz-adv-x="730" 
d="M697 59q-35 -30 -90 -51.5t-122 -21.5q-61 0 -116.5 16t-100.5 47.5t-78.5 77.5t-49.5 106h-97v85h80q-2 12 -2 18.5v18.5v14t1 17h-79v85h96q17 60 51.5 107t81.5 79.5t103 49t116 16.5t106.5 -14.5t76.5 -35.5l-46 -93q-51 37 -137 37q-35 0 -70 -8.5t-65.5 -26.5
t-54.5 -45.5t-37 -65.5h307l-38 -85h-289q-1 -7 -1.5 -15.5t-0.5 -16.5q0 -9 0.5 -19t1.5 -17h259q-2 -5 -7.5 -17t-11.5 -25.5t-11.5 -25.5t-7.5 -17h-197q12 -36 34.5 -62.5t52 -43.5t63 -25.5t67.5 -8.5q50 0 91 15t67 38z" />
    <glyph glyph-name="uni2113" unicode="&#x2113;" horiz-adv-x="416" 
d="M373 22q-14 -11 -39 -19t-63 -8q-72 0 -116.5 39t-44.5 111v104q-17 -6 -34.5 -11.5t-35.5 -9.5v101q16 4 33.5 10.5t36.5 14.5v205q0 39 11 69.5t30.5 51t45 31.5t55.5 11q67 0 103.5 -40t36.5 -111q0 -41 -13 -80.5t-36.5 -75.5t-56 -67.5t-72.5 -56.5v-115
q0 -43 22 -62t55 -19q28 0 48 6t34 15v-94zM214 414q32 29 53 70t21 91q0 23 -8.5 37t-25.5 14t-28.5 -13.5t-11.5 -47.5v-151z" />
    <glyph glyph-name="trademark" unicode="&#x2122;" horiz-adv-x="882" 
d="M228 632v-288h-86v288h-107v77h300v-77h-107zM729 344v227l-95 -227h-64l-93 224v-224h-84v365h115l97 -232l95 232h111v-365h-82z" />
    <glyph glyph-name="Omega" unicode="&#x2126;" horiz-adv-x="806" 
d="M403 614q-42 0 -82.5 -14.5t-72.5 -43t-51.5 -70t-19.5 -95.5q0 -48 16.5 -86.5t42.5 -67.5t59.5 -47.5t68.5 -25.5v-164h-304v109h189q-38 15 -73 41t-62 62.5t-43.5 83t-16.5 100.5q0 76 29 137t77 103.5t111 65t132 22.5t132 -22.5t111 -65t77 -103.5t29 -137
q0 -54 -16.5 -100.5t-43.5 -83t-62.5 -62.5t-72.5 -41h189v-109h-304v164q34 7 68 25.5t60 47.5t42.5 67.5t16.5 86.5q0 54 -19.5 95.5t-51.5 70t-72.5 43t-82.5 14.5z" />
    <glyph glyph-name="uni2160" unicode="&#x2160;" horiz-adv-x="484" 
d="M443 605h-141v-501h141v-104h-402v104h142v501h-142v104h402v-104z" />
    <glyph glyph-name="uni2161" unicode="&#x2161;" horiz-adv-x="772" 
d="M731 605h-145v-501h145v-104h-690v104h146v501h-146v104h690v-104zM306 104h161v501h-161v-501z" />
    <glyph glyph-name="uni2162" unicode="&#x2162;" horiz-adv-x="1043" 
d="M1002 605h-144v-501h144v-104h-961v104h146v501h-146v104h961v-104zM306 104h157v501h-157v-501zM739 104v501h-157v-501h157z" />
    <glyph glyph-name="uni2163" unicode="&#x2163;" horiz-adv-x="1040" 
d="M999 0h-958v104h143v501h-143v104h958v-104h-103l-141 -501h244v-104zM303 605v-501h227l-141 501h-86zM769 605h-253l126 -466z" />
    <glyph glyph-name="uni2164" unicode="&#x2164;" horiz-adv-x="790" 
d="M749 0h-708v104h244l-141 501h-103v104h709v-104h-99l-141 -501h239v-104zM524 605h-253l127 -466z" />
    <glyph glyph-name="uni2165" unicode="&#x2165;" horiz-adv-x="1036" 
d="M738 605h-86l-141 -501h227v501zM525 605h-254l127 -466zM41 104h244l-140 501h-104v104h954v-104h-138v-501h138v-104h-954v104z" />
    <glyph glyph-name="uni2166" unicode="&#x2166;" horiz-adv-x="1316" 
d="M1276 605h-145v-501h144v-104h-1234v104h244l-140 501h-104v104h1235v-104zM511 104h227v501h-86zM857 104h155v501h-155v-501zM525 605h-254l127 -466z" />
    <glyph glyph-name="uni2167" unicode="&#x2167;" horiz-adv-x="1580" 
d="M1540 605h-145v-501h144v-104h-1498v104h244l-140 501h-104v104h1499v-104zM511 104h226v501h-85zM856 104h152v501h-152v-501zM1127 104h149v501h-149v-501zM525 605h-254l127 -466z" />
    <glyph glyph-name="uni2168" unicode="&#x2168;" horiz-adv-x="1013" 
d="M700 354l167 -250h105v-104h-931v104h143v501h-143v104h931v-104h-103zM387 605h-84v-501h85l167 249zM724 104l-97 151l-97 -151h194zM629 451l98 154h-197z" />
    <glyph glyph-name="uni2169" unicode="&#x2169;" horiz-adv-x="766" 
d="M454 353l167 -249h104v-104h-684v104h103l166 247l-170 254h-99v104h684v-104h-100zM477 104l-95 150l-97 -150h192zM383 450l100 155h-199z" />
    <glyph glyph-name="uni216C" unicode="&#x216c;" horiz-adv-x="639" 
d="M41 0v104h124v501h-124v104h378v-104h-134v-501h205v186h114v-290h-563z" />
    <glyph glyph-name="uni216D" unicode="&#x216d;" horiz-adv-x="782" 
d="M604 86q-27 -40 -78.5 -70t-132.5 -30q-72 0 -135.5 25.5t-111 73.5t-75 116t-27.5 153q0 84 28 152.5t75 116.5t110 74t134 26q40 0 72.5 -8t58 -22t44.5 -32t33 -37v85h116v-254h-116q-6 29 -20 58.5t-38.5 53t-60 38t-84.5 14.5q-45 0 -87.5 -16.5t-75.5 -49.5
t-53.5 -83t-20.5 -116q0 -63 19.5 -111.5t52 -82t76 -50.5t91.5 -17q50 0 86 15.5t61 39.5t39 53.5t20 57.5h116v-259h-116v86z" />
    <glyph glyph-name="uni216E" unicode="&#x216e;" horiz-adv-x="766" 
d="M369 104q48 0 90 14t73 44.5t49 78t18 113.5t-18 113.5t-49 78t-73 45t-90 14.5h-79v-501h79zM377 709q74 0 137 -23.5t109 -68.5t72 -111.5t26 -151.5q0 -86 -26 -152t-72 -111t-109.5 -68t-138.5 -23h-334v104h130v501h-130v104h336z" />
    <glyph glyph-name="uni216F" unicode="&#x216f;" horiz-adv-x="1051" 
d="M525 181l189 528h295v-104h-120v-501h122v-104h-331v104h91v428l-194 -529h-106l-194 526v-425h89v-104h-325v104h120v501h-120v104h288z" />
    <glyph glyph-name="arrowleft" unicode="&#x2190;" horiz-adv-x="1069" 
d="M31 292l274 225v-175h716v-100h-716v-174z" />
    <glyph glyph-name="arrowup" unicode="&#x2191;" horiz-adv-x="484" 
d="M458 543h-165v-690h-100v690h-167l217 257z" />
    <glyph glyph-name="arrowright" unicode="&#x2192;" horiz-adv-x="1069" 
d="M764 68v174h-716v100h716v175l274 -225z" />
    <glyph glyph-name="arrowdown" unicode="&#x2193;" horiz-adv-x="501" 
d="M251 -157l-225 262h174v686h101v-686h174z" />
    <glyph glyph-name="uni2196" unicode="&#x2196;" horiz-adv-x="800" 
d="M368 709l-121 -122l527 -526l-71 -71l-527 526l-122 -123v316h314z" />
    <glyph glyph-name="uni2197" unicode="&#x2197;" horiz-adv-x="800" 
d="M746 709v-316l-123 123l-526 -526l-71 71l527 526l-121 122h314z" />
    <glyph glyph-name="uni2198" unicode="&#x2198;" horiz-adv-x="801" 
d="M432 0l121 122l-527 526l71 71l526 -527l123 124v-316h-314z" />
    <glyph glyph-name="uni2199" unicode="&#x2199;" horiz-adv-x="801" 
d="M55 0v316l122 -124l527 527l71 -71l-527 -526l121 -122h-314z" />
    <glyph glyph-name="uni21A9" unicode="&#x21a9;" horiz-adv-x="912" 
d="M443 657h193q51 0 94 -16.5t74 -45t48 -68t17 -84.5q0 -44 -17 -83t-47 -68t-72.5 -46t-93.5 -17h-366v-156l-244 207l244 208v-158h362q58 0 95 31.5t37 81.5q0 54 -38 84t-97 30h-189v100z" />
    <glyph glyph-name="uni21B0" unicode="&#x21b0;" horiz-adv-x="765" 
d="M26 517l245 207v-157h418v-567h-100v467h-318v-157z" />
    <glyph glyph-name="uni21B1" unicode="&#x21b1;" horiz-adv-x="798" 
d="M76 0v567h452v157l244 -207l-244 -207v157h-352v-467h-100z" />
    <glyph glyph-name="uni21B2" unicode="&#x21b2;" horiz-adv-x="800" 
d="M723 709v-567h-453v-157l-244 207l244 207v-157h352v467h101z" />
    <glyph glyph-name="uni21B3" unicode="&#x21b3;" horiz-adv-x="800" 
d="M774 192l-244 -207v157h-453v567h101v-467h352v157z" />
    <glyph glyph-name="uni21B4" unicode="&#x21b4;" horiz-adv-x="789" 
d="M32 709h572v-484h157l-206 -241l-207 241h156v384h-472v100z" />
    <glyph glyph-name="uni21B5" unicode="&#x21b5;" horiz-adv-x="1077" 
d="M25 355h143q0 77 29.5 144t79.5 117t117 79t144 29q48 0 93 -11.5t84 -32.5l-45 -90q-62 34 -131 34q-56 0 -105.5 -21t-86 -57.5t-57.5 -85.5t-21 -105h153l-198 -233zM906 353q0 -77 -29.5 -144t-79.5 -116.5t-117.5 -78.5t-143.5 -29q-48 0 -92.5 11.5t-84.5 32.5
l45 90q62 -34 132 -34q56 0 105 21t85 57.5t57 85.5t21 105h-150l199 232l199 -233h-146z" />
    <glyph glyph-name="uni21C6" unicode="&#x21c6;" horiz-adv-x="1091" 
d="M34 549l244 208v-158h756v-101h-756v-156zM814 -41v157h-755v100h755v157l244 -207z" />
    <glyph glyph-name="partialdiff" unicode="&#x2202;" horiz-adv-x="621" 
d="M251 617q-23 0 -61.5 -6t-81.5 -27l-40 92q48 26 98.5 36t92.5 10q31 0 66.5 -6t70 -21.5t67 -42.5t57 -68.5t39 -99.5t14.5 -136q0 -80 -17.5 -147t-53 -115t-88.5 -74.5t-124 -26.5q-48 0 -92.5 15t-79 45t-55.5 75t-21 105q0 55 20.5 98t54.5 72.5t78 45t91 15.5
q65 0 105 -17.5t60 -39.5q-6 60 -23 101.5t-42.5 67.5t-60 37.5t-74.5 11.5zM309 356q-38 0 -66 -10.5t-46.5 -29.5t-28 -44t-9.5 -53q0 -31 11.5 -54.5t31 -40t43.5 -25t50 -8.5q42 0 72 18t49 46.5t28 65t9 72.5q-24 31 -61.5 47t-82.5 16z" />
    <glyph glyph-name="Delta" unicode="&#x2206;" horiz-adv-x="732" 
d="M301 709h129l275 -709h-678zM194 111h343l-172 465z" />
    <glyph glyph-name="product" unicode="&#x220f;" horiz-adv-x="658" 
d="M469 0v600h-278v-600h-120v709h516v-709h-118z" />
    <glyph glyph-name="summation" unicode="&#x2211;" horiz-adv-x="606" 
d="M48 107l263 248l-263 247v107h507v-111h-344l260 -243l-269 -244h353v-111h-507v107z" />
    <glyph glyph-name="minus" unicode="&#x2212;" horiz-adv-x="582" 
d="M65 301v96h452v-96h-452z" />
    <glyph glyph-name="uni2215" unicode="&#x2215;" horiz-adv-x="408" 
d="M96 0h-108l314 648h108z" />
    <glyph glyph-name="uni2219" unicode="&#x2219;" horiz-adv-x="272" 
d="M57 298q0 33 23 55.5t56 22.5q32 0 55.5 -22.5t23.5 -55.5t-23.5 -55t-55.5 -22q-33 0 -56 22t-23 55z" />
    <glyph glyph-name="radical" unicode="&#x221a;" horiz-adv-x="699" 
d="M567 773l-261 -773h-106l-190 534h120l124 -364l231 704h208v-101h-126z" />
    <glyph glyph-name="infinity" unicode="&#x221e;" horiz-adv-x="820" 
d="M148 346q0 -34 22.5 -56.5t60.5 -22.5q32 0 60 22t56 55q-29 35 -56 58.5t-60 23.5q-38 0 -60.5 -22.5t-22.5 -57.5zM672 346q0 35 -22 57.5t-60 22.5q-34 0 -61 -22t-56 -57q29 -34 56.5 -57t60.5 -23q38 0 60 22.5t22 56.5zM409 270q-45 -49 -87.5 -75t-92.5 -26
q-40 0 -74 13.5t-58.5 37.5t-38.5 56.5t-14 70.5t14 71t38.5 57t58.5 37.5t74 13.5q50 0 95.5 -26t87.5 -76q44 49 87 75.5t93 26.5q40 0 73.5 -13.5t58 -37.5t38.5 -57t14 -71t-14 -70.5t-38.5 -56.5t-58 -37.5t-73.5 -13.5q-99 0 -183 101z" />
    <glyph glyph-name="integral" unicode="&#x222b;" horiz-adv-x="360" 
d="M123 536q0 81 46 127t127 46h45v-103h-38q-29 0 -47 -18t-18 -53v-551q0 -81 -44.5 -127.5t-125.5 -46.5h-49v103h39q29 0 47 19t18 54v550z" />
    <glyph glyph-name="approxequal" unicode="&#x2248;" horiz-adv-x="628" 
d="M573 453q-28 -45 -67.5 -69t-87.5 -24q-51 0 -105 30l-47 26q-30 16 -58 16q-50 0 -88 -47l-64 54q29 46 68 70t85 24q26 0 52.5 -7t54.5 -23l46 -26q31 -17 63 -17q24 0 46 11t40 34zM573 254q-28 -45 -68 -68.5t-87 -23.5q-51 0 -105 30l-47 26q-29 15 -57 15
q-24 0 -47 -11.5t-42 -34.5l-64 54q29 46 68 70t86 24q50 0 106 -30l46 -26q16 -8 31.5 -13t31.5 -5q50 0 86 46z" />
    <glyph glyph-name="notequal" unicode="&#x2260;" horiz-adv-x="608" 
d="M83 105l69 98h-86v96h150l71 102h-221v94h285l66 94h109l-65 -94h80v-94h-144l-71 -102h215v-96h-280l-68 -98h-110z" />
    <glyph glyph-name="lessequal" unicode="&#x2264;" horiz-adv-x="566" 
d="M67 368v98l422 140v-99l-291 -89l291 -89v-100zM67 104v96h422v-96h-422z" />
    <glyph glyph-name="greaterequal" unicode="&#x2265;" horiz-adv-x="566" 
d="M77 328l291 89l-291 90v99l422 -140v-98l-422 -139v99zM77 104v96h422v-96h-422z" />
    <glyph glyph-name="dotmath" unicode="&#x22c5;" horiz-adv-x="272" 
d="M57 298q0 33 23 55.5t56 22.5q32 0 55.5 -22.5t23.5 -55.5t-23.5 -55t-55.5 -22q-33 0 -56 22t-23 55z" />
    <glyph glyph-name="uni24C5" unicode="&#x24c5;" horiz-adv-x="818" 
d="M124 355q0 -62 22 -116t60 -93.5t90 -62t112 -22.5t111.5 22.5t90 62t60.5 93.5t22 116t-22 115.5t-60.5 93t-90 62t-111.5 22.5t-112 -22.5t-90 -62t-60 -93t-22 -115.5zM42 355q0 76 28.5 143t78 117.5t116.5 79.5t143 29t143 -29t117 -79.5t79 -117.5t29 -143
q0 -77 -29 -144t-79 -117.5t-117 -79.5t-143 -29t-143 29t-116.5 79.5t-78 117.5t-28.5 144zM432 369q30 0 47 15.5t17 41.5t-17 42t-47 16h-61v-115h61zM371 296v-140h-86v401h162q29 0 54 -10.5t43.5 -28t29 -41.5t10.5 -51t-10.5 -50.5t-29 -41.5t-43.5 -28t-54 -10h-76z
" />
    <glyph glyph-name="filledbox" unicode="&#x25a0;" horiz-adv-x="838" 
d="M67 709h704v-709h-704v709z" />
    <glyph glyph-name="H22073" unicode="&#x25a1;" horiz-adv-x="838" 
d="M67 0v709h704v-709h-704zM167 95h503v518h-503v-518z" />
    <glyph glyph-name="uni25AF" unicode="&#x25af;" horiz-adv-x="569" 
d="M67 0v709h435v-709h-435zM164 93h241v524h-241v-524z" />
    <glyph glyph-name="triagup" unicode="&#x25b2;" horiz-adv-x="882" 
d="M860 0h-838l420 724z" />
    <glyph glyph-name="uni25B3" unicode="&#x25b3;" horiz-adv-x="881" 
d="M859 0h-837l420 724zM441 525l-247 -430h493z" />
    <glyph glyph-name="lozenge" unicode="&#x25ca;" horiz-adv-x="582" 
d="M291 123l134 231l-134 232l-135 -232zM233 709h116l205 -355l-205 -354h-116l-205 354z" />
    <glyph glyph-name="circle" unicode="&#x25cb;" horiz-adv-x="825" 
d="M42 354q0 77 29 144.5t79 117.5t117.5 79t144.5 29t144.5 -29t118 -79t79.5 -117.5t29 -144.5t-29 -144t-79.5 -117t-118 -79t-144.5 -29t-144.5 29t-117.5 79t-79 117t-29 144zM143 354q0 -57 21 -106.5t57.5 -86t85.5 -58t105 -21.5t105 21.5t85.5 58t57.5 86t21 106.5
t-21 106.5t-57.5 86t-85.5 58t-105 21.5t-105 -21.5t-85.5 -58t-57.5 -86t-21 -106.5z" />
    <glyph glyph-name="H18533" unicode="&#x25cf;" horiz-adv-x="825" 
d="M42 354q0 77 29 144.5t79 117.5t117.5 79t144.5 29t144.5 -29t118 -79t79.5 -117.5t29 -144.5t-29 -144t-79.5 -117t-118 -79t-144.5 -29t-144.5 29t-117.5 79t-79 117t-29 144z" />
    <glyph glyph-name="uni262E" unicode="&#x262e;" horiz-adv-x="818" 
d="M776 355q0 -77 -29 -144t-78.5 -117.5t-117 -79.5t-143.5 -29t-143 29t-116.5 79.5t-78 117.5t-28.5 144q0 76 28.5 143t78 117.5t116.5 79.5t143 29t143.5 -29t117 -79.5t78.5 -117.5t29 -143zM677 355q0 52 -17 97.5t-46.5 81.5t-70 60t-87.5 33v-215l192 -179
q14 27 21.5 57.5t7.5 64.5zM138 355q0 -66 28 -120l191 177v214q-47 -9 -87.5 -33t-69.5 -60t-45.5 -81.5t-16.5 -96.5zM456 82q39 7 73.5 25t62.5 45l-136 130v-200zM221 153q56 -57 136 -71v200z" />
    <glyph glyph-name="uni2713" unicode="&#x2713;" horiz-adv-x="964" 
d="M315 -17l-288 321l73 68l219 -239l551 594l71 -71z" />
    <glyph glyph-name="uni2715" unicode="&#x2715;" horiz-adv-x="771" 
d="M385 284l-285 -289l-70 71l284 289l-284 287l72 71l283 -287l282 287l71 -71l-283 -287l287 -289l-71 -71z" />
    <glyph glyph-name="uni2780" unicode="&#x2780;" horiz-adv-x="819" 
d="M124 355q0 -62 22 -116t60.5 -93.5t90.5 -62t112 -22.5t111.5 22.5t90 62t60.5 93.5t22 116t-22 115.5t-60.5 93t-90 62t-111.5 22.5t-112 -22.5t-90.5 -62t-60.5 -93t-22 -115.5zM42 355q0 76 29 143t78.5 117.5t116.5 79.5t143 29t143 -29t117 -79.5t79 -117.5t29 -143
q0 -77 -29 -144t-79 -117.5t-117 -79.5t-143 -29t-143 29t-116.5 79.5t-78.5 117.5t-29 144zM379 172v233h-89v60q43 1 68 23.5t30 49.5h82v-366h-91z" />
    <glyph glyph-name="uni2781" unicode="&#x2781;" horiz-adv-x="819" 
d="M124 355q0 -62 22 -116t60.5 -93.5t90.5 -62t112 -22.5t111.5 22.5t90 62t60.5 93.5t22 116t-22 115.5t-60.5 93t-90 62t-111.5 22.5t-112 -22.5t-90.5 -62t-60.5 -93t-22 -115.5zM42 355q0 76 29 143t78.5 117.5t116.5 79.5t143 29t143 -29t117 -79.5t79 -117.5t29 -143
q0 -77 -29 -144t-79 -117.5t-117 -79.5t-143 -29t-143 29t-116.5 79.5t-78.5 117.5t-29 144zM270 403q-3 15 -3 30q0 24 9 46t26.5 38.5t43.5 26.5t59 10t58.5 -9.5t43 -26t26.5 -38t9 -45.5q0 -35 -20 -62.5t-55 -48.5l-71 -43q-17 -12 -20 -25h169v-76h-281v12
q0 48 19.5 85.5t67.5 66.5l60 36q41 24 41 56q0 17 -12 30.5t-37 13.5q-24 0 -38 -14.5t-14 -37.5q0 -4 0.5 -11t2.5 -13z" />
    <glyph glyph-name="uni2782" unicode="&#x2782;" horiz-adv-x="819" 
d="M124 355q0 -62 22 -116t60.5 -93.5t90.5 -62t112 -22.5t111.5 22.5t90 62t60.5 93.5t22 116t-22 115.5t-60.5 93t-90 62t-111.5 22.5t-112 -22.5t-90.5 -62t-60.5 -93t-22 -115.5zM42 355q0 76 29 143t78.5 117.5t116.5 79.5t143 29t143 -29t117 -79.5t79 -117.5t29 -143
q0 -77 -29 -144t-79 -117.5t-117 -79.5t-143 -29t-143 29t-116.5 79.5t-78.5 117.5t-29 144zM333 295q4 -25 22.5 -41.5t46.5 -16.5t44.5 14.5t16.5 34.5q0 28 -19 39.5t-42 11.5q-16 0 -31 -6l-32 61l91 69h-164v75h279v-72l-94 -69q45 -5 74 -33t29 -77q0 -25 -10.5 -47.5
t-30 -39t-47.5 -26.5t-63 -10q-33 0 -59.5 9.5t-45 24.5t-30 34.5t-15.5 40.5z" />
    <glyph glyph-name="uni2783" unicode="&#x2783;" horiz-adv-x="819" 
d="M124 355q0 -62 22 -116t60.5 -93.5t90.5 -62t112 -22.5t111.5 22.5t90 62t60.5 93.5t22 116t-22 115.5t-60.5 93t-90 62t-111.5 22.5t-112 -22.5t-90.5 -62t-60.5 -93t-22 -115.5zM42 355q0 76 29 143t78.5 117.5t116.5 79.5t143 29t143 -29t117 -79.5t79 -117.5t29 -143
q0 -77 -29 -144t-79 -117.5t-117 -79.5t-143 -29t-143 29t-116.5 79.5t-78.5 117.5t-29 144zM232 337l172 207h99v-222h62v-73h-62v-71h-90v71h-181v88zM413 447l-103 -125h103v125z" />
    <glyph glyph-name="uni2784" unicode="&#x2784;" horiz-adv-x="819" 
d="M124 355q0 -62 22 -116t60.5 -93.5t90.5 -62t112 -22.5t111.5 22.5t90 62t60.5 93.5t22 116t-22 115.5t-60.5 93t-90 62t-111.5 22.5t-112 -22.5t-90.5 -62t-60.5 -93t-22 -115.5zM42 355q0 76 29 143t78.5 117.5t116.5 79.5t143 29t143 -29t117 -79.5t79 -117.5t29 -143
q0 -77 -29 -144t-79 -117.5t-117 -79.5t-143 -29t-143 29t-116.5 79.5t-78.5 117.5t-29 144zM332 288q5 -24 23 -38t43 -14q26 0 42.5 13.5t16.5 39.5q0 29 -17 42.5t-43 13.5q-18 0 -32.5 -6.5t-25.5 -17.5l-74 24l47 188h214v-75h-158l-19 -73q13 13 32.5 19t39.5 6
q57 0 91.5 -31.5t34.5 -87.5q0 -27 -10 -51t-28.5 -41.5t-46.5 -28t-64 -10.5q-29 0 -53.5 8.5t-43.5 22.5t-31.5 32.5t-16.5 39.5z" />
    <glyph glyph-name="uni2785" unicode="&#x2785;" horiz-adv-x="819" 
d="M124 355q0 -62 22 -116t60.5 -93.5t90.5 -62t112 -22.5t111.5 22.5t90 62t60.5 93.5t22 116t-22 115.5t-60.5 93t-90 62t-111.5 22.5t-112 -22.5t-90.5 -62t-60.5 -93t-22 -115.5zM42 355q0 76 29 143t78.5 117.5t116.5 79.5t143 29t143 -29t117 -79.5t79 -117.5t29 -143
q0 -77 -29 -144t-79 -117.5t-117 -79.5t-143 -29t-143 29t-116.5 79.5t-78.5 117.5t-29 144zM516 461q-29 12 -64 12q-43 0 -76 -22t-43 -70q14 17 37.5 27t49.5 10q57 0 93.5 -31t36.5 -91q0 -29 -11.5 -53.5t-31.5 -41.5t-48 -26.5t-61 -9.5q-30 0 -58.5 10.5t-50 31.5
t-34.5 52.5t-13 73.5q0 49 15.5 89t43 67.5t65 42.5t80.5 15q24 0 47 -5t41 -13zM338 294q0 -26 19 -40.5t42 -14.5t41.5 14.5t18.5 40.5t-18.5 41t-41.5 15t-42 -15t-19 -41z" />
    <glyph glyph-name="uni2786" unicode="&#x2786;" horiz-adv-x="819" 
d="M124 355q0 -62 22 -116t60.5 -93.5t90.5 -62t112 -22.5t111.5 22.5t90 62t60.5 93.5t22 116t-22 115.5t-60.5 93t-90 62t-111.5 22.5t-112 -22.5t-90.5 -62t-60.5 -93t-22 -115.5zM42 355q0 76 29 143t78.5 117.5t116.5 79.5t143 29t143 -29t117 -79.5t79 -117.5t29 -143
q0 -77 -29 -144t-79 -117.5t-117 -79.5t-143 -29t-143 29t-116.5 79.5t-78.5 117.5t-29 144zM560 454q-13 -10 -35.5 -31t-45.5 -56t-42 -85t-25 -117h-96q6 71 27.5 125t44.5 91q27 43 60 74h-191v76h303v-77z" />
    <glyph glyph-name="uni2787" unicode="&#x2787;" horiz-adv-x="819" 
d="M124 355q0 -62 22 -116t60.5 -93.5t90.5 -62t112 -22.5t111.5 22.5t90 62t60.5 93.5t22 116t-22 115.5t-60.5 93t-90 62t-111.5 22.5t-112 -22.5t-90.5 -62t-60.5 -93t-22 -115.5zM42 355q0 76 29 143t78.5 117.5t116.5 79.5t143 29t143 -29t117 -79.5t79 -117.5t29 -143
q0 -77 -29 -144t-79 -117.5t-117 -79.5t-143 -29t-143 29t-116.5 79.5t-78.5 117.5t-29 144zM409 392q24 0 37 12.5t13 30.5q0 16 -12.5 28t-37.5 12t-38 -12t-13 -28q0 -18 13.5 -30.5t37.5 -12.5zM409 238q31 0 45.5 13t14.5 33q0 18 -15 31t-45 13t-45.5 -13t-15.5 -31
q0 -20 15 -33t46 -13zM409 165q-72 0 -111.5 30.5t-39.5 78.5q0 29 19.5 52.5t51.5 34.5q-29 11 -44.5 33t-15.5 48q0 46 38 75.5t102 29.5t101.5 -29.5t37.5 -75.5q0 -26 -15 -48t-44 -33q32 -11 51.5 -34t19.5 -51q0 -48 -39 -79.5t-112 -31.5z" />
    <glyph glyph-name="uni2788" unicode="&#x2788;" horiz-adv-x="819" 
d="M124 355q0 -62 22 -116t60.5 -93.5t90.5 -62t112 -22.5t111.5 22.5t90 62t60.5 93.5t22 116t-22 115.5t-60.5 93t-90 62t-111.5 22.5t-112 -22.5t-90.5 -62t-60.5 -93t-22 -115.5zM42 355q0 76 29 143t78.5 117.5t116.5 79.5t143 29t143 -29t117 -79.5t79 -117.5t29 -143
q0 -77 -29 -144t-79 -117.5t-117 -79.5t-143 -29t-143 29t-116.5 79.5t-78.5 117.5t-29 144zM296 251q14 -5 29.5 -9t32.5 -4q45 0 79 21t42 71q-14 -17 -38 -27t-50 -10q-27 0 -50.5 8t-41.5 23.5t-28.5 38.5t-10.5 52t11 53t31.5 41.5t48.5 27t61 9.5q30 0 58 -10.5
t49.5 -30.5t34.5 -51t13 -71q0 -53 -15 -94t-41 -68.5t-63 -42t-80 -14.5q-24 0 -47.5 4.5t-41.5 12.5zM470 416q0 26 -18 41t-43 15q-24 0 -42 -15t-18 -41t18 -41t42 -15q25 0 43 15t18 41z" />
    <glyph glyph-name="uniE000" unicode="&#xe000;" horiz-adv-x="789" 
d="M28 225h157v484h572v-100h-471v-384h156l-207 -241z" />
    <glyph glyph-name="uniE002" unicode="&#xe002;" horiz-adv-x="962" 
d="M737 586l199 -232h-142q0 -77 -29 -144t-79 -117t-117.5 -79t-144.5 -29t-144 29t-117 79t-79 117t-29 144t29 144.5t79 117.5t117 79t144 29q91 0 169 -40l-42 -91q-59 31 -126 31q-56 0 -105 -21t-85.5 -57.5t-57.5 -86t-21 -105.5t21 -105.5t57.5 -86.5t85.5 -58
t105 -21t105 21t85 58t57 86.5t21 105.5h-154z" />
    <glyph glyph-name="commaaccent" unicode="&#xf6c3;" horiz-adv-x="201" 
d="M30 673q0 26 19.5 42.5t47.5 16.5q29 0 51.5 -20.5t22.5 -59.5q0 -36 -12.5 -59t-31.5 -37t-41.5 -19.5t-43.5 -5.5v45q32 0 51.5 13t21.5 33q-2 -1 -8.5 -3.5t-16.5 -2.5q-27 0 -43.5 15.5t-16.5 41.5z" />
    <glyph glyph-name="uniFB00" unicode="&#xfb00;" horiz-adv-x="683" 
d="M622 625q-11 0 -24 -3t-23.5 -11.5t-17.5 -23t-7 -36.5v-64h113v-101h-113v-386h-117v386h-203v-386h-117v386h-85v101h85v67q0 41 12.5 73.5t35 55t53.5 34.5t69 12q22 0 38.5 -3.5t22.5 -6.5v-99q-5 2 -15 3.5t-27 1.5q-11 0 -24 -3t-23.5 -11.5t-17.5 -23t-7 -36.5
v-64h203v67q0 41 12.5 73.5t35 55t53.5 34.5t69 12q22 0 38.5 -3.5t22.5 -6.5v-99q-5 2 -15 3.5t-27 1.5z" />
    <glyph glyph-name="fi" unicode="&#xfb01;" horiz-adv-x="626" 
d="M283 729q22 0 38.5 -3.5t22.5 -6.5v-99q-5 2 -15 3.5t-27 1.5q-11 0 -24 -3t-23.5 -11.5t-17.5 -23t-7 -36.5v-64h324v-487h-114v386h-210v-386h-117v386h-85v101h85v67q0 41 12.5 73.5t35 55t53.5 34.5t69 12zM422 659q0 32 21.5 54t53.5 22t54 -22t22 -54
q0 -31 -22 -53t-54 -22t-53.5 22t-21.5 53z" />
    <glyph glyph-name="fl" unicode="&#xfb02;" horiz-adv-x="625" 
d="M302 625q-11 0 -24 -3t-23.5 -11.5t-17.5 -23t-7 -36.5v-64h208v237h115v-724h-115v386h-208v-386h-117v386h-85v101h85v67q0 41 12.5 73.5t35 55t53.5 34.5t69 12q22 0 38.5 -3.5t22.5 -6.5v-99q-5 2 -15 3.5t-27 1.5z" />
    <glyph glyph-name="uniFB03" unicode="&#xfb03;" horiz-adv-x="948" 
d="M743 659q0 32 22 54t53 22q32 0 54 -22t22 -54q0 -31 -22 -53t-54 -22q-31 0 -53 22t-22 53zM622 625q-11 0 -24 -3t-23.5 -11.5t-17.5 -23t-7 -36.5v-64h326v-487h-115v386h-211v-386h-117v386h-203v-386h-117v386h-85v101h85v67q0 41 12.5 73.5t35 55t53.5 34.5t69 12
q22 0 38.5 -3.5t22.5 -6.5v-99q-5 2 -15 3.5t-27 1.5q-12 0 -24.5 -3t-23 -11.5t-17.5 -23t-7 -36.5v-64h203v67q0 41 12.5 73.5t35 55t53.5 34.5t69 12q22 0 38.5 -3.5t22.5 -6.5v-99q-5 2 -15 3.5t-27 1.5z" />
    <glyph glyph-name="uniFB04" unicode="&#xfb04;" horiz-adv-x="948" 
d="M622 625q-11 0 -24 -3t-23.5 -11.5t-17.5 -23t-7 -36.5v-64h211v237h115v-724h-115v386h-211v-386h-117v386h-203v-386h-117v386h-85v101h85v67q0 41 12.5 73.5t35 55t53.5 34.5t69 12q22 0 38.5 -3.5t22.5 -6.5v-99q-5 2 -15 3.5t-27 1.5q-11 0 -24 -3t-23.5 -11.5
t-17.5 -23t-7 -36.5v-64h203v67q0 41 12.5 73.5t35 55t53.5 34.5t69 12q22 0 38.5 -3.5t22.5 -6.5v-99q-5 2 -15 3.5t-27 1.5z" />
    <glyph glyph-name="uniFEFF" unicode="&#xfeff;" horiz-adv-x="0" 
 />
    <glyph glyph-name="florin.ss09" horiz-adv-x="420" 
d="M142 388h-103v99h123l21 101q8 40 26 69t42 47.5t52 27t57 8.5q32 0 48.5 -3.5t33.5 -8.5v-101q-26 8 -57 8q-12 0 -25 -2.5t-26 -11.5t-23 -25.5t-16 -44.5l-13 -64h122v-99h-142l-81 -401q-8 -40 -26 -69t-42 -47.5t-52 -27t-57 -8.5q-33 0 -50 3.5t-35 8.5v101
q12 -3 27 -5t34 -2q12 0 25 2.5t25.5 11.5t23 25.5t15.5 43.5z" />
    <glyph glyph-name="daggerdbl.ss09" horiz-adv-x="445" 
d="M173 239v231h-124v93h124v146h99v-146h124v-93h-124v-231h124v-93h-124v-146h-99v146h-124v93h124z" />
    <glyph glyph-name="i.latn_TRK" horiz-adv-x="259" 
d="M72 0v487h115v-487h-115zM54 658q0 32 22 54t53 22q32 0 54 -22t22 -54t-22 -53.5t-54 -21.5q-31 0 -53 21.5t-22 53.5z" />
    <glyph glyph-name="Ldot.latn_CAT" horiz-adv-x="558" 
d="M301 390q0 29 21 49.5t50 20.5t50 -20.5t21 -49.5t-21 -49.5t-50 -20.5t-50 20.5t-21 49.5zM89 0v709h120v-595h325v-114h-445z" />
    <glyph glyph-name="ldot.latn_CAT" horiz-adv-x="377" 
d="M72 0v724h116v-724h-116zM242 322q0 30 21 51t51 21t51 -21t21 -51q0 -29 -21 -50t-51 -21t-51 21t-21 50z" />
    <glyph glyph-name="zero.dnom" horiz-adv-x="390" 
d="M127 183q0 -20 2.5 -40t9.5 -36.5t20.5 -27t35.5 -10.5t35.5 10.5t21 27t9.5 36.5t2 40q0 19 -2 39.5t-9.5 37.5t-21 27.5t-35.5 10.5t-35.5 -10.5t-20.5 -27t-9.5 -37t-2.5 -40.5zM35 183q0 34 7.5 68t26 61.5t49.5 44.5t77 17q47 0 78 -17.5t49.5 -45t26 -61.5t7.5 -67
t-7.5 -66.5t-26 -61t-49.5 -45t-78 -17.5t-78 17t-49 44.5t-25.5 61.5t-7.5 67z" />
    <glyph glyph-name="one.dnom" horiz-adv-x="249" 
d="M111 0v233h-89v60q43 1 68 23.5t30 49.5h82v-366h-91z" />
    <glyph glyph-name="two.dnom" horiz-adv-x="353" 
d="M41 223q-3 15 -3 30q0 24 9 46t26.5 38.5t43.5 26.5t59 10t58.5 -9.5t43 -26t26.5 -38t9 -45.5q0 -35 -20 -62.5t-55 -48.5l-71 -43q-17 -12 -20 -25h169v-76h-281v12q0 48 19.5 85.5t67.5 66.5l60 36q41 24 41 56q0 17 -12 30.5t-37 13.5q-24 0 -38 -14.5t-14 -37.5
q0 -4 0.5 -11t2.5 -13z" />
    <glyph glyph-name="three.dnom" horiz-adv-x="365" 
d="M108 126q4 -25 22.5 -41.5t46.5 -16.5t44.5 14.5t16.5 34.5q0 28 -19 39.5t-42 11.5q-16 0 -31 -6l-32 61l91 69h-164v75h279v-72l-94 -69q45 -5 74 -33t29 -77q0 -25 -10.5 -47.5t-30 -39t-47.5 -26.5t-63 -10q-33 0 -59.5 9.5t-45 24.5t-30 34.5t-15.5 40.5z" />
    <glyph glyph-name="four.dnom" horiz-adv-x="385" 
d="M26 159l172 207h99v-222h62v-73h-62v-71h-90v71h-181v88zM207 269l-103 -125h103v125z" />
    <glyph glyph-name="five.dnom" horiz-adv-x="351" 
d="M105 121q5 -24 23 -38t43 -14q26 0 42.5 13.5t16.5 39.5q0 29 -17 42.5t-43 13.5q-18 0 -32.5 -6.5t-25.5 -17.5l-74 24l47 188h214v-75h-158l-19 -73q13 13 32.5 19t39.5 6q57 0 91.5 -31.5t34.5 -87.5q0 -27 -10 -51t-28.5 -41.5t-46.5 -28t-64 -10.5q-29 0 -53.5 8.5
t-43.5 22.5t-31.5 32.5t-16.5 39.5z" />
    <glyph glyph-name="six.dnom" horiz-adv-x="372" 
d="M307 289q-29 12 -64 12q-43 0 -76 -22t-43 -70q14 17 37.5 27t49.5 10q57 0 93.5 -31t36.5 -91q0 -29 -11.5 -53.5t-31.5 -41.5t-48 -26.5t-61 -9.5q-30 0 -58.5 10.5t-50 31.5t-34.5 52.5t-13 73.5q0 49 15.5 89t43 67.5t65 42.5t80.5 15q24 0 47 -5t41 -13zM129 122
q0 -26 19 -40.5t42 -14.5t41.5 14.5t18.5 40.5t-18.5 41t-41.5 15t-42 -15t-19 -41z" />
    <glyph glyph-name="seven.dnom" horiz-adv-x="343" 
d="M325 289q-13 -10 -35.5 -31t-45.5 -56t-42 -85t-25 -117h-96q6 71 27.5 125t44.5 91q27 43 60 74h-191v76h303v-77z" />
    <glyph glyph-name="eight.dnom" horiz-adv-x="369" 
d="M185 219q24 0 37 12.5t13 30.5q0 16 -12.5 28t-37.5 12t-38 -12t-13 -28q0 -18 13.5 -30.5t37.5 -12.5zM185 65q31 0 45.5 13t14.5 33q0 18 -15 31t-45 13t-45.5 -13t-15.5 -31q0 -20 15 -33t46 -13zM185 -8q-72 0 -111.5 30.5t-39.5 78.5q0 29 19.5 52.5t51.5 34.5
q-29 11 -44.5 33t-15.5 48q0 46 38 75.5t102 29.5t101.5 -29.5t37.5 -75.5q0 -26 -15 -48t-44 -33q32 -11 51.5 -34t19.5 -51q0 -48 -39 -79.5t-112 -31.5z" />
    <glyph glyph-name="nine.dnom" horiz-adv-x="369" 
d="M65 79q14 -5 29.5 -9t32.5 -4q45 0 79 21t42 71q-14 -17 -38 -27t-50 -10q-27 0 -50.5 8t-41.5 23.5t-28.5 38.5t-10.5 52t11 53t31.5 41.5t48.5 27t61 9.5q30 0 58 -10.5t49.5 -30.5t34.5 -51t13 -71q0 -53 -15 -94t-41 -68.5t-63 -42t-80 -14.5q-24 0 -47.5 4.5
t-41.5 12.5zM239 244q0 26 -18 41t-43 15q-24 0 -42 -15t-18 -41t18 -41t42 -15q25 0 43 15t18 41z" />
    <glyph glyph-name="space.frac" horiz-adv-x="48" 
 />
    <glyph glyph-name="space.tf" 
 />
    <glyph glyph-name="comma.tf" 
d="M190 83q0 36 27 61t67 25q45 0 74 -33t29 -87q0 -60 -18 -102.5t-45.5 -71t-60 -44t-61.5 -18.5v67q20 4 38 15.5t32 28t22.5 36.5t8.5 42q-3 -2 -9.5 -3.5t-17.5 -1.5q-37 0 -61.5 23t-24.5 63z" />
    <glyph glyph-name="period.tf" 
d="M197 85q0 39 26.5 66t65.5 27q38 0 65.5 -27t27.5 -66t-27.5 -65.5t-65.5 -26.5q-39 0 -65.5 26.5t-26.5 65.5z" />
    <glyph glyph-name="colon.tf" 
d="M201 412q0 37 25.5 63t62.5 26t63 -26t26 -63t-26 -62.5t-63 -25.5t-62.5 25.5t-25.5 62.5zM201 74q0 37 25.5 63t62.5 26t63 -26t26 -63t-26 -62.5t-63 -25.5t-62.5 25.5t-25.5 62.5z" />
    <glyph glyph-name="semicolon.tf" 
d="M198 79q0 33 25 56t62 23q42 0 68.5 -30t26.5 -81q0 -56 -16.5 -95t-42 -65.5t-56 -40.5t-56.5 -17v62q18 4 35 14.5t30 25.5t21 33.5t8 39.5q-4 -2 -9.5 -3.5t-16.5 -1.5q-34 0 -56.5 21.5t-22.5 58.5zM200 412q0 37 25.5 63t62.5 26t63 -26t26 -63t-26 -62.5t-63 -25.5
t-62.5 25.5t-25.5 62.5z" />
    <glyph glyph-name="section.tf" 
d="M492 249q0 -23 -7 -42t-18.5 -35t-25.5 -28t-28 -19q39 -28 60 -65t21 -78q0 -43 -17 -77.5t-46 -59t-66.5 -37.5t-77.5 -13q-48 0 -85.5 13.5t-63.5 38t-40 58.5t-15 75l108 20q0 -51 24.5 -79.5t72.5 -28.5q39 0 64 21t25 59q0 23 -13.5 42.5t-36.5 31.5l-102 52
q-28 14 -53 30t-44 36.5t-30.5 46t-11.5 59.5q0 22 7 41.5t18.5 35.5t25.5 27.5t29 19.5q-41 28 -61.5 64.5t-20.5 78.5q0 43 17.5 77.5t46 58.5t66 37t78.5 13q48 0 85.5 -14t63.5 -38.5t39.5 -58.5t14.5 -73l-109 -20q0 51 -25 79t-70 28q-41 0 -66 -22.5t-25 -57.5
q0 -47 51 -73l101 -52q28 -14 53 -30.5t44.5 -36.5t31 -46t11.5 -59zM231 357q-17 -11 -27.5 -28t-10.5 -38q0 -24 11.5 -42.5t40.5 -33.5l100 -53q17 11 28 27.5t11 38.5q0 24 -11.5 42t-40.5 34z" />
    <glyph glyph-name="florin.tf" 
d="M223 388h-103v99h123l21 101q8 40 26 69t42 47.5t52 27t57 8.5q32 0 48.5 -3.5t33.5 -8.5v-101q-26 8 -57 8q-12 0 -25 -2.5t-26 -11.5t-23 -25.5t-16 -44.5l-13 -64h122v-99h-142l-81 -401q-8 -40 -26 -69t-42 -47.5t-52 -27t-57 -8.5q-33 0 -50 3.5t-35 8.5v101
q12 -3 27 -5t34 -2q12 0 25 2.5t25.5 11.5t23 25.5t15.5 43.5z" />
    <glyph glyph-name="uni2007.tf" 
 />
    <glyph glyph-name="uni2008.tf" 
 />
    <glyph glyph-name="parenleft.case" horiz-adv-x="328" 
d="M46 353q0 77 15 143t41.5 122.5t61 103.5t73.5 86l68 -58q-38 -43 -67.5 -86.5t-50.5 -91.5t-32 -102t-11 -117t11 -117t32 -102t50.5 -91.5t67.5 -86.5l-68 -58q-39 39 -73.5 86t-61 103.5t-41.5 122.5t-15 143z" />
    <glyph glyph-name="parenright.case" horiz-adv-x="329" 
d="M283 353q0 -77 -15 -143t-41.5 -122.5t-61 -103.5t-73.5 -86l-68 58q37 43 67 86.5t51 91.5t32 102t11 117t-11 117t-32 102t-51 91.5t-67 86.5l68 58q39 -39 73.5 -86t61 -103.5t41.5 -122.5t15 -143z" />
    <glyph glyph-name="hyphen.case" horiz-adv-x="412" 
d="M65 291v103h282v-103h-282z" />
    <glyph glyph-name="bracketleft.case" horiz-adv-x="324" 
d="M72 -100v909h214v-90h-116v-729h116v-90h-214z" />
    <glyph glyph-name="bracketright.case" horiz-adv-x="324" 
d="M38 -100v90h116v729h-116v90h214v-909h-214z" />
    <glyph glyph-name="braceleft.case" horiz-adv-x="375" 
d="M23 404q43 0 74 22t31 75v118q0 97 49 143.5t138 46.5h23v-89h-22q-45 0 -67.5 -22.5t-22.5 -74.5v-144q0 -49 -27 -81.5t-75 -43.5q48 -11 75 -43t27 -81v-144q0 -52 22.5 -74t67.5 -22h22v-89h-23q-89 0 -138 46.5t-49 143.5v117q0 52 -31 74t-74 22v100z" />
    <glyph glyph-name="braceright.case" horiz-adv-x="375" 
d="M352 304q-43 0 -74 -22t-31 -74v-117q0 -97 -49 -143.5t-138 -46.5h-23v89h22q45 0 67.5 22t22.5 74v144q0 49 27 81t75 43q-48 11 -75 43.5t-27 81.5v144q0 52 -22.5 74.5t-67.5 22.5h-22v89h23q89 0 138 -46.5t49 -143.5v-118q0 -53 31 -75t74 -22v-100z" />
    <glyph glyph-name="exclamdown.case" horiz-adv-x="270" 
d="M206 0h-142l30 498h83zM62 642q0 30 21.5 51.5t51.5 21.5t52 -21.5t22 -51.5q0 -31 -22 -52t-52 -21t-51.5 21t-21.5 52z" />
    <glyph glyph-name="guillemotleft.case" horiz-adv-x="548" 
d="M177 150l-135 193l136 194h111l-134 -195l133 -192h-111zM384 150l-135 193l136 194h111l-134 -195l133 -192h-111z" />
    <glyph glyph-name="uni00AD.case" horiz-adv-x="414" 
d="M66 302v102h282v-102h-282z" />
    <glyph glyph-name="guillemotright.case" horiz-adv-x="548" 
d="M260 150l133 192l-134 195h111l136 -194l-135 -193h-111zM53 150l133 192l-134 195h111l136 -194l-135 -193h-111z" />
    <glyph glyph-name="questiondown.case" horiz-adv-x="519" 
d="M323 500q3 -18 3 -38q0 -45 -18 -82t-62 -68l-46 -33q-25 -18 -36 -40t-11 -48q0 -39 26.5 -69.5t81.5 -30.5q29 0 50 10t35 26.5t20.5 37t6.5 42.5q0 11 -1.5 23.5t-4.5 21.5l114 -12q3 -11 4 -22.5t1 -23.5q0 -38 -14 -75t-42 -66.5t-70 -48t-99 -18.5q-56 0 -98.5 17
t-71.5 45t-43.5 64t-14.5 74q0 60 27.5 102.5t71.5 73.5l43 30q24 17 36.5 42.5t12.5 55.5v10h99zM200 643q0 30 21 51.5t52 21.5q30 0 51.5 -21.5t21.5 -51.5t-21.5 -51.5t-51.5 -21.5q-31 0 -52 21.5t-21 51.5z" />
    <glyph glyph-name="endash.case" horiz-adv-x="644" 
d="M66 292v101h514v-101h-514z" />
    <glyph glyph-name="emdash.case" horiz-adv-x="1076" 
d="M66 292v101h946v-101h-946z" />
    <glyph glyph-name="guilsinglleft.case" horiz-adv-x="341" 
d="M177 150l-135 193l136 194h111l-134 -195l133 -192h-111z" />
    <glyph glyph-name="guilsinglright.case" horiz-adv-x="341" 
d="M53 150l133 192l-134 195h112l135 -194l-135 -193h-111z" />
    <glyph glyph-name="G.ss01" horiz-adv-x="774" 
d="M405 -15q-71 0 -136 25.5t-115 73.5t-80 116.5t-30 154.5t30 154.5t80 116t115 73t135 25.5q66 0 119.5 -18t94.5 -49.5t68 -73t39 -87.5l-115 -35q-9 32 -25.5 59.5t-42 48t-60 32.5t-78.5 12q-45 0 -88 -15.5t-76 -47t-53.5 -80.5t-20.5 -115q0 -65 20 -113.5t53 -81
t76 -49t90 -16.5q42 0 77 11.5t62 31.5t44 48.5t23 61.5h-267v106h390q2 -10 2 -20v-20q0 -68 -22 -127.5t-64 -104.5t-104 -71t-141 -26z" />
    <glyph glyph-name="Gcircumflex.ss01" horiz-adv-x="774" 
d="M405 -15q-71 0 -136 25.5t-115 73.5t-80 116.5t-30 154.5t30 154.5t80 116t115 73t135 25.5q66 0 119.5 -18t94.5 -49.5t68 -73t39 -87.5l-115 -35q-9 32 -25.5 59.5t-42 48t-60 32.5t-78.5 12q-45 0 -88 -15.5t-76 -47t-53.5 -80.5t-20.5 -115q0 -65 20 -113.5t53 -81
t76 -49t90 -16.5q42 0 77 11.5t62 31.5t44 48.5t23 61.5h-267v106h390q2 -10 2 -20v-20q0 -68 -22 -127.5t-64 -104.5t-104 -71t-141 -26zM227 759l116 124h129l119 -124h-110l-75 64l-72 -64h-107z" />
    <glyph glyph-name="Gbreve.ss01" horiz-adv-x="774" 
d="M405 -15q-71 0 -136 25.5t-115 73.5t-80 116.5t-30 154.5t30 154.5t80 116t115 73t135 25.5q66 0 119.5 -18t94.5 -49.5t68 -73t39 -87.5l-115 -35q-9 32 -25.5 59.5t-42 48t-60 32.5t-78.5 12q-45 0 -88 -15.5t-76 -47t-53.5 -80.5t-20.5 -115q0 -65 20 -113.5t53 -81
t76 -49t90 -16.5q42 0 77 11.5t62 31.5t44 48.5t23 61.5h-267v106h390q2 -10 2 -20v-20q0 -68 -22 -127.5t-64 -104.5t-104 -71t-141 -26zM397 754q-39 0 -68.5 11.5t-49.5 30t-31 42.5t-12 48h93q2 -19 17.5 -36.5t50.5 -17.5t50.5 17.5t16.5 36.5h93q-1 -24 -11.5 -48
t-30.5 -42.5t-49.5 -30t-68.5 -11.5z" />
    <glyph glyph-name="Gdotaccent.ss01" horiz-adv-x="774" 
d="M405 -15q-71 0 -136 25.5t-115 73.5t-80 116.5t-30 154.5t30 154.5t80 116t115 73t135 25.5q66 0 119.5 -18t94.5 -49.5t68 -73t39 -87.5l-115 -35q-9 32 -25.5 59.5t-42 48t-60 32.5t-78.5 12q-45 0 -88 -15.5t-76 -47t-53.5 -80.5t-20.5 -115q0 -65 20 -113.5t53 -81
t76 -49t90 -16.5q42 0 77 11.5t62 31.5t44 48.5t23 61.5h-267v106h390q2 -10 2 -20v-20q0 -68 -22 -127.5t-64 -104.5t-104 -71t-141 -26zM329 828q0 31 21.5 52t51.5 21t51.5 -21t21.5 -52q0 -29 -21.5 -50t-51.5 -21t-51.5 21t-21.5 50z" />
    <glyph glyph-name="Gcommaaccent.ss01" horiz-adv-x="774" 
d="M405 -15q-71 0 -136 25.5t-115 73.5t-80 116.5t-30 154.5t30 154.5t80 116t115 73t135 25.5q66 0 119.5 -18t94.5 -49.5t68 -73t39 -87.5l-115 -35q-9 32 -25.5 59.5t-42 48t-60 32.5t-78.5 12q-45 0 -88 -15.5t-76 -47t-53.5 -80.5t-20.5 -115q0 -65 20 -113.5t53 -81
t76 -49t90 -16.5q42 0 77 11.5t62 31.5t44 48.5t23 61.5h-267v106h390q2 -10 2 -20v-20q0 -68 -22 -127.5t-64 -104.5t-104 -71t-141 -26zM344 -96q0 25 19.5 42t47.5 17t51 -20.5t23 -60.5q0 -34 -12.5 -57t-31 -37t-41.5 -20t-44 -6v44q32 0 51.5 14.5t21.5 33.5
q-2 -2 -8.5 -4.5t-16.5 -2.5q-27 0 -43.5 15.5t-16.5 41.5z" />
    <glyph glyph-name="a.ss02" horiz-adv-x="602" 
d="M157 246q0 -70 35.5 -114.5t96.5 -44.5q28 0 52 11.5t41 32.5t26.5 50.5t9.5 64.5q0 71 -35.5 112.5t-93.5 41.5q-59 0 -95.5 -41.5t-36.5 -112.5zM419 70q-17 -35 -53.5 -59t-89.5 -24q-54 0 -97 20t-74 55t-47.5 82t-16.5 102q0 53 16.5 99.5t47.5 81t73.5 54.5
t95.5 20q32 0 56.5 -7.5t42 -19t28.5 -25.5t16 -26v64h113v-398q0 -30 2 -55.5t3 -33.5h-111q-2 8 -3.5 26.5t-1.5 43.5z" />
    <glyph glyph-name="agrave.ss02" horiz-adv-x="602" 
d="M157 246q0 -70 35.5 -114.5t96.5 -44.5q28 0 52 11.5t41 32.5t26.5 50.5t9.5 64.5q0 71 -35.5 112.5t-93.5 41.5q-59 0 -95.5 -41.5t-36.5 -112.5zM419 70q-17 -35 -53.5 -59t-89.5 -24q-54 0 -97 20t-74 55t-47.5 82t-16.5 102q0 53 16.5 99.5t47.5 81t73.5 54.5
t95.5 20q32 0 56.5 -7.5t42 -19t28.5 -25.5t16 -26v64h113v-398q0 -30 2 -55.5t3 -33.5h-111q-2 8 -3.5 26.5t-1.5 43.5zM119 696h139l88 -148h-95z" />
    <glyph glyph-name="aacute.ss02" horiz-adv-x="602" 
d="M310 548h-95l89 148h137zM157 246q0 -70 35.5 -114.5t96.5 -44.5q28 0 52 11.5t41 32.5t26.5 50.5t9.5 64.5q0 71 -35.5 112.5t-93.5 41.5q-59 0 -95.5 -41.5t-36.5 -112.5zM419 70q-17 -35 -53.5 -59t-89.5 -24q-54 0 -97 20t-74 55t-47.5 82t-16.5 102q0 53 16.5 99.5
t47.5 81t73.5 54.5t95.5 20q32 0 56.5 -7.5t42 -19t28.5 -25.5t16 -26v64h113v-398q0 -30 2 -55.5t3 -33.5h-111q-2 8 -3.5 26.5t-1.5 43.5z" />
    <glyph glyph-name="acircumflex.ss02" horiz-adv-x="602" 
d="M129 549l107 143h121l108 -143h-99l-70 77l-70 -77h-97zM157 246q0 -70 35.5 -114.5t96.5 -44.5q28 0 52 11.5t41 32.5t26.5 50.5t9.5 64.5q0 71 -35.5 112.5t-93.5 41.5q-59 0 -95.5 -41.5t-36.5 -112.5zM419 70q-17 -35 -53.5 -59t-89.5 -24q-54 0 -97 20t-74 55
t-47.5 82t-16.5 102q0 53 16.5 99.5t47.5 81t73.5 54.5t95.5 20q32 0 56.5 -7.5t42 -19t28.5 -25.5t16 -26v64h113v-398q0 -30 2 -55.5t3 -33.5h-111q-2 8 -3.5 26.5t-1.5 43.5z" />
    <glyph glyph-name="atilde.ss02" horiz-adv-x="602" 
d="M157 246q0 -70 35.5 -114.5t96.5 -44.5q28 0 52 11.5t41 32.5t26.5 50.5t9.5 64.5q0 71 -35.5 112.5t-93.5 41.5q-59 0 -95.5 -41.5t-36.5 -112.5zM419 70q-17 -35 -53.5 -59t-89.5 -24q-54 0 -97 20t-74 55t-47.5 82t-16.5 102q0 53 16.5 99.5t47.5 81t73.5 54.5
t95.5 20q32 0 56.5 -7.5t42 -19t28.5 -25.5t16 -26v64h113v-398q0 -30 2 -55.5t3 -33.5h-111q-2 8 -3.5 26.5t-1.5 43.5zM129 574q0 59 29.5 87t73.5 28q22 0 38.5 -6.5t31.5 -15.5l10 -6q11 -7 21.5 -12t21.5 -5q31 0 31 44h76v-17q0 -59 -29 -88t-73 -29q-22 0 -39 7
t-32 16l-10 6q-11 7 -21.5 11.5t-21.5 4.5q-15 0 -22.5 -10t-7.5 -33h-76z" />
    <glyph glyph-name="adieresis.ss02" horiz-adv-x="602" 
d="M124 625q0 27 18.5 46t45.5 19q28 0 47 -19t19 -46q0 -28 -19 -46.5t-47 -18.5q-27 0 -45.5 18.5t-18.5 46.5zM324 625q0 27 18.5 46t45.5 19t46 -19t19 -46q0 -28 -19 -46.5t-46 -18.5t-45.5 18.5t-18.5 46.5zM157 246q0 -70 35.5 -114.5t96.5 -44.5q28 0 52 11.5
t41 32.5t26.5 50.5t9.5 64.5q0 71 -35.5 112.5t-93.5 41.5q-59 0 -95.5 -41.5t-36.5 -112.5zM419 70q-17 -35 -53.5 -59t-89.5 -24q-54 0 -97 20t-74 55t-47.5 82t-16.5 102q0 53 16.5 99.5t47.5 81t73.5 54.5t95.5 20q32 0 56.5 -7.5t42 -19t28.5 -25.5t16 -26v64h113v-398
q0 -30 2 -55.5t3 -33.5h-111q-2 8 -3.5 26.5t-1.5 43.5z" />
    <glyph glyph-name="aring.ss02" horiz-adv-x="602" 
d="M157 246q0 -70 35.5 -114.5t96.5 -44.5q28 0 52 11.5t41 32.5t26.5 50.5t9.5 64.5q0 71 -35.5 112.5t-93.5 41.5q-59 0 -95.5 -41.5t-36.5 -112.5zM419 70q-17 -35 -53.5 -59t-89.5 -24q-54 0 -97 20t-74 55t-47.5 82t-16.5 102q0 53 16.5 99.5t47.5 81t73.5 54.5
t95.5 20q32 0 56.5 -7.5t42 -19t28.5 -25.5t16 -26v64h113v-398q0 -30 2 -55.5t3 -33.5h-111q-2 8 -3.5 26.5t-1.5 43.5zM398 639q0 -24 -9 -44t-25 -34.5t-36.5 -23t-43.5 -8.5t-43 8.5t-36 23t-25 34.5t-9 44t9 44.5t25 35t36 23t43 8.5t43.5 -8.5t36.5 -23t25 -35
t9 -44.5zM328 639q0 20 -12.5 32.5t-32.5 12.5q-18 0 -30.5 -12.5t-12.5 -32.5q0 -19 12.5 -31.5t30.5 -12.5q20 0 32.5 12.5t12.5 31.5z" />
    <glyph glyph-name="amacron.ss02" horiz-adv-x="602" 
d="M157 246q0 -70 35.5 -114.5t96.5 -44.5q28 0 52 11.5t41 32.5t26.5 50.5t9.5 64.5q0 71 -35.5 112.5t-93.5 41.5q-59 0 -95.5 -41.5t-36.5 -112.5zM419 70q-17 -35 -53.5 -59t-89.5 -24q-54 0 -97 20t-74 55t-47.5 82t-16.5 102q0 53 16.5 99.5t47.5 81t73.5 54.5
t95.5 20q32 0 56.5 -7.5t42 -19t28.5 -25.5t16 -26v64h113v-398q0 -30 2 -55.5t3 -33.5h-111q-2 8 -3.5 26.5t-1.5 43.5zM144 577v90h278v-90h-278z" />
    <glyph glyph-name="abreve.ss02" horiz-adv-x="602" 
d="M157 246q0 -70 35.5 -114.5t96.5 -44.5q28 0 52 11.5t41 32.5t26.5 50.5t9.5 64.5q0 71 -35.5 112.5t-93.5 41.5q-59 0 -95.5 -41.5t-36.5 -112.5zM419 70q-17 -35 -53.5 -59t-89.5 -24q-54 0 -97 20t-74 55t-47.5 82t-16.5 102q0 53 16.5 99.5t47.5 81t73.5 54.5
t95.5 20q32 0 56.5 -7.5t42 -19t28.5 -25.5t16 -26v64h113v-398q0 -30 2 -55.5t3 -33.5h-111q-2 8 -3.5 26.5t-1.5 43.5zM289 547q-38 0 -66 12.5t-47.5 33t-29.5 47t-11 54.5h82q2 -22 18 -41.5t54 -19.5q19 0 32.5 5.5t22.5 14.5t13 19.5t5 21.5h82q-1 -28 -11 -54.5
t-29 -47t-48 -33t-67 -12.5z" />
    <glyph glyph-name="aogonek.ss02" horiz-adv-x="602" 
d="M157 246q0 -70 35.5 -114.5t96.5 -44.5q28 0 52 11.5t41 32.5t26.5 50.5t9.5 64.5q0 71 -35.5 112.5t-93.5 41.5q-59 0 -95.5 -41.5t-36.5 -112.5zM365 -116q0 45 21.5 72t49.5 44h-12q-2 8 -3.5 25.5t-1.5 37.5v7q-17 -35 -53.5 -59t-89.5 -24q-54 0 -97 20t-74 55
t-47.5 82t-16.5 102q0 53 16.5 99.5t47.5 81t73.5 54.5t95.5 20q32 0 56.5 -7.5t42 -19t28.5 -25.5t16 -26v64h113v-398q0 -32 2 -57.5t3 -31.5q-14 -7 -28.5 -16t-26.5 -21t-19.5 -26.5t-7.5 -31.5q0 -24 15.5 -35t35.5 -11q16 0 31 3v-74q-10 -4 -21.5 -6t-29.5 -2
q-25 0 -47 7t-38 20.5t-25 33t-9 43.5z" />
    <glyph glyph-name="aringacute.ss02" horiz-adv-x="602" 
d="M330 778h-95l89 148h137zM398 638q0 -24 -9 -44t-25 -34.5t-36.5 -23t-43.5 -8.5t-43 8.5t-36 23t-25 34.5t-9 44t9 44.5t25 35t36 23t43 8.5t43.5 -8.5t36.5 -23t25 -35t9 -44.5zM328 638q0 20 -12.5 32.5t-32.5 12.5q-18 0 -30.5 -12.5t-12.5 -32.5q0 -19 12.5 -31.5
t30.5 -12.5q20 0 32.5 12.5t12.5 31.5zM157 246q0 -70 35.5 -114.5t96.5 -44.5q28 0 52 11.5t41 32.5t26.5 50.5t9.5 64.5q0 71 -35.5 112.5t-93.5 41.5q-59 0 -95.5 -41.5t-36.5 -112.5zM419 70q-17 -35 -53.5 -59t-89.5 -24q-54 0 -97 20t-74 55t-47.5 82t-16.5 102
q0 53 16.5 99.5t47.5 81t73.5 54.5t95.5 20q32 0 56.5 -7.5t42 -19t28.5 -25.5t16 -26v64h113v-398q0 -30 2 -55.5t3 -33.5h-111q-2 8 -3.5 26.5t-1.5 43.5z" />
    <glyph glyph-name="r.ss03" horiz-adv-x="363" 
d="M188 418q2 33 25 54t55 21q35 0 58 -23t23 -58q0 -34 -23 -57t-58 -23q-32 0 -55 20.5t-25 52.5v-405h-116v487h116v-69z" />
    <glyph glyph-name="racute.ss03" horiz-adv-x="362" 
d="M189 548h-95l89 148h137zM188 418q2 33 25 54t55 21q35 0 58 -23t23 -58q0 -34 -23 -57t-58 -23q-32 0 -55 20.5t-25 52.5v-405h-116v487h116v-69z" />
    <glyph glyph-name="rcommaaccent.ss03" horiz-adv-x="362" 
d="M60 -96q0 25 19.5 42t47.5 17t51 -20.5t23 -60.5q0 -34 -12.5 -57t-31 -37t-41.5 -20t-44 -6v44q32 0 51.5 14.5t21.5 33.5q-2 -2 -8.5 -4.5t-16.5 -2.5q-27 0 -43.5 15.5t-16.5 41.5zM188 418q2 33 25 54t55 21q35 0 58 -23t23 -58q0 -34 -23 -57t-58 -23
q-32 0 -55 20.5t-25 52.5v-405h-116v487h116v-69z" />
    <glyph glyph-name="rcaron.ss03" horiz-adv-x="362" 
d="M134 694l70 -77l70 77h98l-106 -145h-124l-106 145h98zM188 418q2 33 25 54t55 21q35 0 58 -23t23 -58q0 -34 -23 -57t-58 -23q-32 0 -55 20.5t-25 52.5v-405h-116v487h116v-69z" />
    <glyph glyph-name="ampersand.ss04" horiz-adv-x="680" 
d="M371 340h283v-103h-79v-6q-1 -50 -18.5 -95t-51.5 -78.5t-83 -53t-113 -19.5q-60 0 -109 16t-83.5 44.5t-53 67t-18.5 84.5q0 38 12.5 69.5t32.5 55.5t46.5 40t53.5 24q-46 16 -78 55.5t-32 96.5q0 39 16 73t45 59t68.5 39.5t86.5 14.5q59 0 101 -16.5t69.5 -44t41 -62.5
t16.5 -72l-117 -16q-2 50 -29 79.5t-81 29.5q-19 0 -37 -6.5t-31.5 -18t-21.5 -28t-8 -36.5q0 -24 10 -42t25 -29.5t32.5 -17t32.5 -5.5h12v-103q-24 0 -49.5 -6.5t-46.5 -21.5t-34.5 -39.5t-13.5 -60.5q0 -22 8.5 -43.5t26.5 -38t45 -26.5t64 -10q66 0 104 37.5t39 103.5v6
h-83v103z" />
    <glyph glyph-name="registered.ss06" horiz-adv-x="465" 
d="M42 526q0 39 15 74t40.5 60.5t60.5 40.5t74 15t74 -15t61 -40.5t41 -60.5t15 -74t-15 -74t-41 -60.5t-61 -40.5t-74 -15t-74 15t-60.5 40.5t-40.5 60.5t-15 74zM93 526q0 -30 10.5 -55.5t29.5 -45t44.5 -30.5t54.5 -11t54.5 11t44.5 30.5t30 45t11 55.5t-11 55.5t-30 45
t-44.5 30.5t-54.5 11t-54.5 -11t-44.5 -30.5t-29.5 -45t-10.5 -55.5zM229 495h-13v-65h-54v196h84q29 0 48.5 -19t19.5 -46q0 -18 -9.5 -33t-25.5 -23l36 -75h-57zM233 539q11 0 18.5 5.5t7.5 16.5t-7.5 16t-18.5 5h-17v-43h17z" />
    <glyph glyph-name="zero.numr" horiz-adv-x="389" 
d="M126 526q0 -20 2.5 -40t9.5 -36.5t20.5 -27t35.5 -10.5t35.5 10.5t21 27t9.5 36.5t2 40q0 19 -2 39.5t-9.5 37.5t-21 27.5t-35.5 10.5t-35.5 -10.5t-20.5 -27t-9.5 -37t-2.5 -40.5zM34 526q0 34 7.5 68t26 61.5t49.5 44.5t77 17q47 0 78 -17.5t49.5 -45t26 -61.5t7.5 -67
t-7.5 -66.5t-26 -61t-49.5 -45t-78 -17.5t-78 17t-49 44.5t-25.5 61.5t-7.5 67z" />
    <glyph glyph-name="one.numr" horiz-adv-x="249" 
d="M112 343v233h-89v60q43 1 68 23.5t30 49.5h82v-366h-91z" />
    <glyph glyph-name="two.numr" horiz-adv-x="351" 
d="M40 566q-3 15 -3 30q0 24 9 46t26.5 38.5t43.5 26.5t59 10t58.5 -9.5t43 -26t26.5 -38t9 -45.5q0 -35 -20 -62.5t-55 -48.5l-71 -43q-17 -12 -20 -25h169v-76h-281v12q0 48 19.5 85.5t67.5 66.5l60 36q41 24 41 56q0 17 -12 30.5t-37 13.5q-24 0 -38 -14.5t-14 -37.5
q0 -4 0.5 -11t2.5 -13z" />
    <glyph glyph-name="three.numr" horiz-adv-x="363" 
d="M107 468q4 -25 22.5 -41.5t46.5 -16.5t44.5 14.5t16.5 34.5q0 28 -19 39.5t-42 11.5q-16 0 -31 -6l-32 61l91 69h-164v75h279v-72l-94 -69q45 -5 74 -33t29 -77q0 -25 -10.5 -47.5t-30 -39t-47.5 -26.5t-63 -10q-33 0 -59.5 9.5t-45 24.5t-30 34.5t-15.5 40.5z" />
    <glyph glyph-name="four.numr" horiz-adv-x="383" 
d="M25 502l172 207h99v-222h62v-73h-62v-71h-90v71h-181v88zM206 612l-103 -125h103v125z" />
    <glyph glyph-name="five.numr" horiz-adv-x="349" 
d="M104 464q5 -24 23 -38t43 -14q26 0 42.5 13.5t16.5 39.5q0 29 -17 42.5t-43 13.5q-18 0 -32.5 -6.5t-25.5 -17.5l-74 24l47 188h214v-75h-158l-19 -73q13 13 32.5 19t39.5 6q57 0 91.5 -31.5t34.5 -87.5q0 -27 -10 -51t-28.5 -41.5t-46.5 -28t-64 -10.5q-29 0 -53.5 8.5
t-43.5 22.5t-31.5 32.5t-16.5 39.5z" />
    <glyph glyph-name="six.numr" horiz-adv-x="371" 
d="M307 631q-29 12 -64 12q-43 0 -76 -22t-43 -70q14 17 37.5 27t49.5 10q57 0 93.5 -31t36.5 -91q0 -29 -11.5 -53.5t-31.5 -41.5t-48 -26.5t-61 -9.5q-30 0 -58.5 10.5t-50 31.5t-34.5 52.5t-13 73.5q0 49 15.5 89t43 67.5t65 42.5t80.5 15q24 0 47 -5t41 -13zM129 464
q0 -26 19 -40.5t42 -14.5t41.5 14.5t18.5 40.5t-18.5 41t-41.5 15t-42 -15t-19 -41z" />
    <glyph glyph-name="seven.numr" horiz-adv-x="343" 
d="M325 632q-13 -10 -35.5 -31t-45.5 -56t-42 -85t-25 -117h-96q6 71 27.5 125t44.5 91q27 43 60 74h-191v76h303v-77z" />
    <glyph glyph-name="eight.numr" horiz-adv-x="368" 
d="M184 562q24 0 37 12.5t13 30.5q0 16 -12.5 28t-37.5 12t-38 -12t-13 -28q0 -18 13.5 -30.5t37.5 -12.5zM184 408q31 0 45.5 13t14.5 33q0 18 -15 31t-45 13t-45.5 -13t-15.5 -31q0 -20 15 -33t46 -13zM184 335q-72 0 -111.5 30.5t-39.5 78.5q0 29 19.5 52.5t51.5 34.5
q-29 11 -44.5 33t-15.5 48q0 46 38 75.5t102 29.5t101.5 -29.5t37.5 -75.5q0 -26 -15 -48t-44 -33q32 -11 51.5 -34t19.5 -51q0 -48 -39 -79.5t-112 -31.5z" />
    <glyph glyph-name="nine.numr" horiz-adv-x="369" 
d="M65 420q14 -5 29.5 -9t32.5 -4q45 0 79 21t42 71q-14 -17 -38 -27t-50 -10q-27 0 -50.5 8t-41.5 23.5t-28.5 38.5t-10.5 52t11 53t31.5 41.5t48.5 27t61 9.5q30 0 58 -10.5t49.5 -30.5t34.5 -51t13 -71q0 -53 -15 -94t-41 -68.5t-63 -42t-80 -14.5q-24 0 -47.5 4.5
t-41.5 12.5zM239 585q0 26 -18 41t-43 15q-24 0 -42 -15t-18 -41t18 -41t42 -15q25 0 43 15t18 41z" />
    <glyph glyph-name="a.ordn" horiz-adv-x="378" 
d="M33 459q0 46 30 71.5t73 31.5l86 13q14 2 20 9t6 15q0 20 -15 33.5t-46 13.5q-30 0 -47 -17t-19 -40l-81 17q2 21 12.5 41.5t29.5 36t45 25.5t60 10q40 0 68.5 -10.5t46 -28.5t25.5 -41.5t8 -49.5v-169q0 -21 1.5 -36.5t2.5 -18.5h-82q-1 2 -2.5 13.5t-1.5 28.5
q-13 -20 -38 -36t-64 -16q-27 0 -49 8.5t-37.5 23t-23.5 33t-8 39.5zM170 423q15 0 29 4t25 13.5t17.5 25.5t6.5 39v15l-82 -12q-18 -3 -30.5 -13.5t-12.5 -30.5q0 -16 11.5 -28.5t35.5 -12.5z" />
    <glyph glyph-name="b.ordn" horiz-adv-x="438" 
d="M53 365v507h89v-203q11 20 38.5 34t66.5 14q38 0 67.5 -13.5t49.5 -37.5t30.5 -57t10.5 -71q0 -39 -11.5 -72t-32.5 -57.5t-50.5 -38t-66.5 -13.5t-63 14t-40 37v-43h-88zM315 538q0 48 -25 73.5t-62 25.5q-36 0 -61.5 -25.5t-25.5 -73.5q0 -49 25.5 -75t61.5 -26
q37 0 62 26t25 75z" />
    <glyph glyph-name="c.ordn" horiz-adv-x="397" 
d="M210 637q-36 0 -62.5 -25.5t-26.5 -74.5q0 -48 26.5 -73.5t63.5 -25.5q18 0 32 5.5t24 14t16 19t9 20.5l80 -27q-6 -21 -19 -41.5t-33.5 -36.5t-47.5 -26t-61 -10q-38 0 -71 13.5t-57 37.5t-38 57.5t-14 72.5q0 40 13.5 73.5t37.5 58t56.5 38t70.5 13.5q35 0 62 -10
t47 -26t32.5 -37t18.5 -42l-81 -28q-5 22 -23.5 41t-54.5 19z" />
    <glyph glyph-name="d.ordn" horiz-adv-x="436" 
d="M383 427q0 -23 1.5 -39.5t2.5 -22.5h-87q-2 5 -2.5 16.5t-0.5 23.5q-13 -20 -38 -34t-60 -14q-37 0 -67.5 13.5t-52.5 38t-34.5 57.5t-12.5 72q0 37 12 70t34 57t52.5 38t66.5 14q45 0 67.5 -15t30.5 -29v199h88v-445zM123 537q0 -47 24.5 -74t62.5 -27q37 0 61.5 27.5
t24.5 74.5q0 48 -24.5 73.5t-61.5 25.5t-62 -26t-25 -74z" />
    <glyph glyph-name="e.ordn" horiz-adv-x="402" 
d="M281 576q-1 26 -19.5 48t-59.5 22q-37 0 -57 -22.5t-22 -47.5h158zM366 464q-14 -46 -54 -77.5t-103 -31.5q-35 0 -67 12.5t-56.5 36t-39 57.5t-14.5 78q0 41 14 74t37.5 56.5t54 36.5t63.5 13q80 0 124.5 -47.5t44.5 -130.5q0 -11 -1 -19t-1 -9h-247q2 -35 27.5 -58.5
t61.5 -23.5q34 0 53 16t27 39z" />
    <glyph glyph-name="f.ordn" horiz-adv-x="270" 
d="M174 632v-267h-90v267h-58v77h58v41q0 59 33.5 93t89.5 34q16 0 28.5 -2.5t17.5 -4.5v-76q-3 1 -10 2.5t-20 1.5q-16 0 -32.5 -10t-16.5 -39v-40h78v-77h-78z" />
    <glyph glyph-name="g.ordn" horiz-adv-x="429" 
d="M112 368q5 -29 27 -48t56 -19q45 0 68.5 23t23.5 74v28q-11 -18 -35 -32t-62 -14q-34 0 -63 12.5t-50 35t-33 53t-12 66.5q0 34 11.5 65t32.5 53.5t50 36t64 13.5q42 0 66 -14.5t34 -33.5v42h86v-308q0 -35 -10 -67.5t-31.5 -57.5t-55.5 -39.5t-82 -14.5q-35 0 -64 10
t-50.5 27t-34.5 39.5t-17 47.5zM206 457q37 0 60 24t23 66t-24 66t-59 24q-36 0 -60 -24t-24 -66t23 -66t61 -24z" />
    <glyph glyph-name="h.ordn" horiz-adv-x="414" 
d="M144 365h-91v507h91v-193q17 21 42.5 30t50.5 9q33 0 57 -10.5t39.5 -29.5t23.5 -44t8 -53v-216h-90v201q0 30 -15.5 50.5t-50.5 20.5q-30 0 -47 -20.5t-18 -49.5v-202z" />
    <glyph glyph-name="i.ordn" horiz-adv-x="196" 
d="M53 365v344h90v-344h-90zM42 823q0 23 16.5 39.5t39.5 16.5t39.5 -16.5t16.5 -39.5t-16.5 -39.5t-39.5 -16.5t-39.5 16.5t-16.5 39.5z" />
    <glyph glyph-name="j.ordn" horiz-adv-x="197" 
d="M53 709h91v-375q0 -50 -28.5 -81t-78.5 -31q-21 0 -34 2.5t-16 4.5v75q3 -1 10 -2t17 -1q22 0 30.5 10.5t8.5 30.5v367zM42 823q0 24 16.5 40.5t39.5 16.5t39.5 -16.5t16.5 -40.5q0 -23 -16.5 -39t-39.5 -16t-39.5 16t-16.5 39z" />
    <glyph glyph-name="k.ordn" horiz-adv-x="391" 
d="M245 564l142 -199h-111l-94 134l-39 -42v-92h-90v507h90v-294l122 131h119z" />
    <glyph glyph-name="l.ordn" horiz-adv-x="197" 
d="M53 365v507h91v-507h-91z" />
    <glyph glyph-name="m.ordn" horiz-adv-x="625" 
d="M53 365v344h86v-43q14 26 43 39t58 13q35 0 61.5 -14.5t40.5 -43.5q20 32 48 45t62 13q24 0 46 -7.5t39.5 -23.5t28 -40.5t10.5 -58.5v-223h-88v206q0 29 -15 47.5t-47 18.5q-31 0 -48 -20.5t-17 -49.5v-202h-90v206q0 28 -15 47t-47 19t-49 -20.5t-17 -49.5v-202h-90z
" />
    <glyph glyph-name="n.ordn" horiz-adv-x="414" 
d="M144 365h-91v344h88v-44q16 28 43.5 40.5t56.5 12.5q31 0 54.5 -10.5t39 -29.5t23 -44t7.5 -53v-216h-90v201q0 30 -15.5 50.5t-50.5 20.5q-32 0 -48.5 -21.5t-16.5 -53.5v-197z" />
    <glyph glyph-name="o.ordn" horiz-adv-x="424" 
d="M212 437q35 0 62 25t27 76t-27 75.5t-62 24.5t-62 -24.5t-27 -75.5q0 -50 27 -75.5t62 -25.5zM212 720q39 0 72 -13.5t57 -37.5t37.5 -57.5t13.5 -73.5t-13.5 -73.5t-37.5 -57.5t-57 -37.5t-72 -13.5t-72 13.5t-57 37.5t-37.5 57.5t-13.5 73.5t13.5 73.5t37.5 57.5
t57 37.5t72 13.5z" />
    <glyph glyph-name="p.ordn" horiz-adv-x="438" 
d="M53 232v477h87v-44q12 21 40 36t67 15q37 0 66.5 -13.5t50 -37.5t31 -57t10.5 -71q0 -39 -11.5 -72t-32.5 -57t-51 -37.5t-66 -13.5t-62 12.5t-39 30.5v-168h-90zM317 537q0 47 -25 73t-63 26q-37 0 -62 -26t-25 -73t25 -73.5t62 -26.5q38 0 63 26t25 74z" />
    <glyph glyph-name="q.ordn" horiz-adv-x="438" 
d="M296 232v169q-12 -20 -37 -32t-60 -12q-37 0 -67.5 13.5t-52.5 38t-34.5 57.5t-12.5 72q0 37 11.5 70t33 57t52 38t67.5 14q45 0 69.5 -17t32.5 -33v42h87v-477h-89zM123 537q0 -47 25 -74t62 -27t62 27t25 74q0 48 -25 74t-62 26t-62 -26t-25 -74z" />
    <glyph glyph-name="r.ordn" horiz-adv-x="279" 
d="M261 619q-14 3 -26 3q-17 0 -33.5 -4.5t-29 -15.5t-20.5 -30t-8 -48v-159h-91v344h88v-52q8 17 20 27.5t25.5 16.5t27.5 8.5t25 2.5q6 0 11.5 -0.5t10.5 -1.5v-91z" />
    <glyph glyph-name="s.ordn" horiz-adv-x="337" 
d="M107 479q2 -21 17.5 -37.5t46.5 -16.5q24 0 35.5 10.5t11.5 24.5q0 28 -38 36l-47 10q-49 11 -72 38.5t-23 63.5q0 23 9.5 43.5t27 35.5t40.5 24t50 9q37 0 62 -10.5t40.5 -25.5t23 -32t9.5 -31l-76 -18q-2 16 -14.5 32.5t-43.5 16.5q-20 0 -32.5 -11t-12.5 -26
q0 -13 9 -21t23 -11l45 -9q48 -9 77 -37t29 -70q0 -20 -8 -40t-24.5 -36t-41.5 -25.5t-58 -9.5q-38 0 -64.5 11t-43.5 27t-25.5 34t-9.5 32z" />
    <glyph glyph-name="t.ordn" horiz-adv-x="274" 
d="M171 709h70v-80h-70v-149q0 -22 10.5 -31t31.5 -9q8 0 16 1t12 2v-75q-4 -2 -17.5 -5t-34.5 -3q-50 0 -78.5 27.5t-28.5 77.5v164h-63v80h18q27 0 40 15.5t13 38.5v49h81v-103z" />
    <glyph glyph-name="u.ordn" horiz-adv-x="413" 
d="M278 365q-2 5 -2.5 15.5t-0.5 20.5q-15 -23 -42 -34t-54 -11q-31 0 -55.5 10.5t-41 29t-25 43.5t-8.5 53v217h90v-200q0 -29 15 -50t50 -21q32 0 49 19t17 51v201h90v-282q0 -24 1 -39t2 -23h-85z" />
    <glyph glyph-name="v.ordn" horiz-adv-x="373" 
d="M233 365h-90l-140 344h99l86 -235l84 235h95z" />
    <glyph glyph-name="w.ordn" horiz-adv-x="595" 
d="M347 709l77 -226l64 226h90l-108 -344h-90l-82 238l-79 -238h-93l-110 344h96l65 -226l76 226h94z" />
    <glyph glyph-name="x.ordn" horiz-adv-x="376" 
d="M135 538l-122 171h107l14 -21l21 -31.5l21 -31.5l14 -21l69 105h103l-120 -169q12 -17 28 -40t33.5 -47.5t34 -48t28.5 -39.5h-106l-74 108q-4 -6 -14.5 -21.5t-22 -32.5t-21.5 -32.5t-14 -21.5h-102z" />
    <glyph glyph-name="y.ordn" horiz-adv-x="379" 
d="M66 229l81 179l-146 301h101l93 -206l87 206h95l-215 -480h-96z" />
    <glyph glyph-name="z.ordn" horiz-adv-x="355" 
d="M36 365v79l166 186h-162v79h276v-76l-170 -190h173v-78h-283z" />
    <glyph glyph-name="numbersign.tf" 
d="M365 437h-110l-37 -167h111zM310 182h-110l-39 -182h-98l39 182h-89v88h107l37 167h-95v87h113l39 185h99l-40 -185h110l40 185h98l-39 -185h83v-87h-102l-36 -167h89v-88h-108l-38 -182h-99z" />
    <glyph glyph-name="dollar.tf" 
d="M252 -115v118q-54 7 -93.5 27.5t-66.5 50t-41.5 64t-18.5 68.5l106 28q3 -27 14 -52t30.5 -44.5t48.5 -31t68 -11.5q60 0 92 27.5t32 68.5q0 35 -24 59t-68 33l-101 21q-79 16 -125.5 65.5t-46.5 124.5q0 40 15 75t41 62t61.5 44.5t76.5 23.5v119h92v-120q44 -7 76 -24.5
t54.5 -41.5t35.5 -52t19 -55l-104 -31q-3 18 -12 36.5t-25 33.5t-40 24.5t-58 9.5q-52 0 -85 -27.5t-33 -67.5q0 -70 82 -88l99 -20q91 -18 139 -71t48 -125q0 -36 -13 -69.5t-38 -61t-61.5 -46.5t-83.5 -26v-118h-92z" />
    <glyph glyph-name="percent.tf" 
d="M530 473l-482 -327v93l482 329v-95zM107 579q0 -26 16.5 -42.5t40.5 -16.5t40.5 16.5t16.5 42.5t-16.5 42t-40.5 16t-40.5 -16t-16.5 -42zM24 579q0 28 11 53t30.5 43.5t44.5 29t54 10.5q28 0 53.5 -10.5t44.5 -29t30 -43.5t11 -53q0 -29 -11 -54t-30.5 -43.5t-45 -29
t-53.5 -10.5t-53.5 10.5t-44.5 29t-30 43.5t-11 54zM358 129q0 -26 16.5 -42.5t40.5 -16.5t40.5 16.5t16.5 42.5t-16.5 42t-40.5 16t-40.5 -16t-16.5 -42zM275 129q0 29 11 54t30.5 43.5t44.5 29t54 10.5q28 0 53.5 -10.5t44.5 -29t30 -43.5t11 -54t-11 -54t-30.5 -43.5
t-45 -29t-53.5 -10.5t-53.5 10.5t-44.5 29.5t-30 43.5t-11 53.5z" />
    <glyph glyph-name="plus.tf" 
d="M338 397h189v-96h-189v-197h-99v197h-188v96h188v195h99v-195z" />
    <glyph glyph-name="zero.tf" 
d="M16 354q0 67 13 132.5t44 118.5q32 53 84 85.5t132 32.5q79 0 131 -32.5t84 -85.5t44.5 -118.5t12.5 -132.5q0 -66 -12.5 -131.5t-43.5 -118.5q-32 -53 -84 -85.5t-132 -32.5t-132.5 32.5t-83.5 85.5q-32 54 -44.5 119t-12.5 131zM441 354q0 53 -7 100.5t-24.5 83.5
t-47 57.5t-73.5 21.5q-45 0 -74 -21t-46.5 -57t-24 -84t-6.5 -101t7 -100.5t24 -83.5t46 -57.5t74 -21.5q44 0 73.5 21.5t47 57.5t24.5 83.5t7 100.5z" />
    <glyph glyph-name="one.tf" 
d="M78 104h170v389h-154v84q68 7 112 43t55 89h105v-605h159v-104h-447v104z" />
    <glyph glyph-name="two.tf" 
d="M37 0q1 43 8.5 83t25.5 76t47.5 67.5t73.5 58.5l125 76q49 30 72.5 62t23.5 76q0 49 -33 83t-88 34q-63 0 -99 -37.5t-36 -99.5q0 -8 1 -18t3 -20l-114 4q-2 8 -3.5 22t-1.5 25q0 46 17 88t48.5 74t77.5 50.5t105 18.5q57 0 101.5 -17.5t76 -48t48 -71t16.5 -85.5
q0 -68 -35 -122t-101 -94l-144 -86q-26 -16 -45 -40t-26 -53h355v-106h-499z" />
    <glyph glyph-name="three.tf" 
d="M544 215q0 -46 -18.5 -87.5t-52 -73t-81.5 -50t-107 -18.5q-58 0 -104.5 17.5t-80.5 47.5t-53.5 70.5t-22.5 86.5l115 25q1 -32 13 -58t31 -45t45 -29t56 -10q32 0 57.5 9.5t43.5 27t28 40.5t10 50q0 31 -10.5 54.5t-28.5 39.5t-42.5 24t-52.5 8q-17 0 -34 -4t-30 -10
l-53 85l200 188h-327v106h479v-99l-197 -183q3 2 7.5 2.5t6.5 0.5q40 -2 77 -17t65 -43t44.5 -67t16.5 -88z" />
    <glyph glyph-name="four.tf" 
d="M5 285l301 424h150v-446h116v-107h-116v-156h-119v156h-332v129zM337 580l-223 -317h223v317z" />
    <glyph glyph-name="five.tf" 
d="M139 222q3 -27 14 -51t29.5 -41.5t44 -28t56.5 -10.5q30 0 55.5 10t44 28t29 43t10.5 55q0 34 -11 60t-29.5 44t-44 27t-54.5 9q-42 0 -73.5 -17t-51.5 -43q-2 1 -18.5 7t-35.5 12.5t-35.5 12.5t-18.5 7l75 363h384v-106h-301l-40 -192q26 27 64.5 40t76.5 13
q53 0 96 -16t73.5 -46.5t47 -74.5t16.5 -99q0 -49 -18 -93t-51.5 -77t-81.5 -52.5t-108 -19.5q-54 0 -99.5 17t-78.5 46.5t-52.5 67.5t-23.5 80z" />
    <glyph glyph-name="six.tf" 
d="M328 468q51 0 93.5 -17t72.5 -48t47 -75t17 -97q0 -54 -20 -99t-55 -77.5t-82.5 -50.5t-101.5 -18q-58 0 -108 21.5t-87 63t-58.5 102t-21.5 138.5q0 99 28 176t77.5 129.5t117.5 79.5t148 27q49 0 87 -10t61 -25l-34 -100q-23 12 -52.5 21t-67.5 9q-56 0 -99.5 -19
t-75 -52.5t-50 -80t-24.5 -101.5q20 44 68.5 73.5t119.5 29.5zM157 228q0 -32 11.5 -57.5t31 -43.5t44.5 -28t53 -10q29 0 55 9.5t45.5 27.5t31 44t11.5 58q0 33 -11 59t-30.5 44t-45.5 27.5t-55 9.5t-54.5 -10t-44.5 -28.5t-30.5 -44.5t-11.5 -57z" />
    <glyph glyph-name="seven.tf" 
d="M554 602q-36 -33 -81.5 -85.5t-87.5 -126.5t-75 -170.5t-45 -219.5h-125q8 90 28.5 166.5t47.5 139.5t57.5 113t58.5 87t51.5 61.5t35.5 35.5h-385v106h520v-107z" />
    <glyph glyph-name="eight.tf" 
d="M289 317q-34 0 -60 -9.5t-43.5 -25.5t-26.5 -37t-9 -44t9 -44t27 -36.5t44 -25t59 -9.5q34 0 60 9.5t43.5 25t26.5 36.5t9 44t-9 44t-26 37t-43.5 25.5t-60.5 9.5zM289 -14q-59 0 -106 15t-81 42t-52 64.5t-18 81.5q0 60 37 107.5t97 66.5q-28 9 -50.5 26t-38 39
t-23.5 46.5t-8 50.5q0 43 18 79.5t50 62.5t76.5 41t98.5 15t98.5 -15t77 -41t50 -62.5t17.5 -79.5q0 -26 -8 -50.5t-24 -46.5t-38.5 -39t-50.5 -26q30 -9 55 -26.5t43 -40t27.5 -50t9.5 -57.5q0 -44 -18 -81.5t-52 -64.5t-81.5 -42t-105.5 -15zM289 408q59 1 91.5 32
t32.5 77q0 43 -32 74t-92 31q-59 0 -91.5 -31t-32.5 -74q0 -46 33 -77t91 -32z" />
    <glyph glyph-name="nine.tf" 
d="M213 -14q-24 0 -49 4t-48 10.5t-42.5 16.5t-32.5 22l33 95q21 -17 58 -30t79 -13q99 0 158 60t64 180q-22 -37 -69 -62t-104 -25q-48 0 -91 16t-75.5 46.5t-51.5 74t-19 98.5q0 54 19 98.5t53 77t81.5 50.5t103.5 18q58 0 107 -21.5t85 -64.5t56.5 -106t20.5 -147
q0 -195 -86 -296.5t-250 -101.5zM412 484q0 31 -11 56t-29.5 43t-43.5 27.5t-53 9.5q-29 0 -53.5 -9.5t-43.5 -27.5t-29.5 -43.5t-10.5 -56.5q0 -32 10.5 -57.5t29.5 -43.5t43.5 -27.5t53.5 -9.5t54 10t43.5 28.5t29 44t10.5 56.5z" />
    <glyph glyph-name="less.tf" 
d="M482 202v-112l-422 211v94l422 213v-112l-301 -146z" />
    <glyph glyph-name="equal.tf" 
d="M51 401v94h476v-94h-476zM51 203v96h476v-96h-476z" />
    <glyph glyph-name="greater.tf" 
d="M399 348l-303 148v112l423 -213v-93l-423 -212v111z" />
    <glyph glyph-name="cent.tf" 
d="M307 201q27 0 48.5 8t36.5 21t25 29t15 33l101 -35q-7 -28 -22.5 -54t-38 -48t-52.5 -37.5t-67 -21.5v-96h-92v97q-45 7 -83 28.5t-66 54.5t-43.5 76.5t-15.5 94.5t15.5 94.5t43.5 77t66 55t83 28.5v103h92v-104q73 -12 118 -57t59 -102l-103 -35q-5 17 -14 33.5
t-23.5 29t-35.5 20.5t-48 8q-29 0 -54.5 -10.5t-44 -30t-29 -47.5t-10.5 -63t10.5 -62.5t29.5 -47t44 -30t55 -10.5z" />
    <glyph glyph-name="sterling.tf" 
d="M560 196q-1 -44 -14.5 -80t-37.5 -61.5t-59 -40t-78 -14.5h-334v96q46 21 76.5 62t30.5 98q0 14 -1.5 25t-4.5 23h-96v91h69q-11 27 -19.5 57.5t-8.5 68.5q0 41 15 77.5t43.5 64.5t69.5 44t92 16q55 0 94 -17t64 -44t37.5 -61t13.5 -68l-102 -21q-2 48 -28.5 79t-78.5 31
q-44 0 -74.5 -26.5t-30.5 -80.5q0 -35 10 -63t21 -57h190v-91h-166q2 -10 3 -18.5t1 -21.5q0 -50 -20.5 -93t-55.5 -68h174q47 0 73.5 29t27.5 76z" />
    <glyph glyph-name="currency.tf" 
d="M400 171q-24 -14 -51.5 -22t-56.5 -8q-31 0 -59 8.5t-52 23.5l-74 -75l-71 71l73 74q-15 23 -23.5 51.5t-8.5 60.5q0 63 33 113l-74 75l72 71l74 -77q51 31 110 31q58 0 106 -28l73 74l72 -71l-71 -72q17 -24 26.5 -54t9.5 -62t-9.5 -62t-25.5 -53l70 -71l-72 -71z
M176 355q0 -52 33 -84.5t83 -32.5t82.5 32.5t32.5 84.5q0 51 -32.5 83t-82.5 32q-25 0 -46 -8.5t-36.5 -23.5t-24.5 -36.5t-9 -46.5z" />
    <glyph glyph-name="yen.tf" 
d="M350 144v-144h-117v144h-188v85h188v70h-188v85h142l-173 325h128l152 -295l153 295h124l-176 -325h128v-85h-173v-70h173v-85h-173z" />
    <glyph glyph-name="logicalnot.tf" 
d="M415 199v195h-377v98h478v-293h-101z" />
    <glyph glyph-name="plusminus.tf" 
d="M338 368v-127h-100v127h-177v95h177v129h100v-129h178v-95h-178zM61 104v96h455v-96h-455z" />
    <glyph glyph-name="multiply.tf" 
d="M289 419l166 170l70 -68l-167 -172l167 -171l-68 -70l-168 171l-167 -171l-69 70l167 171l-166 171l70 69z" />
    <glyph glyph-name="divide.tf" 
d="M215 168q0 29 21.5 50.5t50.5 21.5q30 0 51 -21.5t21 -50.5t-21 -50.5t-51 -21.5q-29 0 -50.5 21.5t-21.5 50.5zM215 530q0 29 21.5 50t50.5 21q30 0 51 -21t21 -50t-21 -51t-51 -22q-29 0 -50.5 22t-21.5 51zM51 299v99h475v-99h-475z" />
    <glyph glyph-name="perthousand.tf" 
d="M531 557l-486 -361v93l486 363v-95zM20 596q0 25 10 47.5t26.5 38.5t38.5 25.5t47 9.5t47 -9.5t39 -25.5t27 -38.5t10 -47.5q0 -26 -10 -47.5t-27 -38t-39 -25.5t-47 -9t-47.5 9t-39 25.5t-26 38t-9.5 47.5zM91 596q0 -23 14.5 -38t36.5 -15t36 15t14 38t-14 37.5
t-36 14.5t-36.5 -14.5t-14.5 -37.5zM203 110q0 -23 15 -37.5t36 -14.5q23 0 36.5 14.5t13.5 37.5t-13.5 38t-36.5 15q-21 0 -36 -15t-15 -38zM377 110q0 -23 14.5 -37.5t36.5 -14.5t36 14.5t14 37.5t-14 38t-36 15t-36.5 -15t-14.5 -38zM132 110q0 25 10 47.5t26.5 38.5
t38.5 25.5t47 9.5q26 0 48 -10t39 -27q17 17 39 27t48 10q25 0 47 -9.5t39 -25.5t27 -38.5t10 -47.5t-10 -47t-27 -38t-39 -25.5t-47 -9.5q-26 0 -48 10t-39 27q-17 -17 -39 -27t-48 -10q-25 0 -47.5 9.5t-39 25.5t-26 38t-9.5 47z" />
    <glyph glyph-name="Euro.tf" 
d="M554 9q-25 -10 -54 -16.5t-68 -6.5q-61 0 -113 17.5t-93 49.5t-70 77t-44 100h-89v89h74q-1 8 -1 15v15v19t1 17h-74v89h90q16 57 47 103t73.5 78t95 49.5t112.5 17.5q41 0 70 -7t49 -15l-32 -100q-13 5 -35 10.5t-53 5.5q-74 0 -126 -37.5t-77 -104.5h247l-26 -89h-241
q-1 -8 -1 -16v-17v-16.5t1 -16.5h222l-26 -89h-177q23 -64 74.5 -100t129.5 -36q50 0 87 13z" />
    <glyph glyph-name="minus.tf" 
d="M63 301v96h452v-96h-452z" />
    <glyph glyph-name="approxequal.tf" 
d="M548 254q-28 -45 -68 -68.5t-87 -23.5q-26 0 -51.5 7t-53.5 23l-47 26q-29 15 -58 15q-50 0 -88 -46l-64 54q28 45 67 69t86 24q50 0 106 -30l47 -25q31 -18 63 -18q24 0 46 11t40 35zM548 452q-28 -45 -67.5 -68.5t-87.5 -24.5q-50 0 -105 31l-47 26q-29 15 -57 15
q-51 0 -89 -46l-64 54q29 45 68 69.5t86 24.5q26 0 51.5 -8t53.5 -23l47 -25q16 -8 31.5 -13t31.5 -5q24 0 46 11t40 35z" />
    <glyph glyph-name="notequal.tf" 
d="M253 203l-68 -99h-110l68 99h-92v95h157l71 102h-228v94h291l66 95h110l-66 -95h74v-94h-138l-71 -102h209v-95h-273z" />
    <glyph glyph-name="lessequal.tf" 
d="M73 368v98l423 140v-99l-292 -89l292 -89v-100zM73 104v96h423v-96h-423z" />
    <glyph glyph-name="greaterequal.tf" 
d="M83 328l291 89l-291 90v99l422 -140v-98l-422 -139v99zM83 104v96h422v-96h-422z" />
    <glyph glyph-name="one.ss05" horiz-adv-x="497" 
d="M50 104h158v389h-154v84q68 7 112 43t55 89h105v-605h151v-104h-427v104z" />
    <glyph glyph-name="caron.alt" horiz-adv-x="208" 
d="M110 520h-80l29 189h119z" />
    <glyph glyph-name="commaturn" horiz-adv-x="180" 
d="M161 596q0 -26 -19 -42t-48 -16q-27 0 -50.5 20.5t-23.5 59.5q0 32 12.5 54.5t31.5 37t41.5 21.5t43.5 7v-44q-32 0 -51.5 -15t-21.5 -32q2 2 8.5 4.5t16.5 2.5q28 0 44 -16t16 -42z" />
    <glyph glyph-name="dieresis.narrow" horiz-adv-x="315" 
d="M19 625q0 26 17.5 44t43.5 18t43.5 -18t17.5 -44t-17.5 -43.5t-43.5 -17.5t-43.5 17.5t-17.5 43.5zM174 625q0 26 17.5 44t42.5 18q26 0 44 -18t18 -44t-18 -43.5t-44 -17.5q-25 0 -42.5 17.5t-17.5 43.5z" />
    <glyph glyph-name="dieresis.uc.narrow" horiz-adv-x="334" 
d="M20 821q0 26 17.5 44t43.5 18t44.5 -18t18.5 -44t-18.5 -44t-44.5 -18t-43.5 18t-17.5 44zM190 821q0 26 18 44t44 18t44 -18t18 -44t-18 -44t-44 -18t-44 18t-18 44z" />
    <glyph glyph-name="grave.uc" horiz-adv-x="283" 
d="M13 883h148l103 -124h-108z" />
    <glyph glyph-name="dieresis.uc" horiz-adv-x="427" 
d="M24 821q0 28 19 47.5t47 19.5q29 0 48 -19.5t19 -47.5t-19 -47t-48 -19q-28 0 -47 19t-19 47zM271 821q0 28 18.5 47.5t46.5 19.5q29 0 48 -19.5t19 -47.5t-19 -47t-48 -19q-28 0 -46.5 19t-18.5 47z" />
    <glyph glyph-name="macron.uc" horiz-adv-x="340" 
d="M20 776v93h300v-93h-300z" />
    <glyph glyph-name="acute.uc" horiz-adv-x="283" 
d="M128 759h-109l102 124h149z" />
    <glyph glyph-name="circumflex.uc" horiz-adv-x="408" 
d="M24 759l116 124h129l119 -124h-110l-75 64l-72 -64h-107z" />
    <glyph glyph-name="caron.uc" horiz-adv-x="408" 
d="M133 883l72 -65l75 65h108l-119 -124h-129l-116 124h109z" />
    <glyph glyph-name="breve.uc" horiz-adv-x="369" 
d="M185 754q-39 0 -68.5 11.5t-49.5 30t-31 42.5t-12 48h93q2 -19 17.5 -36.5t50.5 -17.5t50.5 17.5t16.5 36.5h93q-1 -24 -11.5 -48t-30.5 -42.5t-49.5 -30t-68.5 -11.5z" />
    <glyph glyph-name="dotaccent.uc" horiz-adv-x="186" 
d="M20 826q0 31 21.5 52t51.5 21t51.5 -21t21.5 -52q0 -29 -21.5 -50t-51.5 -21t-51.5 21t-21.5 50z" />
    <glyph glyph-name="ring.uc" horiz-adv-x="285" 
d="M265 860q0 -26 -10 -47.5t-27 -37.5t-39 -25t-47 -9q-24 0 -46.5 9t-39 25t-26.5 37.5t-10 47.5q0 25 10 47t26.5 38t39 25t46.5 9q25 0 47 -9t39 -25t27 -38t10 -47zM189 860q0 21 -13.5 34t-33.5 13t-33.5 -13t-13.5 -34t13.5 -34t33.5 -13t33.5 13t13.5 34z" />
    </font>
</defs>
</svg>
