<svg xmlns="http://www.w3.org/2000/svg" width="103.742" height="33.244" viewBox="0 0 103.742 33.244"><defs><style>.a{fill:#fff;}</style></defs><g transform="translate(-623 -440.118)"><path class="a" d="M797.8,476.252a9.312,9.312,0,0,0-3.08-2.151,9.651,9.651,0,0,0-3.908-.782,5.914,5.914,0,0,0-2.043.31,5.324,5.324,0,0,0-1.439.781,5.773,5.773,0,0,0-1.045,1.053q-.441.58-.874,1.137l-.65-1.873q-.078-.247-.163-.456a1.616,1.616,0,0,0-.209-.371.861.861,0,0,0-.317-.255,1.126,1.126,0,0,0-.487-.093h-2.337a1.991,1.991,0,0,0-.418.046.958.958,0,0,0-.418.217,1.785,1.785,0,0,0-.286.371,1.01,1.01,0,0,0-.116.511v23.509a.909.909,0,0,0,.124.472,1.185,1.185,0,0,0,.31.348,1.52,1.52,0,0,0,.4.217,1.2,1.2,0,0,0,.4.077h3.544a1.081,1.081,0,0,0,.867-.325,1.171,1.171,0,0,0,.278-.789v-7.212q.418.464.851.929a5.961,5.961,0,0,0,1,.851,5.082,5.082,0,0,0,1.292.627,5.557,5.557,0,0,0,1.733.24,9.568,9.568,0,0,0,3.908-.789,9.406,9.406,0,0,0,3.08-2.159,9.917,9.917,0,0,0,2.02-3.227,11.346,11.346,0,0,0,0-7.994A9.941,9.941,0,0,0,797.8,476.252Zm-3.258,9.139a4.71,4.71,0,0,1-.913,1.555,4.365,4.365,0,0,1-1.408,1.045,4.19,4.19,0,0,1-1.811.387,4.755,4.755,0,0,1-1.9-.387,5.028,5.028,0,0,1-1.563-1.045,4.868,4.868,0,0,1-1.052-1.555,4.793,4.793,0,0,1-.387-1.919v-.232a4.647,4.647,0,0,1,.457-1.811,5.044,5.044,0,0,1,1.068-1.478,4.959,4.959,0,0,1,1.532-.99,4.771,4.771,0,0,1,1.849-.364,4.2,4.2,0,0,1,1.811.387,4.321,4.321,0,0,1,1.408,1.052,4.821,4.821,0,0,1,.913,1.555,5.44,5.44,0,0,1,.325,1.881A5.592,5.592,0,0,1,794.542,485.391Z" transform="translate(-127.253 -27.676)"/><path class="a" d="M921.97,440.443a1.154,1.154,0,0,0-.317-.24.733.733,0,0,0-.325-.085h-3.792a.984.984,0,0,0-.851.34,1.384,1.384,0,0,0-.248.836v23.122a1.376,1.376,0,0,0,.248.89,1.046,1.046,0,0,0,.851.3h3.59a1.23,1.23,0,0,0,.859-.3,1.141,1.141,0,0,0,.333-.89V441.294a1.127,1.127,0,0,0-.1-.48A1.382,1.382,0,0,0,921.97,440.443Z" transform="translate(-240.977 0)"/><path class="a" d="M985.4,473.814a.774.774,0,0,0-.4-.217,2.09,2.09,0,0,0-.4-.046h-2.306a2.289,2.289,0,0,0-.48.039.576.576,0,0,0-.286.155,1.114,1.114,0,0,0-.217.356q-.1.24-.255.627l-.449,1.408a6.9,6.9,0,0,0-.975-1.122,6.014,6.014,0,0,0-1.246-.89,6.832,6.832,0,0,0-1.517-.588,7.041,7.041,0,0,0-1.787-.217,10.025,10.025,0,0,0-7.151,2.933,10.185,10.185,0,0,0-2.151,3.219,10.081,10.081,0,0,0-.79,4,10.351,10.351,0,0,0,.356,2.732,10.088,10.088,0,0,0,2.584,4.488,9.933,9.933,0,0,0,4.45,2.592,10.128,10.128,0,0,0,2.7.356,5.971,5.971,0,0,0,1.524-.193,7.346,7.346,0,0,0,2.554-1.23,8.982,8.982,0,0,0,.952-.82l.2.7q.093.263.178.488a1.373,1.373,0,0,0,.209.379.8.8,0,0,0,.325.24,1.366,1.366,0,0,0,.526.085h3.049a2.087,2.087,0,0,0,.4-.046,1.214,1.214,0,0,0,.712-.6,1.377,1.377,0,0,0,.093-.5V474.7a1.245,1.245,0,0,0-.093-.5A.99.99,0,0,0,985.4,473.814Zm-5.866,11.569a4.663,4.663,0,0,1-1.029,1.54,4.928,4.928,0,0,1-1.548,1.029,4.859,4.859,0,0,1-1.927.379,4.348,4.348,0,0,1-1.834-.379,4.294,4.294,0,0,1-1.416-1.029,4.53,4.53,0,0,1-.906-1.54,5.848,5.848,0,0,1,0-3.8,4.869,4.869,0,0,1,.906-1.579,4.283,4.283,0,0,1,1.416-1.076,4.207,4.207,0,0,1,1.834-.395,4.7,4.7,0,0,1,1.927.395A4.888,4.888,0,0,1,978.5,480a5,5,0,0,1,1.029,1.579,5.042,5.042,0,0,1,0,3.8Z" transform="translate(-281.443 -27.676)"/><path class="a" d="M1119.732,475.512a.716.716,0,0,0-.348-.31,1.63,1.63,0,0,0-.681-.116h-3.978a1.331,1.331,0,0,0-.727.17,1.244,1.244,0,0,0-.434.665l-4.287,12.459-4.38-12.459a1.508,1.508,0,0,0-.371-.6.875.875,0,0,0-.635-.24h-3.823q-.821,0-1.06.441a1.209,1.209,0,0,0,.008,1.06l7.382,18.092-2.43,6.314a.613.613,0,0,0-.085.139.706.706,0,0,0-.054.31,1.122,1.122,0,0,0,.255.8,1.3,1.3,0,0,0,.952.271h3.575a.97.97,0,0,0,.681-.255,1.347,1.347,0,0,0,.387-.673l-.047.077q.217-.588.635-1.671t.983-2.515q.565-1.432,1.246-3.142t1.416-3.567q.735-1.857,1.509-3.784t1.524-3.792q.751-1.865,1.447-3.591t1.285-3.18a1.927,1.927,0,0,0,.124-.472A.72.72,0,0,0,1119.732,475.512Z" transform="translate(-393.066 -29.149)"/><path class="a" d="M643.69,472.192,625.051,460.21A1.331,1.331,0,0,0,623,461.33v23.964a1.331,1.331,0,0,0,2.051,1.12l18.639-11.982a1.331,1.331,0,0,0,0-2.24Z" transform="translate(0 -16.572)"/></g></svg>